<svg id="Layer_1" data-name="Layer 1" xmlns="http://www.w3.org/2000/svg" viewBox="0 0 634 634"><defs><style>.cls-1,.cls-4,.cls-7{fill:none;}.cls-2{fill:#060707;}.cls-3{fill:#98f4fd;}.cls-4{stroke:#98f4fd;}.cls-4,.cls-7{stroke-linecap:round;stroke-linejoin:round;stroke-width:0;}.cls-5{fill:#dbfeff;}.cls-6{fill:#111919;}.cls-7{stroke:#111919;}.cls-8{fill:#fc3100;}.cls-9{fill:#416ba9;}.cls-10{fill:#74c3d5;}</style></defs><path class="cls-1" d="M500.70868,349.139c.06866.054.00854.27154.00348.41278a12.91067,12.91067,0,0,1-3.28156.57885,12.9185,12.9185,0,0,0,3.28412-.57885C500.71722,349.41056,500.77734,349.193,500.70868,349.139Z"/><path class="cls-1" d="M594.72784,34.55528c-.59484-.03174-1.18957-.07673-1.78442-.11414.59485.03741,1.18958.08246,1.7843.1142Z"/><path class="cls-1" d="M35.6294,35.41123c-.03772.60346-.09015,1.207-.13672,1.81049.04657-.60346.09906-1.207.13684-1.81061Z"/><path class="cls-1" d="M606.196,412.00584q.10327-31.33777.22437-62.67542-.14355,31.33786-.22437,62.67536Z"/><path class="cls-1" d="M212.20355,537.35368l.00025-.00031a73.88543,73.88543,0,0,0-10.28711.29718A73.87124,73.87124,0,0,1,212.20355,537.35368Z"/><path class="cls-1" d="M35.63019,35.41007l-.00043.00061q92.92988.00925,185.85944.02906Q128.55969,35.40494,35.63019,35.41007Z"/><path class="cls-1" d="M300.94879,495.9835a6.04151,6.04151,0,0,1-.64783.05713,17.0567,17.0567,0,0,1-.70678-2.25556,17.06585,17.06585,0,0,0,.70691,2.25611A6.15047,6.15047,0,0,0,300.94879,495.9835Z"/><path class="cls-1" d="M99.49445,188.03172q-.85694-.75761-1.67444-1.56134a3.29672,3.29672,0,0,0,.95282-1.35993,3.27114,3.27114,0,0,1-.95526,1.35779Q98.63578,187.27574,99.49445,188.03172Z"/><path class="cls-1" d="M36.06348,228.15739c-.02326.07086-.05677.14172-.08441.21252.02764-.07074.06115-.14154.08447-.21222Z"/><path class="cls-1" d="M424.032,602.60148h.00428a6.66249,6.66249,0,0,0-3.46351-.68372A6.64616,6.64616,0,0,1,424.032,602.60148Z"/><path class="cls-1" d="M473.0874,602.3643a6.28169,6.28169,0,0,1-3.06134.342,6.2784,6.2784,0,0,0,3.05762-.3404,138.62756,138.62756,0,0,0,14.07812.2367A138.227,138.227,0,0,1,473.0874,602.3643Z"/><path class="cls-2" d="M623.53766,616.70835q-.03826-43.02017-.10217-86.04046-.32629-162.23036-.66858-324.46064-.17505-92.09829-.26306-184.19677c-.00123-.89631-.02588-1.793-.00953-2.68891.02491-1.35467-.70288-1.82684-1.95922-1.77429-.895.03748-1.79248.01666-2.68873.01807q-44.36745.0704-88.7348.14184-76.62972.14694-153.2594.311-99.49062.19372-198.98126.37494-77.755.14217-155.50995.28613c-6.54822.01459-5.85644-1.1449-5.84381,6.00177q.24995,141.3922.53845,282.78442.1,49.96464.23487,99.92926.16754,103.74986.29077,207.49976c.0086,6.53961-.01117,6.54248,6.70593,6.52643q101.73038-.24234,203.46069-.48139,189.79734-.375,379.59473-.70135c5.6471-.01026,11.29431-.00134,16.71716-.00134A6.62731,6.62731,0,0,0,623.53766,616.70835ZM603.03,602.16508q-55.575.19665-111.1499.38367c-1.57245.00415-3.14533.02838-4.71827.05389a138.62756,138.62756,0,0,1-14.07812-.2367,6.2784,6.2784,0,0,1-3.05762.3404c-.147-.00446-.2937-.00745-.43982-.007q-20.65456.06711-41.30932.08557a15.04713,15.04713,0,0,1-1.751-.19684c-.82843.00446-1.6568.00885-2.48944.01343l-.00018-.00006H424.032l.00025.00012q-5.43448.03909-10.86884.08594-6.20234.04917-12.4024.07721-35.16321.12708-70.32654.2215c-1.48541.00457-2.97077.00067-5.077.00067,1.64246-3.75159,2.95392-7.18177,4.603-10.44123,8.77447-17.34271,15.28485-35.64135,22.79889-53.51709A131.41347,131.41347,0,0,1,379.98975,497.286c4.848-4.93628,10.68658-8.603,16.10571-12.80652,2.072-1.60712,4.72082-1.772,7.13092-2.52563.85846-.26838,1.95666-.5044,2.03754-1.49311.09448-1.15539-.92542-1.79162-1.88477-2.26611a9.53079,9.53079,0,0,0-5.6936-.588,27.95323,27.95323,0,0,0-11.97089,4.73309,54.48653,54.48653,0,0,0-10.23212,8.65759c-5.78247,6.43183-12.10888,12.34192-17.39569,19.26337-3.92956,5.14453-10.27166,5.55212-16.16967,6.4635a4.97046,4.97046,0,0,1-.89466-.0108c-9.321-.278-10.1853-1.0531-11.91528-10.12989-.78217-4.10357-1.57922-8.21759-2.66657-12.2467-1.73553-6.43048-6.17907-10.07837-12.81054-10.69812a32.27426,32.27426,0,0,0-6.25678.01251,13.734,13.734,0,0,0-3.58331.814,8.53106,8.53106,0,0,0-1.82733.96582,6.82438,6.82438,0,0,0-.68036.547,6.212,6.212,0,0,0-1.94531,3.682,8.75,8.75,0,0,0-.08911,1.88483,11.40011,11.40011,0,0,0,.12829,1.175c.05548.34631.13178.70324.218,1.06524a17.0567,17.0567,0,0,0,.70678,2.25556,6.04151,6.04151,0,0,0,.64783-.05713.26734.26734,0,0,0,.13794-.08191c1.37134-1.70837,2.23767-3.88678,4.84131-4.30573a25.225,25.225,0,0,1,10.21893.22352c1.74927.43786,2.45465,2.13787,2.894,3.73632,1.78119,6.47974,3.70831,13.0055,3.61847,19.75775-.2602,19.54548-.59766,39.09522-1.34638,58.62635-.348,9.0791-1.748,18.11615-2.59106,27.17962-.1222,1.31415-.57746,1.89856-1.8628,1.87232-.59692-.01215-1.19445.0097-1.79168.011q-42.10749.08569-84.215.159c-.22113.00031-.44226-.00983-.66339-.02661-.66345-.05035-1.32721-.16046-1.99164-.2265q-1.33814.15527-2.67755.25329c-1.64453.12256-3.29047.1839-4.937.21473q-1.5541.02912-3.10889.02667c-2.68384-.00714-5.36841-.07044-8.051-.09509q-1.34134-.01236-2.682-.00837-70.77264.30488-141.54626.38276-12.20527.02627-24.41059-.08588c-4.34045-.0365-4.34582-.09235-4.3501-4.47485q-.05941-61.59082-.11676-123.18152-.02974-28.22-.07782-56.44019c-.0014-1.6369.11695-3.27386.17963-4.91083-.06781-5.071-.17932-10.1419-.19635-15.21307q-.154-45.92907-.2713-91.85809c-.005-1.75165-.00061-3.50324-.00061-4.98639a1.43974,1.43974,0,0,1,2.00476.20849C51.09345,313.355,65.32605,322.44,79.0882,332.18168c14.787,10.46716,27.46338,22.96594,36.92773,38.51257,3.11212,5.11206,5.08063,10.80152,7.60962,16.20935,1.115,2.38428.66919,4.99891.9328,7.50946.09222.87793.11188,1.98969,1.03186,2.32019,1.168.4195,1.92432-.56726,2.5697-1.37908a9.40288,9.40288,0,0,0,1.67328-5.4759c.57715-8.32769-2.54639-15.62207-6.91992-22.29144-4.98566-7.603-9.5556-15.5105-15.58331-22.421-4.55072-5.21716-3.74-11.66357-3.44013-17.91693a4.93552,4.93552,0,0,1,.21173-.86926c2.22278-9.31244,2.856-9.778,12.21656-9.5661,3.88086.08789,7.76654.07568,11.648.00317,6.02954-.11255,10.087-3.189,12.491-8.59674a22.44187,22.44187,0,0,0,1.95954-10.03009c-.21979-5.84467-4.405-8.64819-10.95758-7.02008,5.11218,3.878,3.54467,8.68915,2.38678,13.51208-.68567,2.85572-2.29633,4.38923-5.22681,4.60907-6.87061.51545-13.76959.78839-20.51556-.77624-15.83637-3.673-31.63086-7.5285-47.425-11.38086-7.54529-1.84039-14.8971-4.33862-22.25623-6.80768-1.59668-.53564-2.54187-1.17889-2.53717-3.06464q.07306-29.33945.04449-58.67913a.59393.59393,0,0,1,.04957-.21253c.02764-.0708.06115-.14166.08441-.21252-.07337-.24646-.13257-.4939-.18213-.74182-.0304-.15216-.05029-.30494-.073-.45752-.02325-.15674-.04712-.31336-.06329-.47052-.04816-.46845-.07-.93842-.07318-1.40924l-.00055-.02149c-.00153-.26013.00177-.52032.0075-.7807.017-.781.05585-1.56244.05414-2.33954q-.20059-91.26516-.34253-182.53039c-.00055-.33289.00891-.66577.02472-.99866.01874-.3952.04706-.79047.07752-1.18579.04657-.60346.099-1.207.13672-1.81049l.00012-.00012v-.00043h.00024l.00043-.00061h-.00055c.85382-1.40326,2.09845-1.19647,3.27563-1.00726.19623.03149.39051.06256.58081.08557a4.55161,4.55161,0,0,0,.55689.03748q38.31336-.12067,76.62732-.05616,103.96235.02554,207.92468.05823c1.89057.00049,3.78107.00006,6.01508.00006-.308,2.37836-1.53754,3.71692-2.54547,5.09583-10.50776,14.37469-18.90912,30.06048-28.16095,45.21472-9.44281,15.46722-20.99384,29.00092-35.82245,39.54736-4.99909,3.55555-10.66748,5.99366-16.03961,8.92414-2.44263,1.33246-5.26874.91235-7.87073,1.54193-.71094.17193-1.56848.26391-1.69037,1.187a2.15611,2.15611,0,0,0,1.01379,1.87372,8.403,8.403,0,0,0,5.43744,1.7149,28.33274,28.33274,0,0,0,13.41736-3.01629,56.7327,56.7327,0,0,0,11.39777-7.06189c6.45276-5.30518,13.43683-9.925,19.44183-15.826,4.51373-4.43549,10.6781-4.18006,16.47272-4.22272a22.1095,22.1095,0,0,1,8.66284,2.09058,4.2574,4.2574,0,0,1,2.95319,4.03454q.18456,4.25052.48614,8.49561c.2381,3.275.4585,6.55511.843,9.81457a12.06654,12.06654,0,0,0,6.61828,9.54718,21.09708,21.09708,0,0,0,13.88886,2.259c4.99255-.83332,7.12884-5.38269,5.01251-10.89582-3.6911,4.98188-8.52393,3.88306-13.44342,2.93207-2.748-.53125-4.33386-1.95251-4.69251-4.6225-.85552-6.36981-1.85186-12.82244-.83044-19.189q4.46778-27.84961,9.54742-55.59961c1.25879-6.889,3.24573-13.64691,4.95948-20.44977.84326-3.348.90387-3.373,4.5849-3.37653q28.67925-.02691,57.35864-.02008,72.14576-.08275,144.2915-.18579,22.62864-.02472,45.25714.038c.59485.00091,1.1897.03064,1.78455.068.59485.03741,1.18958.0824,1.78442.11414a3.52254,3.52254,0,0,1,.84461-.28547c3.11377-.2276,6.94421-1.532,9.14477.15509,2.114,1.62067.73157,5.58826.7428,8.50794q.34443,89.71005.56665,179.42059c.00452,1.62586.28455,3.2826-.30444,4.87671a7.50619,7.50619,0,0,1,.35535,3.52429q.165,52.401.29516,104.80213a9.78372,9.78372,0,0,1-.50561,4.39154c-3.58057-2.33881-7.00025-4.35925-10.19055-6.69324-13.99872-10.24109-29.1952-18.573-43.93848-27.61908-15.57691-9.55762-29.20062-21.18426-39.82312-36.12988-3.64038-5.12207-6.14667-10.917-9.0755-16.45514-1.21668-2.30072-.928-4.96014-1.38922-7.44446-.16083-.86633-.25153-1.88318-1.39917-1.97943a2.23961,2.23961,0,0,0-1.8324,1.12439,8.59573,8.59573,0,0,0-1.66443,5.45709,28.53578,28.53578,0,0,0,2.68176,12.59332,53.48855,53.48855,0,0,0,6.86322,11.50892c5.35974,6.59552,10.02124,13.72607,15.97327,19.88183,4.75305,4.91583,4.36639,11.45362,4.31372,17.73517a4.43882,4.43882,0,0,1-.16492.87891c-2.45269,11.27545-3.26263,9.55682-11.50164,9.98571-3.72663.194-7.46833.27692-11.17218.68915-7.25513.80756-11.24982,4.44977-13.05494,11.52039a23.99249,23.99249,0,0,0-.71514,7.54761,10.06865,10.06865,0,0,0,1.00451,3.947,6.73052,6.73052,0,0,0,6.64868,3.63433,12.91067,12.91067,0,0,0,3.28156-.57885c.00506-.14124.06518-.35877-.00348-.41278-5.33984-4.20661-3.47376-9.53278-2.27588-14.7356.52-2.2583,2.32129-2.96741,4.33472-3.26318,6.66662-.97907,13.42492-1.712,20.07025-.61664q27.3706,4.51189,54.63257,9.67346c9.08215,1.7179,17.95392,4.4187,26.87164,6.87134,1.345.36981,2.08521.74078,2.07837,2.262q-.14355,31.3375-.22437,62.67542c.29737,3.20428.35962,6.41235.35108,9.62134-.00415,1.60443-.02588,3.20916-.04492,4.81366-.01892,1.60449-.03492,3.20874-.02759,4.8125.16577,35.55456.05383,71.11187.45288,106.66351.22632,20.16632-.12866,40.32825.12012,60.49127C607.09467,602.22367,607.391,602.14964,603.03,602.16508Zm-273.23248-76.965c-.16352-1.32483-.268-2.77807,1.97546-2.47394a47.75623,47.75623,0,0,0,21.597-2.15045c-9.62268,20.85047-17.592,41.777-25.41326,62.26074-.97236.44367-1.16907.304-1.08948-.13958,2.11615-11.78852,1.83056-23.73883,2.3551-35.63117C329.54346,539.7841,330.70117,532.52165,329.79749,525.20005ZM98.06488,337.733c-18.22766-14.0744-36.95666-26.3985-55.42474-39.16034,18.90905,6.4953,38.38,10.69989,58.00055,15.93427C98.19177,321.96293,96.84094,329.36991,98.06488,337.733ZM330.84033,46.29649c-5.15289,19.32367-8.18066,38.99316-11.90887,58.95044-7.38648-1.60913-14.95545-2.58808-23.311-1.00739C308.43427,85.0803,319.36658,65.52494,330.84033,46.29649ZM531.76227,300.95017c19.09875,12.674,38.30633,23.99665,57.47668,35.50385-6.64288-2.45941-13.61664-3.23493-20.36181-4.94013-3.02344-.76428-6.17029-1.03137-9.25177-1.57666-8.95014-1.584-17.62641-4.61444-26.79755-5.047-1.44427-.06812-2.59241-.34961-2.01837-2.4372A48.83884,48.83884,0,0,0,531.76227,300.95017Z"/><path class="cls-3" d="M417.923,602.04673c-.2934.00415-.58588-.001-.87708-.02112-3.25311-.22509-3.41-.17486-3.41583-3.26068-.03376-17.92364.02343-35.84753-.02655-53.77112-.00666-2.35943.95971-3.119,3.1972-3.10412,7.74469.05163,15.48194-.639,23.18579-1.1247,8.64862-.54529,17.29706-.12256,25.9032-.7511,22.36652-1.6336,44.75317-.39373,67.12586-.79565,7.47949-.1344,6.96667.11829,6.96484-7.21814q-.00961-37.416.01617-74.83191c.00153-2.08765.143-4.17517.21863-6.26318l-.00006-.00006a44.93279,44.93279,0,0,0-5.97266-4.37506c-.71667-.45563-1.43805-.90436-2.16-1.35224q-.60433-.37491-1.20764-.75152c-1.07166-.67072-2.136-1.35212-3.17456-2.07117-1.46979-1.01758-2.18366-.27747-2.28119,1.29492a11.78209,11.78209,0,0,0-.04584,2.67926c.88666,5.15021-1.289,9.9867-1.49865,15.02692-.05549,1.33441-1.194,1.14557-1.92463.43994a7.97726,7.97726,0,0,1-2.47253-5.12763c-.288-3.11639-.77783-6.2163-.39282-9.37017.18023-1.47626.104-2.98188.20227-4.47034.32458-4.91724-.87763-8.70368-5.57923-11.58514-5.05407-3.09772-9.59057-7.07679-14.57263-10.37385a33.51375,33.51375,0,0,0-10.207-4.43127c-2.05511-.5321-4.17578-.7793-5.67706,1.33075-1.54376,2.16992-2.45441,4.48029-1.32086,7.11572.4685,1.08936,1.17151,2.07575,1.72558,3.13123.34223.65185.726,1.3678.09479,2.04938a1.8766,1.8766,0,0,1-2.089.32971c-3.40424-1.12989-5.76-3.66651-7.84705-6.36621-1.03924-1.3443-.70269-3.19507.02924-4.73139a25.41232,25.41232,0,0,1,5.65631-7.99042,9.97233,9.97233,0,0,1,9.14258-2.46069,35.05133,35.05133,0,0,1,13.45489,5.81592c4.48468,3.21606,8.944,6.46722,13.41791,9.6983.60456.43659,1.21149.87445,1.84735,1.26258,2.93744,1.79376,3.55988,1.54217,4.00733-1.7063.59027-4.285,1.04028-8.59113,1.719-12.86133a11.01164,11.01164,0,0,0-.91467-5.6518c-.42908-1.18463-.64783-2.43536.75873-3.10028,1.17621-.5559,1.94336.37281,2.66351,1.1214a8.48408,8.48408,0,0,1,1.91986,3.499,24.68238,24.68238,0,0,1,1.05054,9.72931c-.49744,5.04193-.55707,10.14-1.80212,15.0877a2.28877,2.28877,0,0,0,.917,2.71015c4.0523,3.02179,8.082,6.07373,12.12,9.11468.06128-8.18329.13721-16.36658.1789-24.55.03155-6.18554.7987-7.04962,6.82654-7.05181q29.69421-.01091,59.38848.04254.10327-31.337.22437-62.67536c.00684-1.52124-.7334-1.89221-2.07837-2.262-8.91772-2.45264-17.78949-5.15344-26.87164-6.87134q-27.2569-5.1557-54.63257-9.67346c-6.64533-1.0954-13.40363-.36243-20.07025.61664-2.01343.29577-3.81476,1.00488-4.33472,3.26318-1.19788,5.20282-3.064,10.529,2.27588,14.7356.06866.054.00854.27154.006.41278a12.9185,12.9185,0,0,1-3.28412.57885,6.73052,6.73052,0,0,1-6.64868-3.63433,10.06865,10.06865,0,0,1-1.00451-3.947,23.99249,23.99249,0,0,1,.71514-7.54761c1.80512-7.07062,5.79981-10.71283,13.05494-11.52039,3.70385-.41223,7.44555-.49511,11.17218-.68915,8.239-.42889,9.049,1.28974,11.50164-9.98571a4.43882,4.43882,0,0,0,.16492-.87891c.05267-6.28155.43933-12.81934-4.31372-17.73517-5.952-6.15576-10.61353-13.28631-15.97327-19.88183a53.48855,53.48855,0,0,1-6.86322-11.50892,28.53578,28.53578,0,0,1-2.68176-12.59332,8.59573,8.59573,0,0,1,1.66443-5.45709,2.23961,2.23961,0,0,1,1.8324-1.12439c1.14764.09625,1.23834,1.1131,1.39917,1.97943.46118,2.48432.17254,5.14374,1.38922,7.44446,2.92883,5.53815,5.43512,11.33307,9.0755,16.45514,10.6225,14.94562,24.24621,26.57226,39.82312,36.12988,14.74328,9.04608,29.93976,17.378,43.93848,27.61908,3.1903,2.334,6.61,4.35443,10.19055,6.69324a9.78372,9.78372,0,0,0,.50561-4.39154q-.128-52.40112-.29516-104.80213a7.50619,7.50619,0,0,0-.35535-3.52429q-30.007.005-60.014.00958c-.89569.00013-1.79681-.06909-2.68615.0047-2.38538.19788-3.08112-.97973-3.04969-3.209.08637-6.11957.29383-12.25556-.0296-18.35944-1.01837-19.22064-.17822-38.4815-1.07233-57.67407-.65319-14.022-.25836-28.016-.64245-42.01648-.13324-4.85712-.22229-5.05975-5.05121-5.062q-42.32355-.01987-84.64716-.01239c-1.11871-.00043-2.23748-.02716-3.3562-.061-1.11877-.03375-2.23749-.07458-3.35626-.10314a14.70932,14.70932,0,0,0-1.71094,2.051q-.25533.36291-.4967.73547c-.21521.33069-.42389.6659-.62958,1.003-.49365.80908-.97009,1.62927-1.478,2.42541-1.49371,2.34143-1.2301,2.80975,1.41108,2.94794,1.48706.07788,2.98559-.01166,4.4768-.07569a19.2345,19.2345,0,0,1,8.37677,1.04627c1.71759.71411,3.50739.54724,5.8169.3858a6.53272,6.53272,0,0,1-5.04578,4.24646,25.85436,25.85436,0,0,1-9.78168.69879c-8.47467-1.37994-14.88568.77991-19.30865,8.83545-3.27826,5.971-8.33881,10.91834-10.78864,17.4588a38.16353,38.16353,0,0,0-1.26428,3.82239c-.53619,2.0766-.86334,4.18182,1.18494,5.72046,2.12292,1.59473,4.43872,2.523,7.10461,1.50842.82642-.31451,1.54053-.91223,2.34522-1.29876,1.00091-.48084,2.07977-1.72376,3.14422-.46332.87488,1.03607.15747,2.29126-.37219,3.355a22.11986,22.11986,0,0,1-4.84131,5.826c-1.717,1.65466-3.8938,1.38415-5.88037.46753a25.33225,25.33225,0,0,1-7.6831-5.34747c-2.71442-2.81214-3.29639-6.29187-2.48212-10.0022a34.75348,34.75348,0,0,1,5.526-12.64063c3.17621-4.519,6.42554-8.98663,9.64136-13.47778.34753-.48535.70312-.96667,1.02154-1.471,2.23688-3.54236,1.973-4.0647-2.2586-4.58649-3.8523-.475-7.72254-.84924-11.54572-1.49853a11.08209,11.08209,0,0,0-6.09741.86407c-.96869.37873-2.08832.79175-2.792-.395-.75336-1.27027-.14331-2.32422.89795-3.1034,3.41265-2.55377,7.43371-3.11126,11.48474-2.97363a97.642,97.642,0,0,1,16.03485,1.57776c1.73291.34985,2.85272.15094,3.80176-1.31555,1.29229-1.9972,3.1065-3.63068,4.09857-5.84143-5.05573-.65686-10.13471-.18891-15.20172-.30463-4.8443-.11072-5.97626-.9541-5.7771-5.753.38427-9.25562-1.5456-18.44568-.80951-27.66608.77221-9.67248.66-19.34289.77136-29.02008.03381-2.94293.16125-3.03277,3.58832-3.04217,13.7326-.03785,27.46539-.02045,41.19812-.02344q66.05163-.01419,132.10315-.05768c1.71716-.00183,3.60949.63916,5.12768-.80975-.59472-.03174-1.18945-.07679-1.7843-.1142-.59485-.03735-1.1897-.06708-1.78455-.068q-22.62854-.03563-45.25714-.038-72.14565.079-144.2915.18579-28.67935.033-57.35864.02008c-3.681.00348-3.74164.02857-4.5849,3.37653-1.71375,6.80286-3.70069,13.56079-4.95948,20.44977q-5.07009,27.74643-9.54742,55.59961c-1.02142,6.36658-.02508,12.81921.83044,19.189.35865,2.67,1.94452,4.09125,4.69251,4.6225,4.91949.951,9.75232,2.04981,13.44342-2.93207,2.11633,5.51313-.02,10.0625-5.01251,10.89582a21.09708,21.09708,0,0,1-13.88886-2.259,12.06654,12.06654,0,0,1-6.61828-9.54718c-.38446-3.25946-.60486-6.53961-.843-9.81457q-.30854-4.2432-.48614-8.49561a4.2574,4.2574,0,0,0-2.95319-4.03454,22.1095,22.1095,0,0,0-8.66284-2.09058c-5.79462.04266-11.959-.21277-16.47272,4.22272-6.005,5.90094-12.98907,10.52081-19.44183,15.826a56.7327,56.7327,0,0,1-11.39777,7.06189,28.33274,28.33274,0,0,1-13.41736,3.01629,8.403,8.403,0,0,1-5.43744-1.7149,2.15611,2.15611,0,0,1-1.01379-1.87372c.12189-.9231.97943-1.01508,1.69037-1.187,2.602-.62958,5.4281-.20947,7.87073-1.54193,5.37213-2.93048,11.04052-5.36859,16.03961-8.92414,14.82861-10.54644,26.37964-24.08014,35.82245-39.54736,9.25183-15.15424,17.65319-30.84,28.16095-45.21472,1.00793-1.37891,2.23742-2.71747,2.54547-5.09583-2.234,0-4.12451.00043-6.01508-.00006q-103.96234-.02947-207.92468-.05823-38.31381-.00942-76.62732.05616a4.55161,4.55161,0,0,1-.55689-.03748c-.1903-.023-.38458-.05408-.58081-.08557-1.17718-.18921-2.42181-.396-3.27563,1.00726h.00055q92.9295.01017,185.859.02967c7.264.00274,6.53534-.77814,6.54461,6.38678.02369,18.21283-.14764,36.42791.10675,54.6372.06714,4.80146-2.37933,7.19941-7.24487,7.16993-28.66168-.17334-57.32989-.34131-85.98572.12146-11.16052.18023-22.32861.598-33.49945.69427-3.10791.02679-3.269.18518-3.27978,3.3595-.03894,11.49487-.40143,23.01043.18188,34.47625.28717,5.644.51868,11.287.63025,16.93549a21.94992,21.94992,0,0,1-.60852,7.09442,9.21251,9.21251,0,0,0,.04938,4.87805c1.08935,4.42365.39953,8.9057.46759,13.36194a1.809,1.809,0,0,1-.07849.55542,3.29672,3.29672,0,0,1-.95282,1.35993q.81692.8063,1.67444,1.56134c1.9649,1.73693,4.088,3.3153,6.31475,4.93725q1.15788.8433,2.35279,1.71594c.916.66926,1.84161,1.35071,2.7857,2.071q1.03373.78864,2.08673,1.63373a76.97245,76.97245,0,0,1,3.48133-21.51789c2.314,1.077,3.03351,3.12012,3.2641,5.36115a35.83135,35.83135,0,0,1,.01916,10.26941c-.24414,1.31885-.34912,2.66467-.49145,4.001-.53211,4.9934.26727,9.04473,5.01458,12.31329,4.8772,3.358,9.14392,7.65533,13.9079,11.26666a34.068,34.068,0,0,0,9.52258,4.8739c2.013.70185,4.12616,1.17926,5.8-.75152,1.72876-1.99414,2.88379-4.23,2.00159-6.9682a25.2318,25.2318,0,0,0-1.32471-2.83063c-.42743-.915-1.29925-1.91638-.20385-2.80072a2.42984,2.42984,0,0,1,2.56176.10333c2.93079,1.39172,4.96576,3.82184,6.79279,6.34045,1.12164,1.54627.68225,3.49421-.23676,5.125a25.69564,25.69564,0,0,1-6.17547,7.60749c-3.05347,2.44653-6.58209,2.655-10.19556,1.54931a35.22845,35.22845,0,0,1-12.18176-6.47c-4.26734-3.50653-8.51477-7.03729-12.78369-10.54181a18.16244,18.16244,0,0,0-2.52185-1.85266c-1.80341-1.01745-2.78565-.65039-3.12934,1.47437-.76385,4.72137-1.69629,9.40161-2.76,14.062-.37817,1.65692.18567,3.245.68433,4.82111.37268,1.178.62476,2.506-.81122,3.09179-1.37952.56281-2.29278-.51086-2.90546-1.52655-2.26428-3.75384-2.59118-7.95446-2.071-12.129a111.23538,111.23538,0,0,1,2.65314-15.43335c.33227-1.22552.679-2.27789-.50043-3.2149-3.96313-3.14893-7.36291-6.95654-11.52814-9.8703.03321,9.2467.10016,18.49341.08515,27.74-.00733,4.51465-.36841,4.80969-4.86426,4.816-4.02686.00568-8.05682.09521-12.08-.0282-15.3479-.47089-30.64874,1.35742-45.99438.88751-.02332.07068-.05683.14148-.08447.21222a.59393.59393,0,0,0-.04957.21253q-.01464,29.33954-.04449,58.67913c-.0047,1.88575.94049,2.529,2.53717,3.06464,7.35913,2.46906,14.71094,4.96729,22.25623,6.80768,15.79419,3.85236,31.58868,7.70789,47.42505,11.38086,6.746,1.56463,13.645,1.29169,20.51556.77624,2.93048-.21984,4.54114-1.75335,5.22681-4.60907,1.15789-4.82293,2.7254-9.63409-2.38678-13.51208,6.55255-1.62811,10.73779,1.17541,10.95758,7.02008A22.44187,22.44187,0,0,1,140.45709,308.22c-2.404,5.40771-6.46142,8.48419-12.491,8.59674-3.88147.07251-7.76715.08472-11.648-.00317-9.3606-.21192-9.99378.25366-12.21656,9.5661a4.93552,4.93552,0,0,0-.21173.86926c-.29992,6.25336-1.11059,12.69977,3.44013,17.91693,6.02771,6.91046,10.59765,14.81793,15.58331,22.421,4.37353,6.66937,7.49707,13.96375,6.91992,22.29144a9.40288,9.40288,0,0,1-1.67328,5.4759c-.64538.81182-1.40173,1.79858-2.5697,1.37908-.92-.3305-.93964-1.44226-1.03186-2.32019-.26361-2.51055.18219-5.12518-.9328-7.50946-2.529-5.40783-4.4975-11.09729-7.60962-16.20935-9.46435-15.54663-22.14075-28.04541-36.92773-38.51257C65.32605,322.44,51.09345,313.355,37.95575,302.74027a1.43974,1.43974,0,0,0-2.00476-.20849c0,1.48315-.0044,3.23474.00061,4.98639q.1311,45.92907.2713,91.85809c.017,5.07117.12854,10.14209.19635,15.21307,19.52045-1.04254,39.05957-.83044,58.59491-.87335.74658-.00165,1.49408-.0412,2.23956-.01672,3.34491.1098,3.44892.14343,3.46961,3.65838.0545,9.2583.01044,18.51722.05054,27.7757.06848,15.8009,1.32574,31.57788.88635,47.39252-.157,5.65283-1.44336,11.25634-.82147,16.92761.97735,8.913.70538,17.85449.82574,26.78955.03864,2.86621.2038,2.9801,3.65265,2.98566,10.90118.01739,21.84405.56494,32.6944-.19013,17.7503-1.23523,35.48877-.45312,53.22857-.68847,2.62866-.03486,5.24665-.24042,7.86249-.46253q1.40726-.11948,2.81409-.237a73.88543,73.88543,0,0,1,10.28711-.29718c.071-.09045.13788-.17969.202-.26782l.01441-.0191c.05487-.076.10492-.15033.15411-.22431.0119-.01788.0257-.0365.03723-.05426a4.34623,4.34623,0,0,0,.28693-.50751l.009-.01739a1.21342,1.21342,0,0,0,.10559-1.05506.6937.6937,0,0,0-.10956-.15484,1.01711,1.01711,0,0,0-.37164-.24158,3.632,3.632,0,0,0-1.43048-.16833,41.41944,41.41944,0,0,0-4.426.62652c-3.09655.445-6.17895,1.10614-9.2937-.00781-1.60986-.57574-3.20617.20953-5.16748.59167.01422-2.76452,1.73761-3.97949,3.56653-4.67626a30.10227,30.10227,0,0,1,9.52191-2.35114,51.89449,51.89449,0,0,0,10.616-1.54718,5.07969,5.07969,0,0,0,3.79694-2.78229c3.155-6.76141,7.06225-13.1466,10.0036-20.02051a37.52993,37.52993,0,0,0,2.74151-10.80438c.25049-2.30853.0708-4.52478-2.42859-5.72607-2.56506-1.23291-5.10223-1.72327-7.58319.17639-.47308.36224-.895.791-1.36389,1.15924-.79907.62738-1.57159,1.67224-2.69891,1.11432-1.37708-.68146-.99292-2.0625-.68421-3.17822a19.57871,19.57871,0,0,1,4.59229-7.58313c1.27307-1.441,3.19324-1.4842,5.02-.88446a27.08062,27.08062,0,0,1,8.69476,4.51532,10.59531,10.59531,0,0,1,3.88953,9.12634,35.823,35.823,0,0,1-3.79224,14.62536c-2.45563,4.94416-4.96661,9.86072-7.43506,14.79853-.53314,1.06647-1.02539,2.157-1.46966,3.2633-.65564,1.63257-.18409,2.62824,1.69445,2.60608,2.68634-.03167,5.3736-.08069,8.05768-.18969,4.10517-.16669,8.39575.94274,12.12848-1.86817a1.61672,1.61672,0,0,1,2.33582.59863,1.77876,1.77876,0,0,1-.05921,2.0976,7.65942,7.65942,0,0,1-3.308,2.936c-2.57648,1.18628-5.18231,2.40363-8.06677,2.554-5.36231.27942-10.72382,1.08948-16.09015.60382a3.77707,3.77707,0,0,0-2.7948.58337,3.823,3.823,0,0,0-1.19757,2.42847c1.78863.00519,3.579-.0376,5.36541.029a2.65842,2.65842,0,0,1,2.79371,2.84009c.05468,1.19049.03765,2.38458.03967,3.57709q.04989,29.517.09747,59.03369c.66443.066,1.32819.17615,1.99164.2265.22113.01678.44226.02692.66339.02661q42.10749-.06427,84.215-.159c.59723-.00128,1.19476-.02313,1.79168-.011,1.28534.02624,1.7406-.55817,1.8628-1.87232.843-9.06347,2.243-18.10052,2.59106-27.17962.74872-19.53113,1.08618-39.08087,1.34638-58.62635.08984-6.75225-1.83728-13.278-3.61847-19.75775-.4394-1.59845-1.14478-3.29846-2.894-3.73632a25.225,25.225,0,0,0-10.21893-.22352c-2.60364.41895-3.47,2.59736-4.84131,4.30573a.26734.26734,0,0,1-.13794.08191,6.15047,6.15047,0,0,1-.6477.05768,17.06585,17.06585,0,0,1-.70691-2.25611c-.08618-.362-.16248-.71893-.218-1.06524a11.40011,11.40011,0,0,1-.12829-1.175A8.75,8.75,0,0,1,299.337,489.66a6.212,6.212,0,0,1,1.94531-3.682,6.82438,6.82438,0,0,1,.68036-.547,8.53106,8.53106,0,0,1,1.82733-.96582,13.734,13.734,0,0,1,3.58331-.814,32.27426,32.27426,0,0,1,6.25678-.01251c6.63147.61975,11.075,4.26764,12.81054,10.69812,1.08735,4.02911,1.8844,8.14313,2.66657,12.2467,1.73,9.07679,2.59424,9.85187,11.91528,10.12989a4.97046,4.97046,0,0,0,.89466.0108c5.898-.91138,12.24011-1.319,16.16967-6.4635,5.28681-6.92145,11.61322-12.83154,17.39569-19.26337a54.48653,54.48653,0,0,1,10.23212-8.65759,27.95323,27.95323,0,0,1,11.97089-4.73309,9.53079,9.53079,0,0,1,5.6936.588c.95935.47449,1.97925,1.11072,1.88477,2.26611-.08088.98871-1.17908,1.22473-2.03754,1.49311-2.4101.7536-5.059.91851-7.13092,2.52563-5.41913,4.20349-11.25769,7.87024-16.10571,12.80652a131.41347,131.41347,0,0,0-27.23041,41.74261c-7.514,17.87574-14.02442,36.17438-22.79889,53.51709-1.64911,3.25946-2.96057,6.68964-4.603,10.44123,2.10626,0,3.59162.0039,5.077-.00067q35.1633-.10758,70.32654-.2215,6.20049-.02242,12.4024-.07721,5.43449-.043,10.86884-.08594l-.00025-.00012a6.64616,6.64616,0,0,0-3.45923-.68372C419.69092,601.93894,418.8031,602.0344,417.923,602.04673Zm71.14031-237.965c.25617-2.67,2.1272-3.8399,4.709-2.71527,5.4787,2.38648,11.113,4.341,16.72113,6.38251,3.415,1.24316,6.72717,2.27246,10.43768,1.32459,1.49774-.38257,3.50739-.81586,4.38721,1.09716a4.18444,4.18444,0,0,1-1.0838,4.94483c-1.972,1.67328-2.16724,3.61212-2.20343,5.95428-.1059,6.83429-4.8664,11.39282-11.7,11.48328-4.69434.06213-6.44092-2.08692-5.67969-7.619,1.04755.52661,1.7359.7926,2.33838,1.18915,2.88617,1.89941,6.51507.59967,8.463-2.52313,1.59094-2.55054.47565-6.37305-2.6319-8.03827-4.59015-2.45941-9.14026-5.09894-14.27722-6.34406-2.17163-.5263-4.38556-.876-6.56561-1.37066C489.77741,367.3477,488.86755,366.12284,489.06335,364.0817Zm-344.85266-85.837c-.82177,1.95947-2.31622,2.6308-4.30249,1.57794-5.413-2.8692-11.10492-5.10864-16.65606-7.6618a20.41417,20.41417,0,0,0-10.83252-1.90656c-1.27637.12543-2.90753.4812-3.57227-1.07928-.67853-1.593-.54132-3.59259.78406-4.58228,2.61578-1.95337,2.76215-4.56494,3.19281-7.40832,1.07757-7.11481,6.03766-10.13849,13.23547-9.57947,4.06079.31537,5.38684,2.93017,4.11457,7.31451-1.04364.27619-1.59552-.62646-2.3686-.99768a6.3785,6.3785,0,0,0-8.58038,2.33484c-1.54321,2.50439-.601,6.2655,2.42713,8.16016,5.82019,3.64148,11.7481,7.12854,18.59533,8.57666a14.85461,14.85461,0,0,1,2.186.44934C144.372,274.17533,145.07959,276.173,144.21069,278.24467ZM276.9389,190.727H360.693v35.89349H330.08c1.32312,2.28577,1.93634,4.84393,1.42828,6.41174a2.16275,2.16275,0,0,1-.63763,1.01783c-.81543.67956-1.29108.54364-2.37836-.54358a4.90559,4.90559,0,0,1-1.427-2.98993,5.01511,5.01511,0,0,0-2.28546-3.89606h-9.2934a11.30872,11.30872,0,0,0-3.637,3.45075l1.395,1.395,21.38165,21.38159c.01977-.33136.0611-.69843.11786-1.13a9.26582,9.26582,0,0,1,5.57214-7.13507c.04-.019.0871-.03369.1286-.05182,2.634-1.15033,8.12952-.60132,10.40412,1.07117,4.04058,2.90411,4.204,9.9082.66534,13.01331a6.01024,6.01024,0,0,1-.8692.6452c-2.90271,1.80438-5.44257,2.37811-7.89514,1.71094l13.51336,13.51336H324.53656l-24.932-24.93194-8.05566-8.05567-14.61-14.61v-.00116l-.26165-.26563H229.09131v47.58985l.26678.27459H193.19V212.46635c-2.42785-4.648-7.2254-13.38562-8.09015-15.77228a22.08156,22.08156,0,0,1-.99041-4.6593c-.106-2.71277,1.71557-3.595,5.12744-2.08844.06976.1665,1.74548.78894,1.81079.95709.73126.34393,1.44232.70142,2.14233,1.06647V190.727h21.656a6.60641,6.60641,0,0,1,3.944-4.99774,4.00038,4.00038,0,0,1,4.94214,1.03173,2.29262,2.29262,0,0,1,.54791,2.50641,1.751,1.751,0,0,1-2.1217,1.24652,1.67,1.67,0,0,0-1.49262.21308Zm84.30671,69.1452c3.19378-1.69879,8.698-1.49493,10.46478.27185.83319.77765,1.25976.78088,3.27978-1.2099.45124-.4447.98-.98651,1.6128-1.64416a37.80468,37.80468,0,0,1,3.32769-2.91071,24.2083,24.2083,0,0,1,3.53559-2.38959c3.6015-1.76678,3.87329-1.76678,4.48486-.81543.22431.39246-.81225,1.76178-2.55151,3.44818-.36884.35761-.75788.72425-1.18585,1.10468-.05475.04822-.10535.09656-.15973.14478-7.30432,6.47619-11.39734,13.01489-12.07184,19.01794-.12952,1.07947-.23187,1.84833-.361,2.39764-.27735,1.17969-.6792,1.33979-1.74555,1.33979a2.47853,2.47853,0,0,1-2.31036-1.35907c-.33979-.7475-2.1745-2.10657-4.07721-3.05786-2.71808-1.35907-3.80536-2.37836-5.02851-4.89264-2.15258-4.30524-1.30358-7.34357,2.669-9.382C361.169,259.915,361.20459,259.89268,361.24561,259.87217Zm4.21307,105.53107c.00653-.03119.01892-.063.02582-.0943a13.06475,13.06475,0,0,1,3.05664-5.65064,10.60467,10.60467,0,0,1,2.15-1.86584c4.14508-2.51422,7.9505-1.359,10.057,3.05792,1.63086,3.32971,1.76678,6.93121.40771,8.90186-.95135,1.35907-.74749,1.56292,3.05793,4.281a31.03421,31.03421,0,0,1,5.97619,5.5965c1.29352,1.62024,2.11017,3.11731,2.11017,4.12079,0,2.03857-1.29108,1.427-5.64008-2.65015-5.84393-5.36829-14.33807-9.3775-19.63842-9.24164-4.07715.068-5.64008-.81543-4.89264-2.71808a2.73829,2.73829,0,0,1,1.63092-1.495,1.50037,1.50037,0,0,0,.49481-.27973A3.99255,3.99255,0,0,0,365.45868,365.40324ZM262.577,382.87815c-.197.19348-.39484.38794-.61078.60059-2.854,2.922-5.64008,5.0285-7.203,5.57214-4.349,1.427-4.349-.13592-.06794-3.73743.10742-.09259.22345-.20495.33454-.30578.50885-.462,1.05188-1.00446,1.61956-1.61432,3.856-4.14252,8.71729-11.20331,9.86969-14.6604a21.22168,21.22168,0,0,0,.7475-5.30035c0-2.854.06793-2.98993,1.90265-2.78608a3.49214,3.49214,0,0,1,1.1.335,2.98819,2.98819,0,0,1,1.41424,1.36384,2.35971,2.35971,0,0,0,1.69886,1.56292c1.69879,0,6.52343,3.39765,7.74664,5.43628a8.35064,8.35064,0,0,1,.28784,7.57471,4.97213,4.97213,0,0,1-.28784.51166c-2.24249,3.19378-9.85321,4.62085-12.97907,2.44635-.6145-.43891-1.016-.6482-1.63073-.39478C265.77515,379.78928,264.70972,380.78373,262.577,382.87815Zm-7.6493-39.06189a30.981,30.981,0,0,1,2.82544,4.80255c1.69037,3.31324,3.11066,6.22058,3.25855,6.45008l.00317.00549c.13593.20386.67957-.27185,1.22315-.95135a6.38771,6.38771,0,0,0,.89795-4.06763,14.333,14.333,0,0,0-1.03382-4.49445c-1.22314-2.922-1.08728-3.66949.54364-3.05792,1.80805.71484,3.197,3.84985,3.593,7.10181a11.5107,11.5107,0,0,1-.5351,5.6054,8.82646,8.82646,0,0,1-1.88159,2.641,13.46391,13.46391,0,0,1-6.88434,3.74664c-9.3775,1.56293-15.69714-13.25086-7.74664-18.1435a12.52683,12.52683,0,0,1,1.52222-.83837C252.42059,341.84611,253.58392,342.10948,254.92773,343.81626Zm3.91266-68.85852c-1.56286-2.98993-1.427-8.96979.27185-11.14429l1.35907-1.76678L258.16089,260.28c-4.41693-3.32972-8.83392-11.21228-7.47485-13.31885.33978-.61157,1.01928-.20386,2.24249,1.42706.75738.99219,1.53369,1.94177,2.32013,2.8581,6.26959,7.30456,13.31115,12.09936,18.7453,12.70312,3.26172.33978,3.80536.61157,4.00921,1.90271.13593,1.08722-.33978,1.76672-1.76678,2.51422a5.48635,5.48635,0,0,0-2.44629,2.71814c-.42621,1.79944-2.30463,4.15735-4.301,5.722a9.008,9.008,0,0,1-2.56232,1.481A6.88663,6.88663,0,0,1,258.84039,274.95774Zm30.10321-31.802c3.12586.20386,4.00922.61157,5.64008,2.44635a6.43128,6.43128,0,0,1,1.90271,4.41693,3.36319,3.36319,0,0,1-1.81177,3.40888,42.47014,42.47014,0,0,1-6.13873,2.84277q-.4791.19162-.934.38177c-2.27851.94959-4.02655,1.82465-4.02655,2.06458,0,1.83472,5.64007,2.24243,11.14428.88336,2.32868-.64685,2.18921.49359-.17364,2.363-.11938.09442-.23932.18909-.37.28711-1.35906,1.08728-2.854,1.42706-6.18371,1.42706-3.87329,0-4.55286-.20386-6.5235-2.03863-5.776-5.43622-5.16443-12.70722,1.42706-17.19208a6.773,6.773,0,0,1,2.85187-1.29224A12.72075,12.72075,0,0,1,288.9436,243.15574Zm-10.98925,73.5332c0-1.07654.05493-2.13958.138-3.19476a40.06179,40.06179,0,1,1-.138,3.19476Zm-84.76557,125.1446v-3.16645c-.593.17816-1.08575.31232-1.43689.38483a22.08,22.08,0,0,1-4.75317.31171c-2.7-.28437-3.31171-2.21369-1.33118-5.37409.17481-.04516,1.03119-1.6142,1.207-1.65472a68.08911,68.08911,0,0,1,6.31427-8.05835V409.09178a6.84192,6.84192,0,0,1-7.4544-4.95472,4.35484,4.35484,0,0,1,.40325-3.44873,4.12522,4.12522,0,0,1,1.32691-1.29419,2.85912,2.85912,0,0,1,1.46478-.48993,1.99955,1.99955,0,0,1,1.09436.30726,1.751,1.751,0,0,1,.9292,2.27862c-.46869,1.2486-.01721,2.06073,1.31317,2.00195a1.18681,1.18681,0,0,0,.92273-.38061v-2.2641a13.83291,13.83291,0,0,1,0-4.363v-38.261H193.19V274.4857h36.16809l13.5058,13.5036c.18927-2.657,1.01044-3.8534,2.86157-4.94513a8.37367,8.37367,0,0,1,2.32837-.93146c2.65613-.66632,5.93824-.46631,7.52484.65967,3.60151,2.51422,4.96058,9.71728,2.51429,13.38672a14.8022,14.8022,0,0,1-3.746,3.31128l.04395.04394,22.54925,22.54553v31.72669l-7.5404-7.541-4.96954-4.97-11.18872-11.18963-.06446-.06452c-.04034.04346-.086.084-.12793.12665-3.55041,3.60895-12.78582,4.12164-21.45782,1.14276-.89374-.307-1.71631-.63049-2.49994-.965v27.89832h-.00116v47.8559h80.73114a2.52864,2.52864,0,0,1,.59546-.72046c.55243-.46515.98065-.62818,1.44928-.3526a3.38366,3.38366,0,0,1,.96911,1.07306h16.40162l-8.20435-8.1966-12.50806-12.50928-10.512-10.513-16.63623-16.63787h31.72266l.58447.58435,17.68079,17.678,5.53161,5.53071,3.02527,3.02581,20.77161,20.775V441.9774H193.18878ZM291.322,378.79a9.41588,9.41588,0,0,1,10.26093,1.08728c4.30047,3.2254,5.4057,6.98236,3.13012,10.7453-.02563.04236-.04577.08477-.07226.12713-1.76679,2.922-5.0965,4.417-9.64936,4.417-5.708,0-8.69793-3.05793-8.69793-8.96985a6.97646,6.97646,0,0,1,3.97424-6.87055C290.59992,379.1425,290.94232,378.96189,291.322,378.79Zm62.51679,14.67785c-3.80536,0-5.70807-1.15521-7.47486-4.48486-.85492-1.70984-.54053-2.99011,1.81-4.78809a38.16022,38.16022,0,0,1,4.23785-2.68676c5.97986-3.46564,5.776-3.26178,4.5528-4.00922-.07044-.046-.15234-.08539-.23126-.12653-1.902-.99035-6.18311-.56408-8.46668.806-1.2232.7475-2.51428,1.22315-2.922,1.01929-.932-.60309.17194-2.26715,2.13154-3.60156a11.61736,11.61736,0,0,1,1.5379-.8833,11.19717,11.19717,0,0,1,10.216.06231,9.91745,9.91745,0,0,1,.93158.58191,10.88431,10.88431,0,0,1,2.71485,2.82135,9.50211,9.50211,0,0,1,.696,9.578A10.57865,10.57865,0,0,1,353.83875,393.46781Zm6.85778,12.35047.26288.26294h41.60987a3.52013,3.52013,0,0,1,2.55828-2.51191,18.09817,18.09817,0,0,1,3.42176,1.79975V358.49125l-.26685-.26678h36.16419v83.75408H360.69653Zm47.58594-47.595-13.09192-13.08979-1.14728-1.147a8.31017,8.31017,0,0,1-.27056,3.09131,5.47926,5.47926,0,0,1-2.49189,2.968c-6.25164,4.07721-13.11493,1.01934-14.33807-6.31958-.46289-3.04187.25037-4.80793,3.10608-7.96851.07886-.08728.14148-.16437.22363-.25385a7.36167,7.36167,0,0,1,3.25751-2.02911l-.87409-.87414-21.95935-21.95929V278.91477l11.93659,11.93659a13.12905,13.12905,0,0,1-.31116-2.50684,8.74719,8.74719,0,0,1,3.68683-7.55859c.41071-.33509.85333-.66889,1.34167-1.00348a10.39224,10.39224,0,0,1,10.60065-.13593c2.44635,1.56293,5.02857,6.18372,5.02857,9.10572a9.12783,9.12783,0,0,1-1.99732,5.44574,7.27049,7.27049,0,0,1-5.40961,3.11633c-1.63085,0-3.80535-3.12586-6.25164-8.96979a15.34173,15.34173,0,0,0-1.69739-3.23706c-.25568-.33368-.47235-.5238-.613-.50037a6.34165,6.34165,0,0,0-1.359,2.78608,8.92668,8.92668,0,0,0,.47565,5.70807c.06134.17028.11694.32824.17175.48443.19013.54187.33948.99811.44983,1.38147l6.53162,6.53156.969.96905a14.52506,14.52506,0,0,1,1.45917-.39673c3.73743-.81543,13.99835-.20385,17.396,1.01929a16.2728,16.2728,0,0,1,5.44464,3.12323V274.4849h35.89734v83.73841Zm36.16217-83.73987H408.5473v-47.8645H360.69458V190.72538h83.75006v5.72c1.62787.04627,2.48859.8758,2.44684,2.40192a7.30458,7.30458,0,0,1-.7038,2.707c-.1665.06976-.78894,1.74542-.95709,1.81073-.25482.54181-.51935,1.06921-.786,1.59357v22.08679a6.70417,6.70417,0,0,1,5.96008,4.06207,5.762,5.762,0,0,1,.38465,1.49292,3.747,3.747,0,0,1-1.41638,3.44922,2.29262,2.29262,0,0,1-2.50641.54791,1.751,1.751,0,0,1-1.24652-2.1217,2.29983,2.29983,0,0,0,.02478-.98578,1.06188,1.06188,0,0,0-1.2002-.85034v41.84375Zm-88.196-132.58368c2.53143-5.74152,4.44281-11.70752,6.61792-17.57886a17.05231,17.05231,0,0,0,1.01318-9.61645c-.29169-1.42353-.95288-3.05017.5946-4.12177a3.76278,3.76278,0,0,1,4.957.50342c2.04681,2.36175,4.4295,2.25983,7.15979,2.51916,7.34784.698,10.04254,4.13727,10.80792,11.79261.01971,3.59582-1.43085,5.46179-4.69733,5.98156-.724.11524-1.55786.301-2.12018-.3078-.60687-.65716-.23455-1.39935.17371-2.03082a5.83821,5.83821,0,0,0,.35657-6.3396c-1.81311-3.42175-5.57563-4.37537-8.68244-2.03491a8.38951,8.38951,0,0,0-2.3468,2.65234c-3.28027,6.21027-6.33069,12.51038-7.22027,19.62049-.37751,3.01654-1.87055,4.13708-4.366,3.603C356.0625,146.02134,355.16809,144.35032,356.2486,141.89976ZM287.76392,490.71067c-1.44867,5.31842-2.4314,10.73731-3.48481,16.14765-.89642,4.60424-1.4815,8.98321.12452,13.58642,1.00756,2.88776-.08063,4.005-3.325,3.97638-.43347-.11536-1.58288-.06915-2.08862-.61706-2.16632-2.34711-4.68823-1.73188-7.39777-1.52314-8.52136.65638-12.29248-6.30468-12.40545-12.6405-.04364-2.44562,1.59759-3.72559,3.6983-4.50012.83716-.30866,1.7807-.61554,2.51361.10626.64911.63928.11426,1.39758-.13995,2.06567a5.85577,5.85577,0,0,0,.102,5.18409c1.22223,2.15252,2.89453,3.86993,5.54761,3.97894,2.45245.10077,5.01068-2.11585,6.01733-5.236,2.19653-6.80811,4.45715-13.61792,3.99036-20.93811-.10218-1.6023.22223-3.00446,1.86053-3.69171a4.071,4.071,0,0,1,4.22315.50433C288.315,488.08762,288.14935,489.29551,287.76392,490.71067Z"/><path class="cls-4" d="M301.96271,485.431a6.82438,6.82438,0,0,0-.68036.547"/><path class="cls-4" d="M299.337,489.66a8.75,8.75,0,0,0-.08911,1.88483"/><path class="cls-5" d="M589.6,35.36509q-66.05156.06985-132.10315.05768c-13.73273.003-27.46552-.01441-41.19812.02344-3.42707.0094-3.55451.09924-3.58832,3.04217-.11139,9.67719.00085,19.3476-.77136,29.02008-.73609,9.2204,1.19378,18.41046.80951,27.66608-.19916,4.79889.9328,5.64227,5.7771,5.753,5.067.11572,10.146-.35223,15.20172.30463,2.6474-2.43244,4.55713-5.45313,6.6842-8.30707,3.65082-4.89856,7.5528-9.58344,12.7619-12.9375,3.3971-2.18732,5.14093-2.25086,8.63373-.58582-.25268.35822-.4469.952-.74646,1.011-5.962,1.17487-8.74512,6.13312-12.19208,10.25372-2.63446,3.14923-5.51947,6.14936-7.05145,10.0802l-.00006.00013c1.11877.02856,2.23749.06939,3.35626.10314,1.11872.03382,2.23749.06055,3.3562.061q42.32364.01611,84.64716.01239c4.82892.00226,4.918.20489,5.05121,5.062.38409,14.00043-.01074,27.99451.64245,42.01648.89411,19.19257.054,38.45343,1.07233,57.67407.32343,6.10388.116,12.23987.0296,18.35944-.03143,2.22931.66431,3.40692,3.04969,3.209.88934-.07379,1.79046-.00457,2.68615-.0047q30.007-.00429,60.014-.00958c.589-1.59411.309-3.25085.30444-4.87671Q605.778,132.643,605.46,42.93284c-.01123-2.91968,1.37122-6.88727-.7428-8.50794-2.20056-1.68707-6.031-.38269-9.14477-.15509a3.52254,3.52254,0,0,0-.84461.28547l-.00012.00006C593.20953,36.00425,591.3172,35.36326,589.6,35.36509Z"/><path class="cls-5" d="M82.05792,227.27018c4.0232.12341,8.05316.03388,12.08.0282,4.49585-.00629,4.85693-.30133,4.86426-4.816.015-9.24658-.05194-18.49329-.08515-27.74-3.13275-3.15826-6.71978-5.83655-9.60681-9.26324a39.44047,39.44047,0,0,1-4.95251-6.85639,10.10391,10.10391,0,0,1-1.40076-5.10809c.04358-1.16681.04633-2.7088,1.45874-2.90863,1.33075-.18836,1.39343,1.32,1.62323,2.27649a13.09668,13.09668,0,0,0,4.21765,6.68658q3.78552,3.44155,7.561,6.89911a3.27114,3.27114,0,0,0,.95526-1.35779,1.809,1.809,0,0,0,.07849-.55542c-.06806-4.45624.62176-8.93829-.46759-13.36194a9.21251,9.21251,0,0,1-.04938-4.87805,21.94992,21.94992,0,0,0,.60852-7.09442c-.11157-5.6485-.34308-11.2915-.63025-16.93549-.58331-11.46582-.22082-22.98138-.18188-34.47625.0108-3.17432.17187-3.33271,3.27978-3.3595,11.17084-.09625,22.33893-.514,33.49945-.69427,28.65583-.46277,57.324-.2948,85.98572-.12146,4.86554.02948,7.312-2.36847,7.24487-7.16993-.25439-18.20929-.08306-36.42437-.10675-54.6372-.00927-7.16492.71943-6.384-6.54461-6.38678q-92.9297-.0348-185.85944-.02906h-.00024v.00043c-.03778.60364-.09027,1.20715-.13684,1.81061-.03046.39532-.05878.79059-.07752,1.18579-.01581.33289-.02527.66577-.02472.99866q.14924,91.26525.34253,182.53039c.00171.7771-.03711,1.55854-.05414,2.33954-.00573.26038-.009.52057-.0075.7807l.00055.02149c.00317.47082.025.94079.07318,1.40924.01617.15716.04.31378.06329.47052.02271.15258.0426.30536.073.45752.04956.24792.10876.49536.18213.74182l.00006.0003C51.40918,228.6276,66.71,226.79929,82.05792,227.27018Z"/><path class="cls-5" d="M606.92743,537.91685c-.399-35.55164-.28711-71.10895-.45288-106.66351-.00733-1.60376.00867-3.208.02759-4.8125.019-1.6045.04077-3.20923.04492-4.81366.00854-3.209-.05371-6.41706-.35108-9.62134v-.00006q-29.6943-.02646-59.38848-.04254c-6.02784.00219-6.795.86627-6.82654,7.05181-.04169,8.18341-.11762,16.3667-.1789,24.55,3.46753,3.03137,7.26917,5.66425,10.517,8.96289,2.42145,2.45941,4.71723,5.00427,6.03772,8.23224.918,2.24414,1.53009,4.56433-.7085,6.47907-1.33648-.168-1.22076-1.25245-1.43737-2.026a13.66988,13.66988,0,0,0-5.01386-7.2063c-3.00879-2.34821-5.98907-4.73285-8.98083-7.10126l-.00092-.00067c-.07562,2.088-.2171,4.17553-.21863,6.26318q-.028,37.41587-.01617,74.83191c.00183,7.33643.51465,7.08374-6.96484,7.21814-22.37269.40192-44.75934-.838-67.12586.79565-8.60614.62854-17.25458.20581-25.9032.7511-7.70385.48566-15.4411,1.17633-23.18579,1.1247-2.23749-.01489-3.20386.74469-3.1972,3.10412.05,17.92359-.00721,35.84748.02655,53.77112.0058,3.08582.16272,3.03559,3.41583,3.26068.2912.02014.58368.02527.87708.02112.88006-.01233,1.76788-.10779,2.64971-.129a6.66249,6.66249,0,0,1,3.46351.68372l.00018.00006c.83264-.00458,1.661-.009,2.48944-.01343.69336-.78357,1.62988-.57983,2.49536-.58081q20.72058-.02224,41.4411-.00635a18.62283,18.62283,0,0,1,2.62506.36335,138.227,138.227,0,0,0,14.0744.23834c1.57294-.02551,3.14582-.04974,4.71827-.05389q55.57508-.14567,111.1499-.38367c4.36108-.01544,4.0647.05859,4.01758-3.757C606.79877,578.2451,607.15375,558.08317,606.92743,537.91685Z"/><path class="cls-5" d="M228.06043,540.29783a2.65842,2.65842,0,0,0-2.79371-2.84009c-1.78637-.06659-3.57678-.0238-5.36541-.029v.00006c-1.50232,2.38782-2.93055,4.81629-4.30524,7.27527-1.37476,2.45905-2.69592,4.94861-3.98438,7.45868-2.86419,5.57989-6.14483,10.9104-10.94805,15.07507-2.2945,1.9895-4.843,3.515-8.12445,1.84192.02691-1.58655,1.252-1.91223,2.26171-2.39856a11.24225,11.24225,0,0,0,4.87152-4.45691c3.87-6.504,7.97205-12.87933,10.70447-20.00439.62018-1.61719.59168-3.48505,1.82666-4.86621a73.87124,73.87124,0,0,0-10.28686.29687q-1.407.11517-2.81409.237c-2.61584.22211-5.23383.42767-7.86249.46253-17.7398.23535-35.47827-.54676-53.22857.68847-10.85035.75507-21.79322.20752-32.6944.19013-3.44885-.00556-3.614-.11945-3.65265-2.98566-.12036-8.93506.15161-17.87659-.82574-26.78955-.62189-5.67127.66449-11.27478.82147-16.92761.43939-15.81464-.81787-31.59162-.88635-47.39252-.0401-9.25848.004-18.5174-.05054-27.7757-.02069-3.51495-.1247-3.54858-3.46961-3.65838-.74548-.02448-1.493.01507-2.23956.01672-19.53534.04291-39.07446-.16919-58.59491.87335-.06268,1.637-.181,3.27393-.17963,4.91083q.024,28.22.07782,56.44019.06492,61.59081.11676,123.18152c.00428,4.3825.00965,4.43835,4.3501,4.47485q12.20481.10272,24.41059.08588,70.77329-.15235,141.54626-.38276,1.34052-.00576,2.682.00837c2.68261.02465,5.36718.08795,8.051.09509q1.55475.00422,3.10889-.02667c1.64654-.03083,3.29248-.09217,4.937-.21473q1.33941-.09969,2.67755-.25329-.04953-29.51679-.09747-59.03369C228.09808,542.68241,228.11511,541.48832,228.06043,540.29783Z"/><path class="cls-3" d="M326.86719,582.69682c-.07959.44354.11712.58325,1.08948.13958,7.82128-20.48376,15.79058-41.41027,25.41326-62.26074a47.75623,47.75623,0,0,1-21.597,2.15045c-2.24347-.30413-2.139,1.14911-1.97546,2.47394.90368,7.3216-.254,14.584-.5752,21.8656C328.69775,558.958,328.98334,570.9083,326.86719,582.69682Z"/><path class="cls-3" d="M318.93146,105.24693c3.72821-19.95728,6.756-39.62677,11.90887-58.95044-11.47375,19.22845-22.40606,38.78381-35.21985,57.94305C303.976,102.65885,311.545,103.6378,318.93146,105.24693Z"/><path class="cls-3" d="M42.64014,298.57261c18.46808,12.76184,37.19708,25.08594,55.42474,39.16034-1.22394-8.363.12689-15.77,2.57581-23.22607C81.02014,309.2725,61.54919,305.06791,42.64014,298.57261Z"/><path class="cls-3" d="M532.82782,324.89024c9.17114.43255,17.84741,3.46295,26.79755,5.047,3.08148.54529,6.22833.81238,9.25177,1.57666,6.74517,1.7052,13.71893,2.48072,20.36181,4.94013-19.17035-11.5072-38.37793-22.82984-57.47668-35.50385a48.83884,48.83884,0,0,1-.95282,21.50287C530.23541,324.54063,531.38355,324.82212,532.82782,324.89024Z"/><path class="cls-3" d="M473.0874,602.3643a18.62283,18.62283,0,0,0-2.62506-.36335q-20.72058-.02682-41.4411.00635c-.86548.001-1.802-.20276-2.49536.58081a15.04713,15.04713,0,0,0,1.751.19684q20.65465-.02472,41.30932-.08557c.14612-.00049.29279.0025.43982.007A6.28169,6.28169,0,0,0,473.0874,602.3643Z"/><path class="cls-6" d="M448.86871,90.66654c3.447-4.1206,6.23011-9.07885,12.19208-10.25372.29956-.05908.49378-.65283.74646-1.011-3.4928-1.665-5.23663-1.6015-8.63373.58582-5.2091,3.35406-9.11108,8.03894-12.7619,12.9375-2.12707,2.85394-4.0368,5.87463-6.6842,8.30707-.99207,2.21075-2.80628,3.84423-4.09857,5.84143-.949,1.46649-2.06885,1.6654-3.80176,1.31555a97.642,97.642,0,0,0-16.03485-1.57776c-4.051-.13763-8.07209.41986-11.48474,2.97363-1.04126.77918-1.65131,1.83313-.89795,3.1034.70373,1.1867,1.82336.77368,2.792.395a11.08209,11.08209,0,0,1,6.09741-.86407c3.82318.64929,7.69342,1.0235,11.54572,1.49853,4.23156.52179,4.49548,1.04413,2.2586,4.58649-.31842.50434-.674.98566-1.02154,1.471-3.21582,4.49115-6.46515,8.95874-9.64136,13.47778a34.75348,34.75348,0,0,0-5.526,12.64063c-.81427,3.71033-.2323,7.19006,2.48212,10.0022a25.33225,25.33225,0,0,0,7.6831,5.34747c1.98657.91662,4.16333,1.18713,5.88037-.46753a22.11986,22.11986,0,0,0,4.84131-5.826c.52966-1.06378,1.24707-2.319.37219-3.355-1.06445-1.26044-2.14331-.01752-3.14422.46332-.80469.38653-1.5188.98425-2.34522,1.29876-2.66589,1.01459-4.98169.08631-7.10461-1.50842-2.04828-1.53864-1.72113-3.64386-1.18494-5.72046a38.16353,38.16353,0,0,1,1.26428-3.82239c2.44983-6.54046,7.51038-11.48785,10.78864-17.4588,4.423-8.05554,10.834-10.21539,19.30865-8.83545a25.85436,25.85436,0,0,0,9.78168-.69879,6.53272,6.53272,0,0,0,5.04578-4.24646c-2.30951.16144-4.09931.32831-5.8169-.3858a19.2345,19.2345,0,0,0-8.37677-1.04627c-1.49121.064-2.98974.15357-4.4768.07569-2.64118-.13819-2.90479-.60651-1.41108-2.94794.50788-.79614.98432-1.61633,1.478-2.42541.20569-.3371.41437-.67231.62958-1.003q.24216-.37206.4967-.73547a14.70932,14.70932,0,0,1,1.71094-2.051l.00006-.00013C443.34924,96.8159,446.23425,93.81577,448.86871,90.66654Z"/><path class="cls-7" d="M439.60956,103.53336q.24216-.37206.4967-.73547"/><path class="cls-6" d="M526.765,431.74021c1.245-4.94769,1.30468-10.04577,1.80212-15.0877a24.68238,24.68238,0,0,0-1.05054-9.72931,8.48408,8.48408,0,0,0-1.91986-3.499c-.72015-.74859-1.4873-1.6773-2.66351-1.1214-1.40656.66492-1.18781,1.91565-.75873,3.10028a11.01164,11.01164,0,0,1,.91467,5.6518c-.67877,4.2702-1.12878,8.57635-1.719,12.86133-.44745,3.24847-1.06989,3.50006-4.00733,1.7063-.63586-.38813-1.24279-.826-1.84735-1.26258-4.47387-3.23108-8.93323-6.48224-13.41791-9.6983a35.05133,35.05133,0,0,0-13.45489-5.81592,9.97233,9.97233,0,0,0-9.14258,2.46069,25.41232,25.41232,0,0,0-5.65631,7.99042c-.73193,1.53632-1.06848,3.38709-.02924,4.73139,2.0871,2.6997,4.44281,5.23632,7.84705,6.36621a1.8766,1.8766,0,0,0,2.089-.32971c.63117-.68158.24744-1.39753-.09479-2.04938-.55407-1.05548-1.25708-2.04187-1.72558-3.13123-1.13355-2.63543-.2229-4.9458,1.32086-7.11572,1.50128-2.11005,3.62195-1.86285,5.67706-1.33075a33.51375,33.51375,0,0,1,10.207,4.43127c4.98206,3.29706,9.51856,7.27613,14.57263,10.37385,4.7016,2.88146,5.90381,6.6679,5.57923,11.58514-.09827,1.48846-.022,2.99408-.20227,4.47034-.385,3.15387.10486,6.25378.39282,9.37017a7.97726,7.97726,0,0,0,2.47253,5.12763c.73059.70563,1.86914.89447,1.92463-.43994.20965-5.04022,2.38531-9.87671,1.49865-15.02692a11.78209,11.78209,0,0,1,.04584-2.67926c.09753-1.57239.8114-2.3125,2.28119-1.29492,1.03857.719,2.1029,1.40045,3.17456,2.07117q.60277.37728,1.20764.75152c.72192.44788,1.4433.89661,2.16,1.35224a44.93279,44.93279,0,0,1,5.97266,4.37506l.00006.00006.00092.00067c2.99176,2.36841,5.972,4.753,8.98083,7.10126a13.66988,13.66988,0,0,1,5.01386,7.2063c.21661.77355.10089,1.858,1.43737,2.026,2.23859-1.91474,1.62647-4.23493.7085-6.47907-1.32049-3.228-3.61627-5.77283-6.03772-8.23224-3.2478-3.29864-7.04944-5.93152-10.517-8.96289-4.038-3.041-8.06775-6.09289-12.12-9.11468A2.28877,2.28877,0,0,1,526.765,431.74021Z"/><path class="cls-7" d="M534.24255,446.52989c-.71667-.45563-1.43805-.90436-2.16-1.35224"/><path class="cls-6" d="M210.37689,542.21989c-2.73242,7.12506-6.83447,13.50043-10.70447,20.00439a11.24225,11.24225,0,0,1-4.87152,4.45691c-1.00976.48633-2.2348.812-2.26171,2.39856,3.28149,1.673,5.82995.14758,8.12445-1.84192,4.80322-4.16467,8.08386-9.49518,10.94805-15.07507,1.28846-2.51007,2.60962-4.99963,3.98438-7.45868,1.37469-2.459,2.80292-4.88745,4.30524-7.27527v-.00006a3.823,3.823,0,0,1,1.19757-2.42847,3.77707,3.77707,0,0,1,2.7948-.58337c5.36633.48566,10.72784-.3244,16.09015-.60382,2.88446-.15033,5.49029-1.36768,8.06677-2.554a7.65942,7.65942,0,0,0,3.308-2.936,1.77876,1.77876,0,0,0,.05921-2.0976,1.61672,1.61672,0,0,0-2.33582-.59863c-3.73273,2.81091-8.02331,1.70148-12.12848,1.86817-2.68408.109-5.37134.158-8.05768.18969-1.87854.02216-2.35009-.97351-1.69445-2.60608.44427-1.10626.93652-2.19683,1.46966-3.2633,2.46845-4.93781,4.97943-9.85437,7.43506-14.79853a35.823,35.823,0,0,0,3.79224-14.62536,10.59531,10.59531,0,0,0-3.88953-9.12634,27.08062,27.08062,0,0,0-8.69476-4.51532c-1.82672-.59974-3.74689-.55652-5.02.88446a19.57871,19.57871,0,0,0-4.59229,7.58313c-.30871,1.11572-.69287,2.49676.68421,3.17822,1.12732.55792,1.89984-.48694,2.69891-1.11432.46887-.36822.89081-.797,1.36389-1.15924,2.481-1.89966,5.01813-1.4093,7.58319-.17639,2.49939,1.20129,2.67908,3.41754,2.42859,5.72607a37.52993,37.52993,0,0,1-2.74151,10.80438c-2.94135,6.87391-6.84864,13.2591-10.0036,20.02051a5.07969,5.07969,0,0,1-3.79694,2.78229,51.89449,51.89449,0,0,1-10.616,1.54718,30.10227,30.10227,0,0,0-9.52191,2.35114c-1.82892.69677-3.55231,1.91174-3.56653,4.67626,1.96131-.38214,3.55762-1.16741,5.16748-.59167,3.11475,1.11395,6.19715.45276,9.2937.00781a41.41944,41.41944,0,0,1,4.426-.62652,3.632,3.632,0,0,1,1.43048.16833,1.01711,1.01711,0,0,1,.37164.24158.6937.6937,0,0,1,.10956.15484,1.21342,1.21342,0,0,1-.10559,1.05506l-.009.01739a4.34623,4.34623,0,0,1-.28693.50751c-.01153.01776-.02533.03638-.03723.05426-.04919.074-.09924.14832-.15411.22431l-.01441.0191c-.06408.08813-.131.17737-.202.26782l-.00025.00031C210.96857,538.73484,210.99707,540.6027,210.37689,542.21989Z"/><path class="cls-6" d="M90.25659,179.56913a13.09668,13.09668,0,0,1-4.21765-6.68658c-.2298-.95649-.29248-2.46485-1.62323-2.27649-1.41241.19983-1.41516,1.74182-1.45874,2.90863a10.10391,10.10391,0,0,0,1.40076,5.10809,39.44047,39.44047,0,0,0,4.95251,6.85639c2.887,3.42669,6.47406,6.105,9.60681,9.26324,4.16523,2.91376,7.565,6.72137,11.52814,9.8703,1.17938.937.8327,1.98938.50043,3.2149a111.23538,111.23538,0,0,0-2.65314,15.43335c-.5202,4.17457-.1933,8.37519,2.071,12.129.61268,1.01569,1.52594,2.08936,2.90546,1.52655,1.436-.58581,1.1839-1.91375.81122-3.09179-.49866-1.57611-1.0625-3.16419-.68433-4.82111,1.06372-4.6604,1.99616-9.34064,2.76-14.062.34369-2.12476,1.32593-2.49182,3.12934-1.47437a18.16244,18.16244,0,0,1,2.52185,1.85266c4.26892,3.50452,8.51635,7.03528,12.78369,10.54181a35.22845,35.22845,0,0,0,12.18176,6.47c3.61347,1.10566,7.14209.89722,10.19556-1.54931a25.69564,25.69564,0,0,0,6.17547-7.60749c.919-1.63079,1.3584-3.57873.23676-5.125-1.827-2.51861-3.862-4.94873-6.79279-6.34045a2.42984,2.42984,0,0,0-2.56176-.10333c-1.0954.88434-.22358,1.88574.20385,2.80072a25.2318,25.2318,0,0,1,1.32471,2.83063c.8822,2.73816-.27283,4.97406-2.00159,6.9682-1.67389,1.93078-3.787,1.45337-5.8.75152a34.068,34.068,0,0,1-9.52258-4.8739c-4.764-3.61133-9.0307-7.90863-13.9079-11.26666-4.74731-3.26856-5.54669-7.31989-5.01458-12.31329.14233-1.33631.24731-2.68213.49145-4.001a35.83135,35.83135,0,0,0-.01916-10.26941c-.23059-2.241-.95014-4.28418-3.2641-5.36115a76.97245,76.97245,0,0,0-3.48133,21.51789q-1.05249-.8477-2.08673-1.63373c-.94409-.72034-1.86969-1.40179-2.7857-2.071q-1.19523-.87331-2.35279-1.71594c-2.2268-1.622-4.34985-3.20032-6.31475-4.93725q-.85814-.75861-1.67688-1.56348Q94.03525,183.01589,90.25659,179.56913Z"/><path class="cls-6" d="M286.9997,487.11381a4.071,4.071,0,0,0-4.22315-.50433c-1.6383.68725-1.96271,2.08941-1.86053,3.69171.46679,7.32019-1.79383,14.13-3.99036,20.93811-1.00665,3.12011-3.56488,5.33673-6.01733,5.236-2.65308-.109-4.32538-1.82642-5.54761-3.97894a5.85577,5.85577,0,0,1-.102-5.18409c.25421-.66809.78906-1.42639.13995-2.06567-.73291-.7218-1.67645-.41492-2.51361-.10626-2.10071.77453-3.74194,2.0545-3.6983,4.50012.113,6.33582,3.88409,13.29688,12.40545,12.6405,2.70954-.20874,5.23145-.824,7.39777,1.52314.50574.54791,1.65515.5017,2.08862.61706,3.24439.02857,4.33258-1.08862,3.325-3.97638-1.606-4.60321-1.02094-8.98218-.12452-13.58642,1.05341-5.41034,2.03614-10.82923,3.48481-16.14765C288.14935,489.29551,288.315,488.08762,286.9997,487.11381Z"/><path class="cls-6" d="M358.49628,146.54215c2.49548.53406,3.98852-.58648,4.366-3.603.88958-7.11011,3.94-13.41022,7.22027-19.62049a8.38951,8.38951,0,0,1,2.3468-2.65234c3.10681-2.34046,6.86933-1.38684,8.68244,2.03491a5.83821,5.83821,0,0,1-.35657,6.3396c-.40826.63147-.78058,1.37366-.17371,2.03082.56232.60883,1.39618.423,2.12018.3078,3.26648-.51977,4.717-2.38574,4.69733-5.98156-.76538-7.65534-3.46008-11.09461-10.80792-11.79261-2.73029-.25933-5.113-.15741-7.15979-2.51916a3.76278,3.76278,0,0,0-4.957-.50342c-1.54748,1.0716-.88629,2.69824-.5946,4.12177a17.05231,17.05231,0,0,1-1.01318,9.61645c-2.17511,5.87134-4.08649,11.83734-6.61792,17.57886C355.16809,144.35032,356.0625,146.02134,358.49628,146.54215Z"/><path class="cls-6" d="M491.97809,367.84715c2.18.49469,4.394.84436,6.56561,1.37066,5.137,1.24512,9.68707,3.88465,14.27722,6.34406,3.10755,1.66522,4.22284,5.48773,2.6319,8.03827-1.94794,3.1228-5.57684,4.42254-8.463,2.52313-.60248-.39655-1.29083-.66254-2.33838-1.18915-.76123,5.532.98535,7.68109,5.67969,7.619,6.83361-.09046,11.59411-4.649,11.7-11.48328.03619-2.34216.23144-4.281,2.20343-5.95428a4.18444,4.18444,0,0,0,1.0838-4.94483c-.87982-1.913-2.88947-1.47973-4.38721-1.09716-3.71051.94787-7.02264-.08143-10.43768-1.32459-5.60809-2.0415-11.24243-3.996-16.72113-6.38251-2.58179-1.12463-4.45282.04529-4.709,2.71527C488.86755,366.12284,489.77741,367.3477,491.97809,367.84715Z"/><path class="cls-6" d="M142.43372,273.44273a14.85461,14.85461,0,0,0-2.186-.44934c-6.84723-1.44812-12.77514-4.93518-18.59533-8.57666-3.02814-1.89466-3.97034-5.65577-2.42713-8.16016a6.3785,6.3785,0,0,1,8.58038-2.33484c.77308.37122,1.325,1.27387,2.3686.99768,1.27227-4.38434-.05378-6.99914-4.11457-7.31451-7.19781-.559-12.1579,2.46466-13.23547,9.57947-.43066,2.84338-.577,5.45495-3.19281,7.40832-1.32538.98969-1.46259,2.98926-.78406,4.58228.66474,1.56048,2.2959,1.20471,3.57227,1.07928a20.41417,20.41417,0,0,1,10.83252,1.90656c5.55114,2.55316,11.243,4.7926,16.65606,7.6618,1.98627,1.05286,3.48072.38153,4.30249-1.57794C145.07959,276.173,144.372,274.17533,142.43372,273.44273Z"/><path class="cls-3" d="M229.09131,320.03336v5.39728a31.74984,31.74984,0,0,0,9.635,2.46253c5.99658.82708,9.19781.58838,11.28546-1.03717l-.81018-.81025L230.507,307.34953a15.84675,15.84675,0,0,1-1.41565.7536Z"/><path class="cls-3" d="M308.39868,226.62046l.28107.28107c.07745-.09619.15857-.18744.23791-.28107Z"/><path class="cls-3" d="M272.15918,377.49888c.204,0,.38757-.01782.58173-.02661,3.03106-.13672,4.85992-1.30976,5.28735-2.90155.43878-1.63428-.58392-3.69605-3.28687-5.498a8.61521,8.61521,0,0,0-1.078-.6228c-1.35638-.66059-2.31964-.58655-2.31964.28308a17.51048,17.51048,0,0,1-1.427,3.73737c-1.03626,2.0368-1.3692,3.31665-.92609,4.07745C269.39026,377.2338,270.41931,377.49888,272.15918,377.49888Z"/><path class="cls-3" d="M408.54932,326.76743v-.46319c-.09412.06616-.18543.12268-.27851.18469Z"/><path class="cls-3" d="M408.54932,320.68571v-7.41846a12.89517,12.89517,0,0,0-6.396-5.48816c-2.50281-1.00989-8.80542-1.423-13.742-1.1496l11.93756,11.93757,3.82531,3.82531.89637.8963c.09253-.05078.1795-.10076.27655-.15222A9.77527,9.77527,0,0,0,408.54932,320.68571Z"/><path class="cls-3" d="M365.1189,270.47288l1.97064,1.01929,1.08862-2.0683.95-1.80506c1.56293-2.92193,1.90265-4.00921,1.35907-4.75665-.97479-1.13727-4.49133-1.19238-6.7066-.34381a3.96218,3.96218,0,0,0-1.37982.81946,4.55362,4.55362,0,0,0-1.35907,2.24243C361.04175,267.00724,363.01239,269.3856,365.1189,270.47288Z"/><path class="cls-3" d="M267.50763,272.94071a15.44932,15.44932,0,0,0,1.05-1.17675c2.03863-2.65015,1.83478-3.32966-1.97064-5.3003-.92414-.48059-1.68763-.86395-2.32532-1.14428-2.87891-1.26551-3.1109-.36561-3.1109,3.86236,0,.76245.01666,1.3775.06085,1.88733a3.22784,3.22784,0,0,0,.81677,2.21057,4.47146,4.47146,0,0,0,.75324.59088C264.42859,274.9495,265.79565,274.67814,267.50763,272.94071Z"/><path class="cls-3" d="M377.962,369.07267c.45941-.28711.68579-1.28027.70471-2.462v-.00006a8.91014,8.91014,0,0,0-1.0445-4.605c-1.33856-1.93872-3.71063-1.83484-5.6065-.20849a7.95574,7.95574,0,0,0-2.20807,3.26635,5.97073,5.97073,0,0,0-.47565,1.83472C371.16675,367.84953,377.4184,369.41245,377.962,369.07267Z"/><path class="cls-3" d="M281.129,254.09617l.47565,1.83478,2.51428-1.35907c.36731-.2204.82806-.47138,1.3352-.73255.639-.32916,1.35443-.67425,2.07575-1.00067.82428-.373,1.65106-.72052,2.36505-.98492a17.6656,17.6656,0,0,0,2.40668-1.22363c.48419-.30445.78711-.556.78711-.67908,0-.9513-.95136-2.03858-2.51429-2.854a4.02311,4.02311,0,0,0-3.52191-.44384,13.34386,13.34386,0,0,0-2.11816.98748C281.94446,249.20359,280.51746,251.64988,281.129,254.09617Z"/><path class="cls-3" d="M249.10638,350.98368a4.90667,4.90667,0,0,0,.08472.89691,8.44791,8.44791,0,0,0,4.81848,5.74256,4.56417,4.56417,0,0,0,1.705.37323,5.5484,5.5484,0,0,0,2.37836-.33979,6.94767,6.94767,0,0,0-.8739-2.45617c-.43708-.968-1.00373-2.14221-1.64039-3.38782a31.82666,31.82666,0,0,0-3.0039-4.9306l-.00079-.00092c-.33094-.40686-.58857-.64062-.73273-.64062C250.46393,346.24046,249.0885,348.72038,249.10638,350.98368Z"/><path class="cls-3" d="M387.06775,293.10124a3.75271,3.75271,0,0,0,1.51227-1.563c1.29449-2.41333.48205-6.355-2.19177-8.49408a7.56267,7.56267,0,0,0-3.74329-1.35407c-.999-.09082-1.82221.04969-2.03272.47071-.13592.33972.9513,3.05786,2.51423,6.11572C385.50482,293.03324,386.04846,293.71281,387.06775,293.10124Z"/><path class="cls-3" d="M360.53394,385.65824a4.89182,4.89182,0,0,0,.37188-2.45135c-.13586-1.01929-.47564-1.97058-.88336-2.03858-.33978-.13592-2.37836.88343-4.48492,2.31043-1.11676.72052-2.28394,1.47461-3.24195,2.08923-.849.54468-1.53521.9809-1.85449,1.17249-.62939.354-.90735.61908-.89313.94909a1.64754,1.64754,0,0,0,.48542.88562,4.25578,4.25578,0,0,0,2.45166,1.44611A7.72555,7.72555,0,0,0,360.53394,385.65824Z"/><path class="cls-3" d="M251.496,296.62a12.486,12.486,0,0,0,1.56836-1.41223c.10541-.11181.18482-.226.28156-.33868,1.96057-2.28382,2.15606-4.73047.60187-6.93225a3.78345,3.78345,0,0,0-3.95356-1.46772,6.35933,6.35933,0,0,0-3.38537,1.94336c-.399.41431-.70026.74646-.93616,1.04743a2.92725,2.92725,0,0,0-.48938.84845l.51538.51532Z"/><path class="cls-3" d="M341.06354,255.11552c2.78,2.17413,5.78186,1.59814,7.33386-.11579,1.407-1.55377,1.623-4.04235-.60651-6.27185-1.47107-1.52765-2.80511-1.95587-4.425-1.35571a6.41381,6.41381,0,0,0-1.01123.47235C338.889,249.67924,338.34546,252.941,341.06354,255.11552Z"/><path class="cls-3" d="M295.73889,391.769c1.82068,0,4.31311-1.79193,5.18634-3.48431a2.52882,2.52882,0,0,0,.31787-1.13654,6.25276,6.25276,0,0,0-1.90271-3.05786c-1.75866-1.70374-3.82312-2.18451-5.593-1.41614a4.634,4.634,0,0,0-1.20233.73657A4.78055,4.78055,0,0,0,295.73889,391.769Z"/><path class="cls-3" d="M386.45618,347.32774a5.2161,5.2161,0,0,0,4.048-3.34638,4.65416,4.65416,0,0,0-.468-4.00134l-1.47015-1.46991a7.8721,7.8721,0,0,0-2.24579-.83173,2.56853,2.56853,0,0,0-2.53064.44135,7.39076,7.39076,0,0,0-.93493.98566C379.86475,342.97874,382.10718,348.14317,386.45618,347.32774Z"/><path class="cls-8" d="M358.33777,316.68894a40.18608,40.18608,0,0,0-80.24542-3.19476c-.08307,1.05518-.138,2.11822-.138,3.19476a40.19171,40.19171,0,1,0,80.38342,0Z"/><path class="cls-9" d="M276.93854,406.08006H229.09015v-47.8559H193.19v-.00085h-.00122v38.261c.09009-.63531.20575-1.26892.33936-1.9a6.99871,6.99871,0,0,1,5.98968-5.18988c.16846-.015.32825-.00421.494-.01074a7.74258,7.74258,0,0,1,7.665,4.50958c1.22955,2.65124.77472,6.476-1.05182,8.20581a2.96681,2.96681,0,0,1-2.53638,1.12488,2.25465,2.25465,0,0,1-.692-.251c-1.76-.993-1.64362-2.58948-1.16877-4.67249.00922-.06335.10456-.55883.14862-1.05883a1.708,1.708,0,0,0-1.4815-1.9618c-1.09986-.21447-1.54651.531-1.73969,1.46955-.008.039-.01849.07605-.02569.11566a13.08377,13.08377,0,0,0-.17542,2.87408,18.36634,18.36634,0,0,0,.17414,1.92517,7.72689,7.72689,0,0,1,.0794,1.38886c-.10809,3.07983-2.19482,5.34668-5.52508,5.97052-.08924.01672-.17847.0238-.2677.03693-.07538.0111-.15076.02264-.22608.03119v15.18469c4.98285-5.53907,10.40308-10.30243,15.33209-16.53205a16.90906,16.90906,0,0,1,1.2511-1.3977,13.92763,13.92763,0,0,1,2.4964-2.02991,3.48988,3.48988,0,0,1,4.153,2.62085c-1.465,3.78174-4.20252,6.62311-6.89307,9.47833-.45667.48462-.912.96973-1.3595,1.45978a6.21935,6.21935,0,0,0-.68506.86194c-.41864.67011-.38531,1.24335.4585,2.042l2.99286,5.51642c1.555.184,4.2384-.696,5.87616-1.16638,1.83221-.52637,3.65735-1.08765,5.51111-1.52588,1.18646-.28052,2.55084-.43256,3.15277.95313.62707,1.44348-.52783,2.25512-1.56244,2.86456-.03986.0235-.08112.04364-.121.06689a56.76945,56.76945,0,0,1-12.74323,4.97437c-2.645.78045-13.32391,4.84143-17.85962,6.20428v3.31031h83.74976Z"/><path class="cls-9" d="M193.31055,401.47276c-.04975-.20868-.08521-.41706-.12177-.62543v2.2641A1.94151,1.94151,0,0,0,193.31055,401.47276Z"/><path class="cls-9" d="M444.44666,358.22447H408.28247l.26685.26678v46.87781a48.06982,48.06982,0,0,1,6.31262,5.33368c.39966.37579.79986.7503,1.20373,1.11914,1.11622,1.01928,1.7887,1.40484,2.90393.22656l5.51642-2.99286c.184-1.555-.696-4.2384-1.16638-5.8761q-.24316-.84632-.49023-1.69214c-.36878-1.26739-.73236-2.53607-1.03565-3.819-.28051-1.18652-.43255-2.5509.95313-3.15277,1.44354-.62707,2.25512.52784,2.86456,1.56244a56.27053,56.27053,0,0,1,5.04126,12.8642c.50586,1.71442,2.39026,6.80475,4.02509,11.41034,1.21722,3.42914,2.29638,6.59009,2.564,7.88617a22.08053,22.08053,0,0,1,.31171,4.75323c-.0116.11011-.03028.21112-.0473.31421-.40076,2.42566-2.29523,2.91675-5.32679,1.01691-.04516-.17475-1.61419-1.03119-1.65472-1.207a66.29418,66.29418,0,0,1-7.31964-5.66229c-5.85834-5.15979-10.76746-10.83851-17.27075-15.98407a15.8666,15.8666,0,0,1-2.3841-2.32837,13.36119,13.36119,0,0,1-1.04352-1.41913,4.465,4.465,0,0,1,.06257-1.64105H360.95941l-.26288-.26294v36.16027h83.75013Zm-38.95447,74.13482a6.28249,6.28249,0,0,1-3.16522,1.897,4.63536,4.63536,0,0,1-2.95911-.1441,3.80458,3.80458,0,0,1-1.55469-1.2749c-.07648-.10352-.15722-.19623-.22912-.31116a2.29256,2.29256,0,0,1-.18262-2.55908,1.75092,1.75092,0,0,1,2.27856-.9292c1.2486.46863,2.06073.01715,2.002-1.31323a1.345,1.345,0,0,0-.23853-.77106,1.10321,1.10321,0,0,0-.9444-.3847,3.72419,3.72419,0,0,0-.83642.11126,12.6608,12.6608,0,0,1-4.35333.2041c-.84858-.09246-1.69391-.24359-2.5351-.42169a6.3763,6.3763,0,0,1-3.17493-1.83624,6.96488,6.96488,0,0,1-2.015-4.15338,9.409,9.409,0,0,1,.07062-2.178,7.59121,7.59121,0,0,1,4.42822-5.981,7.82422,7.82422,0,0,1,2.84845-.65814,7.04368,7.04368,0,0,1,5.35736,1.71,2.97507,2.97507,0,0,1,1.12665,2.52674,2.2488,2.2488,0,0,1-.25281.70159c-.993,1.76-2.58948,1.64362-4.67248,1.16877-.06336-.00916-.55884-.10456-1.05884-.14862a1.67682,1.67682,0,0,0-1.74414.86224,2.19426,2.19426,0,0,0-.21765.61926c-.22339,1.14557.592,1.58563,1.5852,1.76538.18994.03437.37885.04889.56824.07392a15.21887,15.21887,0,0,0,4.231-.07264c3.77679-.55163,6.645,1.63233,7.35937,5.44574A7.09835,7.09835,0,0,1,405.49219,432.35929Z"/><path class="cls-9" d="M220.36554,192.10075c.238,1.25018,1.217,1.11383,2.14832.74395a15.5026,15.5026,0,0,1,6.84832-.773,6.99874,6.99874,0,0,1,5.99561,5.18305,9.11133,9.11133,0,0,1,.20392,3.004,7.5619,7.5619,0,0,1-3.48554,5.71606,7.24573,7.24573,0,0,1-1.47448.70776c-2.32923.85218-5.18476.70258-6.79737-.57135-.959-.75756-1.87854-1.64886-1.328-3.06958.73016-1.88421,2.32684-1.99816,4.45642-1.82708.064,0,.568.02331,1.06921-.00483a1.70808,1.70808,0,0,0,1.72895-1.74768c.0567-1.16577-.81342-1.48425-1.82209-1.51965a14.682,14.682,0,0,0-4.74981.68732c-3.65857,1.08783-6.81049-.662-8.06458-4.33344a7.056,7.056,0,0,1-.24841-3.56927H193.19v1.24292c9.31641,4.85815,16.06116,11.4718,25.29944,16.82763a14.86146,14.86146,0,0,1,3.92981,3.21692,3.45533,3.45533,0,0,1-1.82837,4.38575c-.05878.03241-.10821.069-.16949.10028-4.62366-1.06128-8.224-4.03022-12.009-6.59778-1.25092-.84857-1.97181-1.13367-2.90644.19244l-5.02991,3.75342c.04108,1.56531,1.29694,4.09467,1.99744,5.648.78381,1.73779,1.60114,3.4635,2.30084,5.23517a3.9739,3.9739,0,0,1,.366,2.03778,1.72626,1.72626,0,0,1-.85693,1.21911c-1.33863.8277-2.30756-.19879-3.05915-1.13525a56.27174,56.27174,0,0,1-6.83483-12.00781c-.23627-.51392-.6615-1.34931-1.19947-2.37915V274.4849h36.16809l-.26678-.27459V226.62046h47.58594l.26165.26563V190.727H220.66577A1.398,1.398,0,0,0,220.36554,192.10075Z"/><path class="cls-9" d="M444.44464,232.63969a2.53977,2.53977,0,0,0-.41144.04327c-1.25018.238-1.11383,1.217-.744,2.14832.04943.12451.087.25049.13134.37567a16.03422,16.03422,0,0,1,.64167,6.47265,6.25182,6.25182,0,0,1-1.08033,3.03125,7.16587,7.16587,0,0,1-3.46521,2.75281,5.92943,5.92943,0,0,1-.63751.21155,8.20023,8.20023,0,0,1-6.094-.75812,7.82119,7.82119,0,0,1-2.626-2.5235,8.3407,8.3407,0,0,1-1.24872-4.27478,6.29163,6.29163,0,0,1,1.11231-3.99707,3.36854,3.36854,0,0,1,1.97863-1.4638,2.09744,2.09744,0,0,1,1.091.1358c1.88421.73016,1.99817,2.32684,1.82708,4.45642,0,.064-.02331.56806.00483,1.06922a1.70654,1.70654,0,0,0,.83722,1.478,2.02924,2.02924,0,0,0,.91046.25092,1.41836,1.41836,0,0,0,.826-.18427,1.8761,1.8761,0,0,0,.69366-1.63781,14.682,14.682,0,0,0-.68732-4.74982c-1.08783-3.65857.662-6.81049,4.33344-8.06458a7.02536,7.02536,0,0,1,2.60693-.36645V204.9586c-4.88177,9.602-11.64813,16.43017-17.10821,25.84826a14.89281,14.89281,0,0,1-3.17127,3.88709c-.01593.01367-.02966.02917-.04565.04272a3.48987,3.48987,0,0,1-4.486-1.99786c1.06128-4.62366,4.03022-8.224,6.59778-12.009.84857-1.25092,1.13367-1.97181-.19244-2.90644l-3.75342-5.0299c-1.56531.04107-4.09466,1.29693-5.64795,1.99743q-.76053.34305-1.52.6897c-1.22925.55981-2.46039,1.1156-3.71515,1.61115-1.134.44781-2.4624.79406-3.25689-.49091-.8277-1.33862.19879-2.30756,1.13525-3.05914a56.27178,56.27178,0,0,1,12.00781-6.83484c2.83332-1.30249,15.236-8.23334,18.15143-9.28961a22.079,22.079,0,0,1,4.6593-.99048c.12592-.00495.22748.01519.34546.01855v-5.72H360.69458v35.89356H408.5473v47.8645h35.89734V232.63969Z"/><path class="cls-10" d="M276.9389,226.88725l14.61005,14.61,8.05566,8.05567,24.932,24.93194h31.72662l-13.51336-13.51336a12.20574,12.20574,0,0,1-5.35572-3.47773c-2.377-2.32043-2.86639-2.99481-2.768-4.646l-21.38165-21.38159-1.395-1.395a23.70887,23.70887,0,0,0-3.47126,9.68689c-1.29113,8.01849-.27185,13.25085,2.78608,14.67785a10.07928,10.07928,0,0,0,10.125-1.29107c.18536-.15088.34826-.2677.52215-.40113a13.11194,13.11194,0,0,1,1.596-1.07672c1.5155-.83411,2.29883-.58667,2.29883.73035,0,1.32751-2.24182,3.53955-4.58777,4.86975a8.83924,8.83924,0,0,1-2.61524,1.04217c-3.12585.54358-8.22235-.13592-10.26092-1.42706-3.94129-2.65015-5.30035-7.88251-4.281-16.5805.74372-5.98883,2.25971-10.3465,4.71851-13.40021l-.28107-.28107h.519a14.10545,14.10545,0,0,1,5.11969-3.8056,17.37368,17.37368,0,0,1,1.67975-.65656c3.6015-1.15521,9.10572-.67956,11.34815.9513a11.72039,11.72039,0,0,1,3.01471,3.51086h30.613V190.727H276.9389v36.16028Z"/><path class="cls-10" d="M318.55029,225.4846a9.68471,9.68471,0,0,0-3.0639,1.13586h9.2934a7.47848,7.47848,0,0,0-4.306-1.33636A10.86937,10.86937,0,0,0,318.55029,225.4846Z"/><path class="cls-10" d="M276.939,441.9774h83.7536V405.81712l-20.77161-20.775-3.02527-3.02581-5.53161-5.53071-17.68079-17.678-.58447-.58435H281.37616l16.63623,16.63787,10.512,10.513,12.50806,12.50928,8.20435,8.1966H312.83514a30.03746,30.03746,0,0,1,1.52289,2.74511c1.83472,3.60157,4.281,4.96057,7.88257,4.349a10.30392,10.30392,0,0,0,8.18561-5.86249c.1972-.3656.39392-.73168.58032-1.13665,1.63086-3.53357,1.83472-4.62079,1.83472-11.89179,0-8.01843,0-8.08642-1.90271-9.71728-3.32965-2.854-9.64929-2.03858-12.979,1.69885a4.19456,4.19456,0,0,1-2.51428,1.427c-1.01929,0-1.15515-.27179-.54358-1.97064a7.469,7.469,0,0,1,2.43231-3.46606,14.74164,14.74164,0,0,1,2.5962-1.63044c2.51428-1.359,8.49414-1.427,11.48407-.13586,5.16442,2.1745,7.06707,8.08636,5.84393,18.27936a37.43585,37.43585,0,0,1-2.37836,9.78521,14.31749,14.31749,0,0,1-1.41559,2.42121,15.6483,15.6483,0,0,1-14.55334,6.34472c-3.73743-.47564-5.97986-2.03857-7.9505-5.57214-1.50745-2.56824-1.84985-4.43732-1.1391-5.66711H276.93854V441.9774Z"/><path class="cls-10" d="M444.44666,274.4849H408.54932v31.72864a14.77085,14.77085,0,0,1,4.81622,11.48669c0,3.59369-.10486,4.27778-1.81482,5.98987-.26233.2627-.55975.548-.90326.87335a18.35192,18.35192,0,0,1-2.09814,1.74079v.46319l-.27851-.2785c-2.02221,1.34735-3.79675,1.718-5.03027.92859-1.46033-.88666-1.39331-1.89423.21942-3.11328a13.39227,13.39227,0,0,1,1.6106-1.01557l-.89637-.8963-3.82531-3.82531-11.93756-11.93757a19.8965,19.8965,0,0,0-5.67853.91431,3.47586,3.47586,0,0,0-.35382.1673c-2.51422,1.29114-2.98993,2.31042-2.98993,6.31964,0,2.58221.40771,3.46564,2.71814,5.97986a24.23125,24.23125,0,0,1,1.9779,2.38043c1.03913,1.495.83557,2.10449-.5509,2.10449-1.69879,0-5.23236-2.98993-6.5235-5.50421-1.29108-2.44629-1.29108-8.29028,0-11.00836a8.19366,8.19366,0,0,1,1.58576-2.13178,14.46477,14.46477,0,0,1,5.65307-3.38342l-.969-.96905-6.53162-6.53156c.49225,1.71033.18347,1.93836-1.0293,1.46381-1.23791-.51581-2.51318-2.9505-3.08648-5.57959l-11.93659-11.93659v31.72657l21.95935,21.95929.87409.87414c4.51391-1.31757,9.53351,2.5766,10.40106,9.30011.053.43207.0874.82922.11224,1.21161l1.14728,1.147,13.09192,13.08979h36.16419Z"/><path class="cls-10" d="M408.54932,320.68571a5.07772,5.07772,0,0,0,.732-1.265,6.74668,6.74668,0,0,0,.007-4.37072,8.52368,8.52368,0,0,0-.73907-1.78278v7.41846Z"/><path class="cls-10" d="M389.31018,339.03745a3.55842,3.55842,0,0,0-.74414-.52734l1.47015,1.46991A5.34174,5.34174,0,0,0,389.31018,339.03745Z"/><path class="cls-10" d="M245.52161,292.82938a8.043,8.043,0,0,0,1.734,2.89081,4.33339,4.33339,0,0,0,2.88684,1.59412A3.00021,3.00021,0,0,0,251.496,296.62l-5.7973-5.79632-.51538-.51532A3.91926,3.91926,0,0,0,245.52161,292.82938Z"/><path class="cls-10" d="M229.09131,308.10313c-.02667.01281-.0575.02655-.0846.03949-.217.10309-.43182.20556-.67718.316-2.10657.88342-4.07721,2.24243-4.48493,2.98993-1.15521,2.1745-.88336,6.2517.67957,9.44549a9.34165,9.34165,0,0,0,4.56714,4.53662V308.10313Z"/><path class="cls-10" d="M229.09015,358.22416h.00116V330.32584c-7.022-2.99707-9.73157-7.20629-9.73157-14.66424,0-5.91187,1.08722-8.08637,5.02851-10.19293.26025-.142.53057-.2663.80407-.38257,2.86908-1.21936,6.2926-1.03247,6.60279.51849.11163.48371-.13965.929-.82123,1.43158-.13782.10163-.29175.206-.46692.31336l18.69464,18.69622.81018.81025a6.417,6.417,0,0,0,1.05731-1.05481,8.57142,8.57142,0,0,0,.63623-.898c1.90271-3.12586,1.63092-5.70807-1.08722-9.85321-2.31042-3.66944-2.51428-4.82465-.6795-4.82465,1.427,0,4.96057,4.48493,5.84393,7.33893.04511.15332.08045.31769.11688.48083.78687,3.525-.41992,9.22077-2.56317,11.81867-.04767.05548-.10907.10345-.15924.15759l.06446.06452,11.18872,11.18963,4.96954,4.97,7.5404,7.541V322.05985l-22.54925-22.54553-.04395-.04394c-.03656.02343-.07257.0448-.109.06768-.11976.07508-.24061.154-.3581.22254-3.46557,2.10657-5.30029,1.83478-8.49408-1.01929-1.97064-1.69879-2.1745-2.37836-2.44635-6.38757a32.4892,32.4892,0,0,1-.0755-4.36444l-13.5058-13.5036H193.19v83.73846Z"/><path d="M327.06525,223.1096c-2.24243-1.63086-7.74665-2.10651-11.34815-.9513a17.37368,17.37368,0,0,0-1.67975.65656,14.10545,14.10545,0,0,0-5.11969,3.8056c-.07934.09363-.16046.18488-.23791.28107-2.4588,3.05371-3.97479,7.41138-4.71851,13.40021-1.01934,8.698.33972,13.93035,4.281,16.5805,2.03857,1.29114,7.13507,1.97064,10.26092,1.42706a8.83924,8.83924,0,0,0,2.61524-1.04217c2.346-1.3302,4.58777-3.54224,4.58777-4.86975,0-1.317-.78333-1.56446-2.29883-.73035a13.11194,13.11194,0,0,0-1.596,1.07672c-.17389.13343-.33679.25025-.52215.40113a10.07928,10.07928,0,0,1-10.125,1.29107c-3.05793-1.427-4.07721-6.65936-2.78608-14.67785a23.70887,23.70887,0,0,1,3.47126-9.68689,11.30872,11.30872,0,0,1,3.637-3.45075,9.68471,9.68471,0,0,1,3.0639-1.13586,10.86937,10.86937,0,0,1,1.92353-.2005,7.47848,7.47848,0,0,1,4.306,1.33636,5.01511,5.01511,0,0,1,2.28546,3.89606,4.90559,4.90559,0,0,0,1.427,2.98993c1.08728,1.08722,1.56293,1.22314,2.37836.54358a2.16275,2.16275,0,0,0,.63763-1.01783c.50806-1.56781-.10516-4.126-1.42828-6.41174A11.72039,11.72039,0,0,0,327.06525,223.1096Z"/><path d="M281.46875,261.639c1.97064,1.83477,2.65021,2.03863,6.5235,2.03863,3.32971,0,4.82465-.33978,6.18371-1.42706.13068-.098.25062-.19269.37-.28711,2.36285-1.86945,2.50232-3.00989.17364-2.363-5.50421,1.35907-11.14428.95136-11.14428-.88336,0-.23993,1.748-1.115,4.02655-2.06458q.4551-.18969.934-.38177a42.47014,42.47014,0,0,0,6.13873-2.84277,3.36319,3.36319,0,0,0,1.81177-3.40888,6.43128,6.43128,0,0,0-1.90271-4.41693c-1.63086-1.83478-2.51422-2.24249-5.64008-2.44635a12.72075,12.72075,0,0,0-3.19592-.0011,6.773,6.773,0,0,0-2.85187,1.29224C276.30432,248.93174,275.69275,256.20274,281.46875,261.639Zm5.5838-14.98578a4.02311,4.02311,0,0,1,3.52191.44384c1.56293.81543,2.51429,1.90271,2.51429,2.854,0,.12311-.30292.37463-.78711.67908a17.6656,17.6656,0,0,1-2.40668,1.22363c-.714.2644-1.54077.61188-2.36505.98492-.72132.32642-1.43671.67151-2.07575,1.00067-.50714.26117-.96789.51215-1.3352.73255l-2.51428,1.35907-.47565-1.83478c-.61157-2.44629.81543-4.89258,3.80536-6.45551A13.34386,13.34386,0,0,1,287.05255,246.65318Z"/><path d="M337.3941,257.49381a12.20574,12.20574,0,0,0,5.35572,3.47773c2.45257.66717,4.99243.09344,7.89514-1.71094a6.01024,6.01024,0,0,0,.8692-.6452c3.53864-3.10511,3.37524-10.1092-.66534-13.01331-2.2746-1.67249-7.77008-2.2215-10.40412-1.07117-.0415.01813-.08856.03284-.1286.05182a9.26582,9.26582,0,0,0-5.57214,7.13507c-.05676.43158-.09809.79865-.11786,1.13C334.52771,254.499,335.01709,255.17338,337.3941,257.49381Zm4.96058-9.64929a6.41381,6.41381,0,0,1,1.01123-.47235c1.61987-.60016,2.95391-.17194,4.425,1.35571,2.2295,2.2295,2.01355,4.71808.60651,6.27185-1.552,1.71393-4.55383,2.28992-7.33386.11579C338.34546,252.941,338.889,249.67924,342.35468,247.84452Z"/><path d="M266.92682,278.28745a9.008,9.008,0,0,0,2.56232-1.481c1.99633-1.56464,3.87475-3.92255,4.301-5.722a5.48635,5.48635,0,0,1,2.44629-2.71814c1.427-.7475,1.90271-1.427,1.76678-2.51422-.20385-1.29114-.74749-1.56293-4.00921-1.90271-5.43415-.60376-12.47571-5.39856-18.7453-12.70312-.78644-.91633-1.56275-1.86591-2.32013-2.8581-1.22321-1.63092-1.90271-2.03863-2.24249-1.42706-1.35907,2.10657,3.05792,9.98913,7.47485,13.31885l2.31042,1.76672-1.35907,1.76678c-1.69885,2.1745-1.83471,8.15436-.27185,11.14429A6.88663,6.88663,0,0,0,266.92682,278.28745Zm-5.71515-7.21838c-.04419-.50983-.06085-1.12488-.06085-1.88733,0-4.228.232-5.12787,3.1109-3.86236.63769.28033,1.40118.66369,2.32532,1.14428,3.80542,1.97064,4.00927,2.65015,1.97064,5.3003a15.44932,15.44932,0,0,1-1.05,1.17675c-1.712,1.73743-3.079,2.00879-4.726.92981a4.47146,4.47146,0,0,1-.75324-.59088A3.22784,3.22784,0,0,1,261.21167,271.06907Z"/><path d="M358.45953,269.31767c1.22315,2.51428,2.31043,3.53357,5.02851,4.89264,1.90271.95129,3.73742,2.31036,4.07721,3.05786a2.47853,2.47853,0,0,0,2.31036,1.35907c1.06635,0,1.4682-.1601,1.74555-1.33979.12915-.54931.2315-1.31817.361-2.39764.6745-6.00305,4.76752-12.54175,12.07184-19.01794.05438-.04822.105-.09656.15973-.14478.428-.38043.817-.74707,1.18585-1.10468,1.73926-1.6864,2.77582-3.05572,2.55151-3.44818-.61157-.95135-.88336-.95135-4.48486.81543a24.2083,24.2083,0,0,0-3.53559,2.38959A37.80468,37.80468,0,0,0,376.603,257.29c-.63282.65765-1.16156,1.19946-1.6128,1.64416-2.02,1.99078-2.44659,1.98755-3.27978,1.2099-1.76679-1.76678-7.271-1.97064-10.46478-.27185-.041.02051-.07666.04279-.11707.06348C357.156,261.9741,356.30695,265.01243,358.45953,269.31767Zm3.94129-5.97986a3.96218,3.96218,0,0,1,1.37982-.81946c2.21527-.84857,5.73181-.79346,6.7066.34381.54358.74744.20386,1.83472-1.35907,4.75665l-.95,1.80506-1.08862,2.0683-1.97064-1.01929c-2.10651-1.08728-4.07715-3.46564-4.07715-4.89264A4.55362,4.55362,0,0,1,362.40082,263.33781Z"/><path d="M375.7196,296.431c1.21277.47455,1.52155.24652,1.0293-1.46381-.11035-.38336-.2597-.8396-.44983-1.38147-.05481-.15619-.11041-.31415-.17175-.48443a8.92668,8.92668,0,0,1-.47565-5.70807,6.34165,6.34165,0,0,1,1.359-2.78608c.14069-.02343.35736.16669.613.50037a15.34173,15.34173,0,0,1,1.69739,3.23706c2.44629,5.84393,4.62079,8.96979,6.25164,8.96979a7.27049,7.27049,0,0,0,5.40961-3.11633,9.12783,9.12783,0,0,0,1.99732-5.44574c0-2.922-2.58222-7.54279-5.02857-9.10572a10.39224,10.39224,0,0,0-10.60065.13593c-.48834.33459-.931.66839-1.34167,1.00348a8.74719,8.74719,0,0,0-3.68683,7.55859,13.12905,13.12905,0,0,0,.31116,2.50684C373.20642,293.48045,374.48169,295.91514,375.7196,296.431ZM382.645,281.6901a7.56267,7.56267,0,0,1,3.74329,1.35407c2.67382,2.139,3.48626,6.08075,2.19177,8.49408a3.75271,3.75271,0,0,1-1.51227,1.563c-1.01929.61157-1.56293-.068-3.94128-4.82471-1.56293-3.05786-2.65015-5.776-2.51423-6.11572C380.82275,281.73979,381.646,281.59928,382.645,281.6901Z"/><path d="M242.93939,292.35374c.27185,4.00921.47571,4.68878,2.44635,6.38757,3.19379,2.85407,5.02851,3.12586,8.49408,1.01929.11749-.06854.23834-.14746.3581-.22254.03643-.02288.07244-.04425.109-.06768a14.8022,14.8022,0,0,0,3.746-3.31128c2.44629-3.66944,1.08722-10.8725-2.51429-13.38672-1.5866-1.126-4.86871-1.326-7.52484-.65967a8.37367,8.37367,0,0,0-2.32837.93146c-1.85113,1.09173-2.6723,2.28814-2.86157,4.94513A32.4892,32.4892,0,0,0,242.93939,292.35374Zm2.73334-2.89386c.2359-.301.53717-.63312.93616-1.04743a6.35933,6.35933,0,0,1,3.38537-1.94336,3.78345,3.78345,0,0,1,3.95356,1.46772c1.55419,2.20178,1.3587,4.64843-.60187,6.93225-.09674.11267-.17615.22687-.28156.33868A12.486,12.486,0,0,1,251.496,296.62a3.00021,3.00021,0,0,1-1.35357.69434,4.33339,4.33339,0,0,1-2.88684-1.59412,8.043,8.043,0,0,1-1.734-2.89081,3.91926,3.91926,0,0,1-.33826-2.52105A2.92725,2.92725,0,0,1,245.67273,289.45988Z"/><path d="M377.01068,307.983c-1.29108,2.71808-1.29108,8.56207,0,11.00836,1.29114,2.51428,4.82471,5.50421,6.5235,5.50421,1.38647,0,1.59-.60949.5509-2.10449a24.23125,24.23125,0,0,0-1.9779-2.38043c-2.31043-2.51422-2.71814-3.39765-2.71814-5.97986,0-4.00922.47571-5.0285,2.98993-6.31964a3.47586,3.47586,0,0,1,.35382-.1673,19.8965,19.8965,0,0,1,5.67853-.91431c4.93658-.27337,11.23919.13971,13.742,1.1496a12.89517,12.89517,0,0,1,6.396,5.48816,8.52368,8.52368,0,0,1,.73907,1.78278,6.74668,6.74668,0,0,1-.007,4.37072,5.07772,5.07772,0,0,1-.732,1.265,9.77527,9.77527,0,0,1-3.20221,2.45074c-.097.05146-.184.10144-.27655.15222a13.39227,13.39227,0,0,0-1.6106,1.01557c-1.61273,1.219-1.67975,2.22662-.21942,3.11328,1.23352.78943,3.00806.41876,5.03027-.92859.09308-.062.18439-.11853.27851-.18469a18.35192,18.35192,0,0,0,2.09814-1.74079c.34351-.32537.64093-.61065.90326-.87335,1.71-1.71209,1.81482-2.39618,1.81482-5.98987a14.77085,14.77085,0,0,0-4.81622-11.48669,16.2728,16.2728,0,0,0-5.44464-3.12323c-3.39765-1.22314-13.65857-1.83472-17.396-1.01929a14.89114,14.89114,0,0,0-7.11224,3.78015A8.19366,8.19366,0,0,0,377.01068,307.983Z"/><path d="M255.89941,318.04514c-.03643-.16314-.07177-.32751-.11688-.48083-.88336-2.854-4.41693-7.33893-5.84393-7.33893-1.83478,0-1.63092,1.15521.6795,4.82465,2.71814,4.14514,2.98993,6.72735,1.08722,9.85321a8.57142,8.57142,0,0,1-.63623.898,6.417,6.417,0,0,1-1.05731,1.05481c-2.08765,1.62555-5.28888,1.86425-11.28546,1.03717a31.74984,31.74984,0,0,1-9.635-2.46253,9.34165,9.34165,0,0,1-4.56714-4.53662c-1.56293-3.19379-1.83478-7.271-.67957-9.44549.40772-.7475,2.37836-2.10651,4.48493-2.98993.24536-.11042.46014-.21289.67718-.316.0271-.01294.05793-.02668.0846-.03949a15.84675,15.84675,0,0,0,1.41565-.7536c.17517-.10736.3291-.21173.46692-.31336.68158-.50262.93286-.94787.82123-1.43158-.31019-1.551-3.73371-1.73785-6.60279-.51849-.2735.11627-.54382.2406-.80407.38257-3.94129,2.10656-5.02851,4.28106-5.02851,10.19293,0,7.45795,2.7096,11.66717,9.73157,14.66424.78363.33448,1.6062.658,2.49994.965,8.672,2.97888,17.90741,2.46619,21.45782-1.14276.04193-.0426.08759-.08319.12793-.12665.05017-.05414.11157-.10211.15924-.15759C255.47949,327.26591,256.68628,321.57017,255.89941,318.04514Z"/><path d="M383.53,333.47477a7.36167,7.36167,0,0,0-3.25751,2.02911c-.08215.08948-.14477.16657-.22363.25385-2.85571,3.16058-3.569,4.92664-3.10608,7.96851,1.22314,7.33892,8.08643,10.39679,14.33807,6.31958a5.47926,5.47926,0,0,0,2.49189-2.968,8.31017,8.31017,0,0,0,.27056-3.09131c-.02484-.38239-.0592-.77954-.11224-1.21161C393.06348,336.05137,388.04388,332.1572,383.53,333.47477Zm-.67529,5.63062a7.39076,7.39076,0,0,1,.93493-.98566,2.56853,2.56853,0,0,1,2.53064-.44135,7.8721,7.8721,0,0,1,2.24579.83173,3.55842,3.55842,0,0,1,.74414.52734,5.34174,5.34174,0,0,1,.726.94257,4.65416,4.65416,0,0,1,.468,4.00134,5.2161,5.2161,0,0,1-4.048,3.34638C382.10718,348.14317,379.86475,342.97874,382.85468,339.10539Z"/><path d="M256.93774,361.59788a13.46391,13.46391,0,0,0,6.88434-3.74664,8.82646,8.82646,0,0,0,1.88159-2.641,11.5107,11.5107,0,0,0,.5351-5.6054c-.39594-3.252-1.78491-6.387-3.593-7.10181-1.63092-.61157-1.76678.13593-.54364,3.05792a14.333,14.333,0,0,1,1.03382,4.49445,6.38771,6.38771,0,0,1-.89795,4.06763c-.54358.6795-1.08722,1.15521-1.22315.95135l-.00317-.00549c-.14789-.2295-1.56818-3.13684-3.25855-6.45008a30.981,30.981,0,0,0-2.82544-4.80255c-1.34381-1.70678-2.50714-1.97015-4.21441-1.20025a12.52683,12.52683,0,0,0-1.52222.83837C241.2406,348.347,247.56024,363.16081,256.93774,361.59788Zm-5.09649-15.35742c.14416,0,.40179.23376.73273.64062l.00079.00092a31.82666,31.82666,0,0,1,3.0039,4.9306c.63666,1.24561,1.20331,2.41986,1.64039,3.38782a6.94767,6.94767,0,0,1,.8739,2.45617,5.5484,5.5484,0,0,1-2.37836.33979,4.56417,4.56417,0,0,1-1.705-.37323,8.44791,8.44791,0,0,1-4.81848-5.74256,4.90667,4.90667,0,0,1-.08472-.89691C249.0885,348.72038,250.46393,346.24046,251.84125,346.24046Z"/><path d="M362.129,369.14066c-.74744,1.90265.81549,2.78608,4.89264,2.71808,5.30035-.13586,13.79449,3.87335,19.63842,9.24164,4.349,4.07715,5.64008,4.68872,5.64008,2.65015,0-1.00348-.81665-2.50055-2.11017-4.12079a31.03421,31.03421,0,0,0-5.97619-5.5965c-3.80542-2.71808-4.00928-2.92193-3.05793-4.281,1.35907-1.97065,1.22315-5.57215-.40771-8.90186-2.10651-4.41693-5.91193-5.57214-10.057-3.05792a10.60467,10.60467,0,0,0-2.15,1.86584,13.06475,13.06475,0,0,0-3.05664,5.65064c-.0069.03125-.01929.06311-.02582.0943a3.99255,3.99255,0,0,1-1.204,1.9627,1.50037,1.50037,0,0,1-.49481.27973A2.73829,2.73829,0,0,0,362.129,369.14066Zm7.67871-4.07721a7.95574,7.95574,0,0,1,2.20807-3.26635c1.89587-1.62635,4.26794-1.73023,5.6065.20849a8.91014,8.91014,0,0,1,1.0445,4.605v.00006c-.01892,1.18177-.2453,2.17493-.70471,2.462-.54364.33978-6.79529-1.22314-8.63-2.1745A5.97073,5.97073,0,0,1,369.80768,365.06345Z"/><path d="M268.15,379.87724c3.12586,2.1745,10.73658.74743,12.97907-2.44635a4.97213,4.97213,0,0,0,.28784-.51166,8.35064,8.35064,0,0,0-.28784-7.57471c-1.22321-2.03863-6.04785-5.43628-7.74664-5.43628a2.35971,2.35971,0,0,1-1.69886-1.56292,2.98819,2.98819,0,0,0-1.41424-1.36384,3.49214,3.49214,0,0,0-1.1-.335c-1.83472-.20385-1.90265-.06793-1.90265,2.78608a21.22168,21.22168,0,0,1-.7475,5.30035c-1.1524,3.45709-6.01373,10.51788-9.86969,14.6604-.56768.60986-1.11071,1.15234-1.61956,1.61432-.11109.10083-.22712.21319-.33454.30578-4.28106,3.60151-4.28106,5.16443.06794,3.73743,1.56292-.54364,4.349-2.65014,7.203-5.57214.21594-.21265.41376-.40711.61078-.60059,2.13269-2.09442,3.19812-3.08887,3.9422-3.39569C267.134,379.229,267.53546,379.43833,268.15,379.87724Zm1.76679-7.40692a17.51048,17.51048,0,0,0,1.427-3.73737c0-.86963.96326-.94367,2.31964-.28308a8.61521,8.61521,0,0,1,1.078.6228c2.70295,1.802,3.72565,3.86377,3.28687,5.498-.42743,1.59179-2.25629,2.76483-5.28735,2.90155-.19416.00879-.37775.02661-.58173.02661-1.73987,0-2.76892-.26508-3.16852-.95111C268.54755,375.787,268.88049,374.50712,269.91675,372.47032Z"/><path d="M363.57245,387.75639a9.50211,9.50211,0,0,0-.696-9.578,10.88431,10.88431,0,0,0-2.71485-2.82135,9.91745,9.91745,0,0,0-.93158-.58191,11.19717,11.19717,0,0,0-10.216-.06231,11.61736,11.61736,0,0,0-1.5379.8833c-1.9596,1.33441-3.06354,2.99847-2.13154,3.60156.40772.20386,1.6988-.27179,2.922-1.01929,2.28357-1.37011,6.5647-1.79638,8.46668-.806.07892.04114.16082.08051.23126.12653,1.2232.74744,1.42706.54358-4.5528,4.00922a38.16022,38.16022,0,0,0-4.23785,2.68676c-2.35053,1.798-2.66492,3.07825-1.81,4.78809,1.76679,3.32965,3.6695,4.48486,7.47486,4.48486A10.57865,10.57865,0,0,0,363.57245,387.75639Zm-13.53906.81878a1.64754,1.64754,0,0,1-.48542-.88562c-.01422-.33.26374-.59509.89313-.94909.31928-.19159,1.00549-.62781,1.85449-1.17249.958-.61462,2.12519-1.36871,3.24195-2.08923,2.10656-1.427,4.14514-2.44635,4.48492-2.31043.40772.068.7475,1.01929.88336,2.03858a4.89182,4.89182,0,0,1-.37188,2.45135,7.72555,7.72555,0,0,1-8.04889,4.363A4.25578,4.25578,0,0,1,350.03339,388.57517Z"/><path d="M286.29346,386.19682c0,5.91192,2.98993,8.96985,8.69793,8.96985,4.55286,0,7.88257-1.495,9.64936-4.417.02649-.04236.04663-.08477.07226-.12713,2.27558-3.76294,1.17035-7.5199-3.13012-10.7453A9.41588,9.41588,0,0,0,291.322,378.79c-.37964.17193-.722.35254-1.05426.53631A6.97646,6.97646,0,0,0,286.29346,386.19682Zm6.25165-2.78608a4.634,4.634,0,0,1,1.20233-.73657c1.76983-.76837,3.83429-.2876,5.593,1.41614a6.25276,6.25276,0,0,1,1.90271,3.05786,2.52882,2.52882,0,0,1-.31787,1.13654c-.87323,1.69238-3.36566,3.48431-5.18634,3.48431A4.78055,4.78055,0,0,1,292.54511,383.41074Z"/><path d="M310.96039,411.74717c1.97064,3.53357,4.21307,5.0965,7.9505,5.57214a15.6483,15.6483,0,0,0,14.55334-6.34472,14.31749,14.31749,0,0,0,1.41559-2.42121,37.43585,37.43585,0,0,0,2.37836-9.78521c1.22314-10.193-.67951-16.10486-5.84393-18.27936-2.98993-1.29114-8.96979-1.22315-11.48407.13586a14.74164,14.74164,0,0,0-2.5962,1.63044,7.469,7.469,0,0,0-2.43231,3.46606c-.61157,1.69885-.47571,1.97064.54358,1.97064a4.19456,4.19456,0,0,0,2.51428-1.427c3.32972-3.73743,9.64936-4.55286,12.979-1.69885,1.90271,1.63086,1.90271,1.69885,1.90271,9.71728,0,7.271-.20386,8.35822-1.83472,11.89179-.1864.405-.38312.77105-.58032,1.13665a10.30392,10.30392,0,0,1-8.18561,5.86249c-3.60156.61157-6.04785-.74743-7.88257-4.349a30.03746,30.03746,0,0,0-1.52289-2.74511,3.38366,3.38366,0,0,0-.96911-1.07306c-.46863-.27558-.89685-.11255-1.44928.3526a2.52864,2.52864,0,0,0-.59546.72046C309.11054,407.30985,309.45294,409.17893,310.96039,411.74717Z"/><path class="cls-3" d="M192.5354,198.732q.32941.70477.6546,1.41156v-1.203C192.97205,198.87058,192.76019,198.78947,192.5354,198.732Z"/><path class="cls-9" d="M196.75684,207.662c.33838.67169.59625,2.55493,1.9364,1.16424,1.18982-1.23468,3.98236-2.88141,2.38244-4.42291-2.24072-2.15881-4.71386-4.44421-7.88568-5.46277v1.203c1.13471,2.45087,2.26111,4.906,3.47083,7.31916C196.69385,207.52866,196.72369,207.59617,196.75684,207.662Z"/><path class="cls-3" d="M192.28363,198.57053a.48545.48545,0,0,0,.16455.08417l-.16522-.27154C192.28125,198.44761,192.25226,198.53959,192.28363,198.57053Z"/><path class="cls-6" d="M201.2243,226.85331c.75159.93646,1.72052,1.963,3.05915,1.13525a1.72626,1.72626,0,0,0,.85693-1.21911,3.9739,3.9739,0,0,0-.366-2.03778c-.6997-1.77167-1.517-3.49738-2.30084-5.23517-.7005-1.55328-1.95636-4.08264-1.99744-5.648l5.02991-3.75342c.93463-1.32611,1.65552-1.041,2.90644-.19244,3.785,2.56756,7.38531,5.5365,12.009,6.59778.06128-.03131.11071-.06787.16949-.10028a3.45533,3.45533,0,0,0,1.82837-4.38575,14.86146,14.86146,0,0,0-3.92981-3.21692c-9.23828-5.35583-15.983-11.96948-25.29944-16.82763-.7-.365-1.41107-.72254-2.14233-1.06647-.06531-.16815-1.741-.79059-1.81079-.95709-3.41187-1.50659-5.23346-.62433-5.12744,2.08844a22.08156,22.08156,0,0,0,.99041,4.6593c.86475,2.38666,5.6623,11.12433,8.09015,15.77228.538,1.02984.9632,1.86523,1.19947,2.37915A56.27174,56.27174,0,0,0,201.2243,226.85331Zm-8.94067-28.28278c-.03137-.03094-.00238-.12292-.00067-.18737l.16522.27154A.48545.48545,0,0,1,192.28363,198.57053Zm.25177.1615c.22479.05744.43665.13855.6546.20856,3.17182,1.01856,5.645,3.304,7.88568,5.46277,1.59992,1.5415-1.19262,3.18823-2.38244,4.42291-1.34015,1.39069-1.598-.49255-1.9364-1.16424-.03315-.06586-.063-.13337-.096-.19928-1.20972-2.41315-2.33612-4.86829-3.47083-7.31916Q192.86316,199.43763,192.5354,198.732Z"/><path class="cls-6" d="M222.15839,190.51389a1.751,1.751,0,0,0,2.1217-1.24652,2.29262,2.29262,0,0,0-.54791-2.50641,4.00038,4.00038,0,0,0-4.94214-1.03173,6.60641,6.60641,0,0,0-3.944,4.99774,7.056,7.056,0,0,0,.24841,3.56927c1.25409,3.67145,4.406,5.42127,8.06458,4.33344a14.682,14.682,0,0,1,4.74981-.68732c1.00867.0354,1.87879.35388,1.82209,1.51965a1.70808,1.70808,0,0,1-1.72895,1.74768c-.50116.02814-1.00518.00483-1.06921.00483-2.12958-.17108-3.72626-.05713-4.45642,1.82708-.55054,1.42072.369,2.312,1.328,3.06958,1.61261,1.27393,4.46814,1.42353,6.79737.57135a7.24573,7.24573,0,0,0,1.47448-.70776,7.5619,7.5619,0,0,0,3.48554-5.71606,9.11133,9.11133,0,0,0-.20392-3.004,6.99874,6.99874,0,0,0-5.99561-5.18305,15.5026,15.5026,0,0,0-6.84832.773c-.93128.36988-1.91028.50623-2.14832-.74395a1.398,1.398,0,0,1,.30023-1.37378A1.67,1.67,0,0,1,222.15839,190.51389Z"/><path class="cls-9" d="M430.23059,213.77091a1.284,1.284,0,0,0,1.5-.3778c.29541-.30664.59345-.61792.89063-.93415,2.02349-2.15344,4.00219-4.55761,4.7807-7.60614-2.98322,1.39423-5.99048,2.74048-8.93,4.22144-.67169.33838-2.55493.59625-1.16424,1.9364C428.146,211.81852,429.17426,213.36186,430.23059,213.77091Z"/><path class="cls-9" d="M437.56342,204.601a.48545.48545,0,0,0-.08417.16455l.27154-.16522C437.68634,204.59867,437.59436,204.56968,437.56342,204.601Z"/><path class="cls-6" d="M439.43988,197.41728c-2.91547,1.05627-15.31811,7.98712-18.15143,9.28961a56.27178,56.27178,0,0,0-12.00781,6.83484c-.93646.75158-1.96295,1.72052-1.13525,3.05914.79449,1.285,2.12292.93872,3.25689.49091,1.25476-.49555,2.4859-1.05134,3.71515-1.61115q.75961-.346,1.52-.6897c1.55329-.7005,4.08264-1.95636,5.64795-1.99743l3.75342,5.0299c1.32611.93463,1.041,1.65552.19244,2.90644-2.56756,3.785-5.5365,7.38531-6.59778,12.009a3.48987,3.48987,0,0,0,4.486,1.99786c.016-.01355.02972-.02905.04565-.04272a14.89281,14.89281,0,0,0,3.17127-3.88709c5.46008-9.41809,12.22644-16.24627,17.10821-25.84826.2666-.52436.53113-1.05176.786-1.59357.16815-.06531.79059-1.741.95709-1.81073a7.30458,7.30458,0,0,0,.7038-2.707c.04175-1.52612-.819-2.35565-2.44684-2.40192-.118-.00336-.21954-.0235-.34546-.01855A22.079,22.079,0,0,0,439.43988,197.41728Zm-1.96063,7.34832a.48545.48545,0,0,1,.08417-.16455c.03094-.03137.12292-.00238.18737-.00067Zm-9.00733,4.30866c2.93952-1.481,5.94678-2.82721,8.93-4.22144-.77851,3.04853-2.75721,5.4527-4.7807,7.60614-.29718.31623-.59522.62751-.89063.93415a1.284,1.284,0,0,1-1.5.3778c-1.05633-.409-2.08459-1.95239-2.92291-2.76025C425.917,209.67051,427.80023,209.41264,428.47192,209.07426Z"/><path class="cls-6" d="M441.83771,227.41184c-3.67145,1.25409-5.42127,4.406-4.33344,8.06458a14.682,14.682,0,0,1,.68732,4.74982,1.8761,1.8761,0,0,1-.69366,1.63781,1.41836,1.41836,0,0,1-.826.18427,2.02924,2.02924,0,0,1-.91046-.25092,1.70654,1.70654,0,0,1-.83722-1.478c-.02814-.50116-.00483-1.00519-.00483-1.06922.17109-2.12958.05713-3.72626-1.82708-4.45642a2.09744,2.09744,0,0,0-1.091-.1358,3.36854,3.36854,0,0,0-1.97863,1.4638,6.29163,6.29163,0,0,0-1.11231,3.99707,8.3407,8.3407,0,0,0,1.24872,4.27478,7.82119,7.82119,0,0,0,2.626,2.5235,8.20023,8.20023,0,0,0,6.094.75812,5.92943,5.92943,0,0,0,.63751-.21155,7.16587,7.16587,0,0,0,3.46521-2.75281,6.25182,6.25182,0,0,0,1.08033-3.03125,16.03422,16.03422,0,0,0-.64167-6.47265c-.04431-.12518-.08191-.25116-.13134-.37567-.36988-.93128-.50623-1.91028.744-2.14832a2.53977,2.53977,0,0,1,.41144-.04327,1.06188,1.06188,0,0,1,1.2002.85034,2.29983,2.29983,0,0,1-.02478.98578,1.751,1.751,0,0,0,1.24652,2.1217,2.29262,2.29262,0,0,0,2.50641-.54791,3.747,3.747,0,0,0,1.41638-3.44922,5.762,5.762,0,0,0-.38465-1.49292,6.70417,6.70417,0,0,0-5.96008-4.06207A7.02536,7.02536,0,0,0,441.83771,227.41184Z"/><path class="cls-9" d="M201.67365,424.34751c-2.6269,2.03894-5.45276,4.30628-6.838,7.63819l.06592-.01972c2.24493-.67712,4.49243-1.34656,6.73071-2.04358.88312-.275,1.76966-.53991,2.64667-.83319.71332-.23846,2.61408-.22345,1.43-1.74927C204.65778,425.98527,203.42877,422.98533,201.67365,424.34751Z"/><path class="cls-9" d="M194.63971,432.21171a.2502.2502,0,0,0,.03839-.05414,1.04276,1.04276,0,0,0,.06848-.09662l-.29242.12451a.63509.63509,0,0,0,.1604.02655C194.62207,432.21079,194.63434,432.2158,194.63971,432.21171Z"/><path class="cls-6" d="M223.79163,427.48844c.03991-.02325.08117-.04339.121-.06689,1.03461-.60944,2.18951-1.42108,1.56244-2.86456-.60193-1.38569-1.96631-1.23365-3.15277-.95313-1.85376.43823-3.6789.99951-5.51111,1.52588-1.63776.4704-4.32111,1.35034-5.87616,1.16638l-2.99286-5.51642c-.84381-.79864-.87714-1.37188-.4585-2.042a6.21935,6.21935,0,0,1,.68506-.86194c.44751-.49.90283-.97516,1.3595-1.45978,2.69055-2.85522,5.428-5.69659,6.89307-9.47833a3.48988,3.48988,0,0,0-4.153-2.62085,13.92763,13.92763,0,0,0-2.4964,2.02991,16.90906,16.90906,0,0,0-1.2511,1.3977c-4.929,6.22962-10.34924,10.993-15.33209,16.53205a68.08911,68.08911,0,0,0-6.31427,8.05835c-.17578.04052-1.03216,1.60956-1.207,1.65472-1.98053,3.1604-1.36877,5.08972,1.33118,5.37409a22.08,22.08,0,0,0,4.75317-.31171c.35114-.07251.84394-.20667,1.43689-.38483,4.53571-1.36285,15.2146-5.42383,17.85962-6.20428A56.76945,56.76945,0,0,0,223.79163,427.48844ZM194.74658,432.061a1.04276,1.04276,0,0,1-.06848.09662.2502.2502,0,0,1-.03839.05414c-.00537.00409-.01764-.00092-.02515.0003a.63509.63509,0,0,1-.1604-.02655Zm9.53235-2.97174c-.877.29328-1.76355.55817-2.64667.83319-2.23828.697-4.48578,1.36646-6.73071,2.04358l-.06592.01972c1.38526-3.33191,4.21112-5.59925,6.838-7.63819,1.75512-1.36218,2.98413,1.63776,4.03533,2.99243C206.893,428.86576,204.99225,428.85075,204.27893,429.08921Z"/><path class="cls-6" d="M193.68256,409.02366c3.33026-.62384,5.417-2.89069,5.52508-5.97052a7.72689,7.72689,0,0,0-.0794-1.38886,18.36634,18.36634,0,0,1-.17414-1.92517,13.08377,13.08377,0,0,1,.17542-2.87408c.0072-.03961.01764-.07666.02569-.11566.19318-.9386.63983-1.684,1.73969-1.46955a1.708,1.708,0,0,1,1.4815,1.9618c-.04406.5-.1394.99548-.14862,1.05883-.47485,2.083-.59118,3.67951,1.16877,4.67249a2.25465,2.25465,0,0,0,.692.251,2.96681,2.96681,0,0,0,2.53638-1.12488c1.82654-1.72986,2.28137-5.55457,1.05182-8.20581a7.74258,7.74258,0,0,0-7.665-4.50958c-.16571.00653-.3255-.00422-.494.01074a6.99871,6.99871,0,0,0-5.98968,5.18988c-.13361.631-.24927,1.26465-.33936,1.9a13.83291,13.83291,0,0,0,0,4.363c.03656.20837.072.41675.12177.62543a1.94151,1.94151,0,0,1-.12177,1.63867,1.18681,1.18681,0,0,1-.92273.38061c-1.33038.05878-1.78186-.75335-1.31317-2.00195a1.751,1.751,0,0,0-.9292-2.27862,1.99955,1.99955,0,0,0-1.09436-.30726,2.85912,2.85912,0,0,0-1.46478.48993,4.12522,4.12522,0,0,0-1.32691,1.29419,4.35484,4.35484,0,0,0-.40325,3.44873,6.84192,6.84192,0,0,0,7.4544,4.95472c.07532-.00855.1507-.02009.22608-.03119C193.50409,409.04746,193.59332,409.04038,193.68256,409.02366Z"/><path class="cls-9" d="M422.53742,418.317c.83483,1.07563,1.7135,2.17988,2.68231,3.20966a14.53128,14.53128,0,0,0,4.95587,3.62836c-.95172-3.15241-1.8526-6.32172-2.89642-9.4433-.23853-.71326-.22352-2.614-1.74933-1.43-.30835.23925-.70282.4884-1.11078.75018C423.03461,415.92027,421.48529,416.96134,422.53742,418.317Z"/><path class="cls-9" d="M430.40161,425.351a.48477.48477,0,0,0-.15076-.10693l.12458.29242C430.38635,425.47294,430.42822,425.38609,430.40161,425.351Z"/><path class="cls-6" d="M402.50671,407.72227a13.36119,13.36119,0,0,0,1.04352,1.41913,15.8666,15.8666,0,0,0,2.3841,2.32837c6.50329,5.14556,11.41241,10.82428,17.27075,15.98407a66.29418,66.29418,0,0,0,7.31964,5.66229c.04053.17578,1.60956,1.03222,1.65472,1.207,3.03156,1.89984,4.926,1.40875,5.32679-1.01691.017-.10309.0357-.2041.0473-.31421a22.08053,22.08053,0,0,0-.31171-4.75323c-.26764-1.29608-1.3468-4.457-2.564-7.88617-1.63483-4.60559-3.51923-9.69592-4.02509-11.41034a56.27053,56.27053,0,0,0-5.04126-12.8642c-.60944-1.0346-1.421-2.18951-2.86456-1.56244-1.38568.60187-1.23364,1.96625-.95313,3.15277.30329,1.2829.66687,2.55158,1.03565,3.819q.24618.84586.49023,1.69214c.4704,1.6377,1.35034,4.32111,1.16638,5.8761l-5.51642,2.99286c-1.11523,1.17828-1.78771.79272-2.90393-.22656-.40387-.36884-.80407-.74335-1.20373-1.11914a48.06982,48.06982,0,0,0-6.31262-5.33368,18.09817,18.09817,0,0,0-3.42176-1.79975,3.52013,3.52013,0,0,0-2.55828,2.51191A4.465,4.465,0,0,0,402.50671,407.72227Zm27.74414,17.52179a.48477.48477,0,0,1,.15076.10693c.02661.0351-.01526.12195-.02618.18549Zm-4.721-10.96234c1.52581-1.184,1.5108.71673,1.74933,1.43,1.04382,3.12158,1.9447,6.29089,2.89642,9.4433a14.53128,14.53128,0,0,1-4.95587-3.62836c-.96881-1.02978-1.84748-2.134-2.68231-3.20966-1.05213-1.35565.49719-2.39672,1.88165-3.28509C424.827,414.77012,425.2215,414.521,425.52985,414.28172Z"/><path class="cls-6" d="M399.85419,420.8624a15.21887,15.21887,0,0,1-4.231.07264c-.18939-.025-.3783-.03955-.56824-.07392-.99316-.17975-1.80859-.61981-1.5852-1.76538a2.19426,2.19426,0,0,1,.21765-.61926,1.67682,1.67682,0,0,1,1.74414-.86224c.5.04406.99548.13946,1.05884.14862,2.083.47485,3.6795.59118,4.67248-1.16877a2.2488,2.2488,0,0,0,.25281-.70159,2.97507,2.97507,0,0,0-1.12665-2.52674,7.04368,7.04368,0,0,0-5.35736-1.71,7.82422,7.82422,0,0,0-2.84845.65814,7.59121,7.59121,0,0,0-4.42822,5.981,9.409,9.409,0,0,0-.07062,2.178,6.96488,6.96488,0,0,0,2.015,4.15338,6.3763,6.3763,0,0,0,3.17493,1.83624c.84119.1781,1.68652.32923,2.5351.42169a12.6608,12.6608,0,0,0,4.35333-.2041,3.72419,3.72419,0,0,1,.83642-.11126,1.10321,1.10321,0,0,1,.9444.3847,1.345,1.345,0,0,1,.23853.77106c.05871,1.33038-.75342,1.78186-2.002,1.31323a1.75092,1.75092,0,0,0-2.27856.9292,2.29256,2.29256,0,0,0,.18262,2.55908c.0719.11493.15264.20764.22912.31116a3.80458,3.80458,0,0,0,1.55469,1.2749,4.63536,4.63536,0,0,0,2.95911.1441,6.28249,6.28249,0,0,0,3.16522-1.897,7.09835,7.09835,0,0,0,1.72137-6.05115C406.49921,422.49473,403.631,420.31077,399.85419,420.8624Z"/></svg>