<svg id="Layer_1" data-name="Layer 1" xmlns="http://www.w3.org/2000/svg" viewBox="0 0 457 458"><defs><style>.cls-1{fill:#ed6475;}.cls-2{fill:#dd9894;}.cls-3{fill:#fff;}.cls-4{fill:#070707;}</style></defs><path class="cls-1" d="M20.38165,157.81789c-.03176-.87707-.09121-1.75415-.09129-2.63122q-.006-66.17733-.06287-132.35458c-.00307-1.77081.76539-3.133,1.24364-4.66211a1.63025,1.63025,0,0,1,.94484-1.00057c1.49934-.31621,2.67541-1.36325,4.37313-1.36087q66.76957.09339,133.53934.05232c.63756,0,1.27511.0543,1.91268.08314.00962.95835.02489,1.9168.02615,2.87527.00053.4003.00284.99214-.3697,1.06219-2.1921.41223-1.52535,2.10848-1.52772,3.4045q-.04344,23.72711-.0224,47.45434c-.00046,1.312.23529,2.669-.819,3.82277a7.402,7.402,0,0,0,.87746.26789c1.82035.27022,1.83959.26611,1.86287,1.94791.01438,1.03739-.03864,2.07572-.061,3.11273-.64867-.01651-.9799-.52032-1.29585-.94781-1.2856-1.73942-2.9338-2.16894-5.09905-2.16094-23.72571.08768-47.45186.055-71.1779.055-.55919,0-1.119-.01591-1.67748.00367-1.64724.05772-1.64927.06317-1.69965,1.80966-.01152.39914-.00207.7989-.00206,1.19837q.0002,36.91106.0022,73.82213c.00015,1.46631-.22068,2.99164.99671,4.16967-.63743.0082-1.27493.01236-1.91226.02539-1.54319.03151-2.171.0704-2.07962-1.99654.00861-.19507-.17343-.39857-.36139-.79968-.96428,1.08205-2.17736.86615-3.34275.86642q-23.4294.00554-46.85875.02073c-1.29493.00232-2.98384-.65493-3.39163,1.53023-.06948.37226-.65959.37178-1.05888.36964C22.29344,157.85242,21.33756,157.83208,20.38165,157.81789Z"/><path class="cls-1" d="M299.077,15.96678c.95688-.03657,1.91379-.105,2.87067-.10513q66.07875-.0074,132.1574-.06166a9.01473,9.01473,0,0,1,4.60728,1.26592c1.495.8629,2.02285,2.63275,2.38846,4.30648a6.86981,6.86981,0,0,1,.01754,1.436q.0011,66.32559-.00161,132.6512c-.00006.79775-.05365,1.59552-.08229,2.39339-.87673.00056-1.75352.00728-2.63015-.00135-.40177-.00394-.95551-.03391-1.01185-.44659-.21771-1.5951-1.343-1.47136-2.47807-1.4708q-24.15285.01178-48.30569.00706c-1.02058.00015-2.14181-.22532-2.32719,1.337-.06756.56951-.69038.57474-1.167.57737-.95621.00531-1.91259-.0169-2.8691-.02764-.03221-1.03736-.09192-2.07479-.0921-3.11225q-.00706-37.427-.00679-74.85406c-.001-3.4246.34407-3.01723-3.12871-3.01852q-37.30312-.01389-74.60624-.00776c-1.11708-.00024-2.23412-.06773-3.3512-.10391-.00041-.87881-.055-1.76183.01271-2.63537.0823-1.0618.64763-1.38459,1.601-.92712.44843.21519.69914.954,1.54758.33264-1.03921-.96236-.811-2.237-.81145-3.46117q-.00817-23.0115.00193-46.023c.001-1.695-.29271-3.43759.83388-4.907a.88585.88585,0,0,0-1.04573.06613c-1.26769.60741-1.76979.43334-2.02657-.82772A14.22175,14.22175,0,0,1,299.077,15.96678Z"/><path class="cls-1" d="M162.25724,437.6136c-.87784.029-1.75569.08344-2.63353.0835q-66.08871.00506-132.17733.05685a10.03,10.03,0,0,1-4.68847-1.18907c-1.51654-.784-2.03969-2.55691-2.451-4.19073a6.044,6.044,0,0,1-.01879-1.43515q-.00093-66.21564.00133-132.43131c.00005-.7985.0454-1.597.06948-2.39556.79808-.01837,1.59964-.09147,2.39375-.04282,1.39745.08561,1.57183.44437.92312,1.83222-.12762.27312-.444.46619-.03014.96486,2.12356-1.49306,4.59816-.8608,6.97527-.86853,14.53812-.0473,29.07646-.02364,43.61473-.02384.55916,0,1.11876-.017,1.67737.00006.81931.02495,1.42969-.18725,1.43023-1.15885.00053-.94775.55621-1.22274,1.40043-1.19955.79822.02194,1.59746.00612,2.39635.00671.03925.95561.11238,1.91136.1126,2.86714q.00846,37.62141.00739,75.24282c.001,3.3639-.36611,3.01768,3.1241,3.01868q37.1382.0105,74.27642.00576c1.03741.00015,2.07484.03852,3.11226.05908a2.66312,2.66312,0,0,1,.49729,2.03812c-.05784.68354.305,1.75955-.48806,1.92884-1.78693.38137-1.42181,1.64079-1.42421,2.77512q-.02077,9.82438-.00678,19.64883,0,14.01777.00425,28.03553c.00092,1.14511-.35937,2.48267,1.4485,2.7277.421.05705.45356.60546.45706,1.00824C162.26846,435.85662,162.25945,436.73514,162.25724,437.6136Z"/><path class="cls-1" d="M441.00291,295.62467c.03916.87662.11243,1.7532.11255,2.62982q.00738,66.4266.06929,132.85313a8.387,8.387,0,0,1-1.34659,4.32334c-.78679,1.35321-2.48055,1.97173-4.10978,2.253a8.55869,8.55869,0,0,1-1.43658.01432q-66.2997.00132-132.59937-.002c-.87685-.00006-1.75366-.06777-2.63074-.10392a22.25028,22.25028,0,0,1,.01423-2.39509c.14087-1.30455.72963-1.58854,1.88223-.89263.44572.26913.767.58,1.29252-.06784-1.056-.75937-.84076-1.91648-.84106-3.01238q-.00654-23.01229.01137-46.02457c.00228-1.5-.27623-3.03051.33734-4.502.21545-.51674-.01256-1.03961-.60343-1.03925-2.01615.00123-1.91816-1.52686-2.08763-2.82345a16.3298,16.3298,0,0,1-.00943-2.15515c.29927.09767.75314.10383.87365.30735,1.0614,1.79286,2.72691,1.79254,4.53351,1.79005q36.44358-.05027,72.88726-.02575c3.11536-.00076,2.79362.27318,2.79453-2.86567q.01068-36.44751.02765-72.895c.00251-1.74506-.04478-3.313-1.83481-4.22772-.12529-.064-.08727-.44777-.1252-.68287a5.24914,5.24914,0,0,1,4.37991-.17412c.86077.37738.228,1.62664.49792,2.43876.04363.13133.19636.22643.4966.55473,1.03791-1.21387,2.49889-.9226,3.90337-.923q23.31245-.006,46.62486-.00272c.5579,0,1.11632-.01769,1.67359.00014.82548.02642,1.41626-.20809,1.41685-1.16909.00058-.95022.56758-1.21179,1.40457-1.18927C439.40854,295.63721,440.20593,295.62315,441.00291,295.62467Z"/><path class="cls-2" d="M441.00291,295.62467c-.797-.00152-1.59437.01254-2.39082-.00887-.837-.02252-1.404.23905-1.40457,1.18927-.00059.961-.59137,1.19551-1.41685,1.16909-.55727-.01783-1.11569-.00014-1.67359-.00014q-23.31245.0003-46.62486.00272c-1.40448.00035-2.86546-.29092-3.90337.923-.30024-.3283-.453-.4234-.4966-.55473-.2699-.81212.36285-2.06138-.49792-2.43876a5.24974,5.24974,0,0,0-4.37994.174c-2.75482-2.35438-5.21561-5.01931-7.86107-7.4916-4.14844-3.8769-7.85208-8.20512-12.05719-12.05463-4.12753-3.77849-7.73942-8.08957-11.88021-11.89175-4.23838-3.89181-7.95755-8.32435-12.22072-12.22532-4.07142-3.72557-7.80892-7.81742-11.68477-11.74678-6.04615-6.1297-12.32975-12.02586-18.21761-18.31458a27.15036,27.15036,0,0,1-3.06135-4.61812,7.549,7.549,0,0,1-.86847-4.31124q-.00549-20.75187-.00187-41.50376a18.8893,18.8893,0,0,1,.01654-1.91814,4.0478,4.0478,0,0,1,3.66452-3.08021c1.05294.02832,1.5228.80759,2.10647,1.39166,6.44385,6.44826,12.83829,12.946,19.28264,19.39375q13.12173,13.12876,26.29086,26.21014,13.379,13.36617,26.75331,26.73691c.36072.35853.6114,1.24706,1.49929.85635a8.69019,8.69019,0,0,0,.16051-2.84318q.01432-38.8648.012-77.7296c.00023-1.03738.06414-2.07477.0984-3.11215.9563.01083,1.91268.033,2.86889.02773.47662-.00263,1.09944-.00786,1.167-.57737.18538-1.56235,1.30661-1.33688,2.32719-1.337q24.15285-.00354,48.30569-.00706c1.135-.00056,2.26036-.1243,2.47807,1.4708.05634.41268.61008.44265,1.01185.44659.87663.00863,1.75342.00191,2.63015.00135.02228.87748.064,1.75506.06407,2.63265q.00479,66.25485-.00129,132.50972C441.09716,293.87177,441.03571,294.74821,441.00291,295.62467Z"/><path class="cls-2" d="M299.077,15.96678a14.22175,14.22175,0,0,0,.09676,2.3821c.25678,1.26106.75888,1.43513,2.02657.82772a.88585.88585,0,0,1,1.04573-.06613c-1.12659,1.46943-.83285,3.212-.83388,4.907q-.01419,23.01149-.00193,46.023c.00044,1.22417-.22776,2.49881.81145,3.46117-.84844.62141-1.09915-.11745-1.54758-.33264-.95342-.45747-1.51875-.13468-1.601.92712-.0677.87354-.01312,1.75656-.01294,2.63543-.9577.03013-1.91517.08608-2.87263.0864q-23.74062.00815-47.48121.00386-15.34746,0-30.69489.01555c-.80742.00186-1.72689-.30576-2.42367.39993a5.66086,5.66086,0,0,0,1.75076,2.344c4.059,4.1257,8.16922,8.201,12.26787,12.28762q12.88679,12.84889,25.7771,25.69424,12.7073,12.688,25.39024,25.40042,4.44907,4.456,8.86109,8.94886a1.93073,1.93073,0,0,1,.28835,2.74549c-1.28825,1.22095-2.47248,2.32811-4.6451,2.30523-13.90708-.14641-27.81688-.12383-41.72472-.01972a11.50737,11.50737,0,0,1-5.29579-1.49146,6.80793,6.80793,0,0,1-2.60165-1.47386,127.41148,127.41148,0,0,0-9.14873-9.246c-4.23591-4.01189-8.05547-8.4483-12.36486-12.40732-4.0076-3.68178-7.52618-7.85712-11.55383-11.5458-4.3007-3.93877-8.06759-8.43327-12.38168-12.38972-3.1429-2.88237-5.88188-6.20123-8.96521-9.1539-2.44852-2.34473-4.92025-4.65463-7.22774-7.14415-2.19561-2.36882-4.50893-4.62276-6.886-6.81894-1.77885-1.64344-3.75466-3.15584-4.92042-5.37974.02277-1.0379.07579-2.07623.06141-3.11362-.02328-1.6818-.04252-1.67769-1.86287-1.94791a7.402,7.402,0,0,1-.87746-.26789c1.05428-1.15376.81853-2.51079.819-3.82277q.00828-23.72718.0224-47.45434c.00237-1.296-.66438-2.99227,1.52772-3.4045.37254-.07005.37023-.66189.3697-1.06219-.00126-.95847-.01653-1.91692-.02615-2.87527.877-.03029,1.75393-.08721,2.63089-.0873q65.66854-.00649,131.33708.001C297.16506,15.85778,298.121,15.92883,299.077,15.96678Z"/><path class="cls-2" d="M81.13991,295.62259c-.79879-.00079-1.598.015-2.39625-.00691-.84422-.02319-1.3999.2518-1.40043,1.19955-.00054.9716-.61092,1.1838-1.43023,1.15885-.55861-.017-1.11821-.00006-1.67737-.00006-14.53827.0002-29.07661-.02346-43.61473.02384-2.37711.00773-4.85171-.62453-6.97527.86853-.41387-.49867-.09748-.69174.03014-.96486.64871-1.38785.47433-1.74661-.92312-1.83222-.79411-.04865-1.59567.02445-2.39375.04282-.02619-.7971-.0755-1.59428-.07557-2.39146q-.00553-66.51628.001-133.03253c.00011-.95667.0633-1.91333.0972-2.87012.95606.01406,1.91194.0344,2.86789.03952.39929.00214.9894.00262,1.05888-.36964.40779-2.18516,2.0967-1.52791,3.39163-1.53023q23.42931-.04228,46.85875-.02073c1.16539-.00027,2.37847.21563,3.34275-.86642.188.40111.37.60461.36139.79968-.09133,2.06694.53643,2.028,2.07962,1.99654.63733-.013,1.27483-.01719,1.9121-.02528a1.45673,1.45673,0,0,1,.99141.54644c1.995,2.01953,4.05571,3.9741,6.0536,5.99085,3.28337,3.31432,6.72072,6.48843,9.93864,9.84668,4.64877,4.85147,9.53521,9.45662,14.2036,14.28245,3.18812,3.29563,6.61456,6.375,9.76176,9.68582,4.411,4.6404,9.04832,9.04709,13.49708,13.64469,6.54,6.75875,13.24415,13.36118,19.98044,19.92545a18.18152,18.18152,0,0,1,3.78248,5.43922,8.44051,8.44051,0,0,1,.82732,3.81914c.00611,13.66921-.02138,27.33852.03659,41.00746a4.73305,4.73305,0,0,1-1.652,3.963c-1.29386,1.13257-2.078,1.25614-3.43872.21407a43.09287,43.09287,0,0,1-4.04579-4.03049q-12.26775-12.26254-24.5489-24.51168-10.76988-10.73934-21.55137-21.46711c-7.22146-7.224-14.40168-14.48923-21.63266-21.7036a8.96443,8.96443,0,0,0-2.99379-2.41133,8.73712,8.73712,0,0,0-.21914,2.9703q-.01217,38.84932-.01067,77.69861C81.23423,293.70845,81.1728,294.66552,81.13991,295.62259Z"/><path class="cls-2" d="M299.05783,374.6799a16.3298,16.3298,0,0,0,.00943,2.15515c.16947,1.29659.07148,2.82468,2.08763,2.82345.59087-.00036.81888.52251.60343,1.03925-.61357,1.47153-.33506,3.002-.33734,4.502q-.0351,23.01225-.01137,46.02457c.0003,1.0959-.215,2.253.84106,3.01238-.52553.64784-.8468.337-1.29252.06784-1.1526-.69591-1.74136-.41192-1.88223.89263a22.25028,22.25028,0,0,0-.01423,2.39509c-.79663.03-1.59352.08623-2.39039.08632q-66.13035.00636-132.2607.001c-.71766,0-1.43533-.04305-2.15318-.066.002-.87846.011-1.757.00341-2.63535-.0035-.40278-.036-.95119-.45706-1.00824-1.80787-.245-1.44758-1.58259-1.4485-2.7277q-.01116-14.01775-.00425-28.03553,0-9.82443.00678-19.64883c.0024-1.13433-.36272-2.39375,1.42421-2.77512.793-.16929.43022-1.2453.48806-1.92884a2.66344,2.66344,0,0,0-.49739-2.03832c.71744-.02563,1.435-.07282,2.15251-.0732q13.91438-.00725,27.82873-.00293,25.78956.00009,51.5791-.01233a4.68716,4.68716,0,0,0,2.70052-.29154,2.4855,2.4855,0,0,0-1.002-1.42671c-3.12022-3.15643-6.30258-6.25126-9.44256-9.38835q-11.68953-11.67894-23.35917-23.3778-12.267-12.27542-24.53872-24.54615-7.64838-7.64312-15.31163-15.27136c-.98693-.98621-1.45836-2.4107-.819-3.15894.98878-1.1572,1.8478-2.40259,3.81716-2.39,14.23364.09129,28.46815.04759,42.70238.053a3.43274,3.43274,0,0,1,1.65054.13166c2.15912,1.34221,4.61807,2.14382,6.40821,4.16724,2.24469,2.53723,4.79437,4.80354,7.19658,7.20264,3.24662,3.24242,6.62332,6.3728,9.78465,9.6755,4.75852,4.97124,9.76438,9.68525,14.54712,14.62495,3.02577,3.12514,6.27885,6.04339,9.25747,9.18655,4.46113,4.70744,9.17182,9.15767,13.66032,13.83284,5.25667,5.47522,10.7487,10.72383,16.0872,16.1217C297.52727,372.73711,298.70467,373.37315,299.05783,374.6799Z"/><path class="cls-3" d="M175.01025,307.58588c-6.2539,1.97143-9.19384,6.57617-9.5603,12.6029-.33374,5.49243,3.49243,8.66968,8.12476,10.80731a37.471,37.471,0,0,0,12.76172,2.85456c3.6958.41656,7.09716-.80365,10.34716-2.18152,6.36206-2.69745,7.69873-6.91132,4.52295-13.18219C196.54419,309.28137,184.8374,304.4881,175.01025,307.58588Zm8.04273,18.80719c-1.418-7.23584-.44824-12.33094,4.29614-16.85993C190.07227,316.05237,187.2644,320.65521,183.053,326.39307Z"/><path class="cls-3" d="M293.51465,316.76794c-11.32886-6.6347-30.03565-6.756-35.08057,12.31763-.96753,3.65759-.02929,5.78626,3.29932,7.62592A40.89359,40.89359,0,0,0,280.25,341.7403a25.83653,25.83653,0,0,0,10.94434-2.15094c4.75293-1.92743,7.62451-5.46985,7.978-10.31226C299.53052,324.36523,298.082,319.44275,293.51465,316.76794Zm-14.241,16.8797c-3.32056-5.33429-4.72192-10.1726-1.2063-16.32495C282.4043,322.82727,283.03125,327.746,279.27368,333.64764Z"/><path class="cls-4" d="M357.63965,246.57452c-.825-7.21118.33935-14.78247-4.49829-21.106-2.09766-2.74213-4.65552-5.81824-8.31763-3.95008-10.94092,5.58167-23.09277,9.1236-32.19434,17.91791-10.1289,9.78681-21.70043,17.70313-32.94506,26.05365-4.94214,5.0838-10.07788,3.24286-15.241.42621q-10.70216-3.55005-21.404-7.1001-3.75586-.65587-7.51172-1.31189-1.26489-.00567-2.53-.01153c-9.68091.13482-19.47144-.83771-28.80054,2.85052-2.32861,1.694-4.88525,1.9256-6.66772-.36853-5.37867-6.922-12.81275-11.9397-17.66773-19.31665-.73266-.73358-1.51758-1.42273-2.19043-2.20764-7.65039-8.92377-13.89209-19.12848-23.7478-26.04425-7.44116-5.22168-15.57373-8.40527-24.77612-8.46491l-.22681.1684q-2.50048,3.48147-5.00146,6.96307c-3.543,11.88587-5.91651,24.10822-3.66529,36.34,2.51367,13.65771-.28955,28.00165,5.75122,41.17615,1.47315,3.213-.385,6.55353-1.65918,9.63244-2.12036,5.12348-3.30761,10.16675-1.47192,15.78369,1.45264,4.44489-.51563,8.5824-2.75977,12.44684-3.38012,5.82074-5.44922,12.173-7.34423,18.5705a34.08711,34.08711,0,0,0,3.384,27.747,26.82608,26.82608,0,0,1,1.54956,4.03576c2.91431.17005,5.82886.48719,8.74341.48871q76.59594.04074,153.19189-.0072c20.49561-.02533,40.991-.271,61.48633-.416,2.71875-5.10547,2.31885-10.182.43726-15.52521a19.7666,19.7666,0,0,1,.45019-14.76508c4.88086-10.83673,4.10669-22.06549,2.89917-33.31732-.63916-5.95459-.67065-11.699,1.91358-17.21533C354.168,280.3736,359.67236,264.34607,357.63965,246.57452ZM196.68359,331.66913c-3.25,1.37787-6.65136,2.59808-10.34716,2.18152a37.471,37.471,0,0,1-12.76172-2.85456c-4.63233-2.13763-8.4585-5.31488-8.12476-10.80731.36646-6.02673,3.3064-10.63147,9.5603-12.6029,9.82715-3.09778,21.53394,1.69549,26.19629,10.90106C204.38232,324.75781,203.04565,328.97168,196.68359,331.66913Zm102.48877-2.392c-.35351,4.84241-3.22509,8.38483-7.978,10.31226A25.83653,25.83653,0,0,1,280.25,341.7403a40.89359,40.89359,0,0,1-18.5166-5.02881c-3.32861-1.83966-4.26685-3.96833-3.29932-7.62592,5.04492-19.07361,23.75171-18.95233,35.08057-12.31763C298.082,319.44275,299.53052,324.36523,299.17236,329.2771Z"/><path class="cls-4" d="M279.27368,333.64764c3.75757-5.90161,3.13062-10.82037-1.2063-16.32495C274.55176,323.475,275.95312,328.31335,279.27368,333.64764Z"/><path class="cls-4" d="M183.053,326.39307c4.21142-5.73786,7.01929-10.3407,4.29614-16.85993C182.60474,314.06213,181.635,319.15723,183.053,326.39307Z"/></svg>