<svg xmlns="http://www.w3.org/2000/svg" xmlns:xlink="http://www.w3.org/1999/xlink" viewBox="0 0 294 302"><defs><style>.cls-1{fill:none;}.cls-2{isolation:isolate;}.cls-3{clip-path:url(#clip-path);}.cls-4{fill:url(#linear-gradient);}.cls-5{mix-blend-mode:multiply;fill:url(#linear-gradient-2);}.cls-6{mix-blend-mode:screen;fill:url(#radial-gradient);}.cls-7{fill:#74c3d5;}.cls-8{fill:#fff;}</style><clipPath id="clip-path"><rect class="cls-1" x="-0.26124" width="294.57868" height="302.24252"/></clipPath><linearGradient id="linear-gradient" x1="101.11951" y1="0.38822" x2="192.20517" y2="299.45252" gradientUnits="userSpaceOnUse"><stop offset="0.11828" stop-color="#1e2f54"/><stop offset="1" stop-color="#000112"/></linearGradient><linearGradient id="linear-gradient-2" x1="195.29473" y1="249.95185" x2="133.65285" y2="143.76913" gradientUnits="userSpaceOnUse"><stop offset="0" stop-color="#85868a" stop-opacity="0"/><stop offset="1" stop-color="#424242"/></linearGradient><radialGradient id="radial-gradient" cx="143.22765" cy="136.28229" r="94.82169" gradientTransform="translate(17.48505 6.80145) scale(0.953 0.97779)" gradientUnits="userSpaceOnUse"><stop offset="0" stop-color="#0e68a9"/><stop offset="1" stop-color="#000112" stop-opacity="0"/></radialGradient></defs><g class="cls-2"><g id="Layer_1" data-name="Layer 1"><g class="cls-3"><rect class="cls-4" x="-0.26124" width="294.57868" height="302.24252"/><polygon class="cls-5" points="185.935 123.482 252.759 62.699 250.759 267.058 134.759 268.035 40.759 269.991 185.935 123.482"/><ellipse class="cls-6" cx="153.98058" cy="140.05702" rx="90.36479" ry="92.71575"/></g><path class="cls-7" d="M40.15232,61.31527V273.06683H251.90388V61.31527ZM249.70949,270.87249c-1.127,1.127-206.23578,1.127-207.36279,0-1.127-1.127-1.127-206.23584,0-207.36282,1.127-1.127,206.23577-1.127,207.36279,0C250.8365,64.63665,250.8365,269.74545,249.70949,270.87249Z"/><path class="cls-7" d="M48.92984,70.09281c-4.50808,4.508-4.50808,189.68844,0,194.19655,4.50807,4.508,189.68843,4.508,194.1965,0,4.50808-4.50811,4.50808-189.6885,0-194.19655C238.61827,65.5847,53.43791,65.5847,48.92984,70.09281ZM240.932,262.095c-5.63509,5.63508-184.17263,5.63508-189.80774,0-5.6351-5.63515-5.6351-184.17266,0-189.80778s184.17265-5.63512,189.80774,0S246.56706,256.45981,240.932,262.095Z"/><path class="cls-7" d="M57.70738,78.87035c-9.01617,9.01615-9.01617,167.62532,0,176.64141,9.01615,9.01621,167.62527,9.01621,176.64144,0,9.01615-9.01609,9.01615-167.62526,0-176.64141S66.72353,69.85416,57.70738,78.87035ZM232.15444,253.31742c-10.14318,10.14313-162.10952,10.14313-172.25268,0-10.14318-10.1432-10.14318-162.10954,0-172.25274,10.14316-10.14313,162.1095-10.14313,172.25268,0C242.29761,91.20788,242.29761,243.17422,232.15444,253.31742Z"/><path class="cls-7" d="M66.4849,87.64785c-13.52423,13.52423-13.52423,145.56217,0,159.08643,13.52424,13.5242,145.56216,13.5242,159.08638,0,13.52425-13.52426,13.52425-145.5622,0-159.08643S80.00914,74.12362,66.4849,87.64785Zm156.892,156.892c-14.65125,14.65124-140.04637,14.65124-154.69762,0s-14.65125-140.04636,0-154.69766c14.65125-14.65124,140.04637-14.65124,154.69762,0C238.02815,104.49352,238.02815,229.88864,223.3769,244.53988Z"/><path class="cls-7" d="M75.26243,96.42536c-18.03232,18.03231-18.03232,123.49908,0,141.53138s123.499,18.03231,141.53133,0,18.03231-123.49907,0-141.53138S93.29473,78.39305,75.26243,96.42536Zm139.337,139.337c-19.15933,19.15935-117.98323,19.15935-137.14256,0s-19.15935-117.98323,0-137.14258,117.98323-19.15935,137.14256,0S233.75871,216.603,214.59938,235.76234Z"/><path class="cls-7" d="M84.04,105.2029c-22.54039,22.54041-22.54039,101.43589,0,123.97631s101.4359,22.54041,123.97628,0,22.54039-101.4359,0-123.97631S106.58035,82.66251,84.04,105.2029ZM205.82184,226.98481c-23.6674,23.66745-95.9201,23.66745-119.5875,0s-23.66741-95.92012,0-119.58751,95.9201-23.6674,119.5875,0S229.48926,203.31741,205.82184,226.98481Z"/><path class="cls-7" d="M92.81749,113.98043c-27.04847,27.04846-27.04847,79.37278,0,106.42124s79.37275,27.04846,106.42122,0,27.04847-79.37278,0-106.42124S119.86594,86.932,92.81749,113.98043Zm104.22683,104.2269a72.14786,72.14786,0,1,1,0-102.0325A72.14793,72.14793,0,0,1,197.04432,218.20733Z"/><path class="cls-7" d="M96.38237,117.54536c-24.79443,24.79438-24.79443,74.497,0,99.29144s74.497,24.79444,99.29146,0,24.79441-74.49706,0-99.29144C170.87939,92.7509,121.1768,92.7509,96.38237,117.54536ZM195.217,216.38c-23.66741,23.66739-74.71038,23.66739-98.37778,0-23.66741-23.66746-23.66741-74.7104,0-98.3778,23.6674-23.66745,74.71037-23.66745,98.37778,0S218.88439,192.71252,195.217,216.38Z"/><path class="cls-7" d="M98.20971,119.37265c-20.28635,20.28639-20.28635,75.35047,0,95.6368s75.35042,20.28633,95.63676,0,20.28636-75.35041,0-95.6368C173.56013,99.08632,118.49606,99.08632,98.20971,119.37265Zm95.17993,95.18c-19.15933,19.15928-75.56377,19.15928-94.7231,0-19.15933-19.15935-19.15933-75.56381,0-94.72309,19.15933-19.15935,75.56377-19.15935,94.7231,0C212.549,138.98882,212.549,195.39328,193.38964,214.55263Z"/><path class="cls-7" d="M100.03706,121.2c-15.77828,15.77829-15.77828,76.20382,0,91.9821s76.2038,15.77828,91.98208,0,15.77826-76.20381,0-91.9821S115.81532,105.42172,100.03706,121.2Zm91.52524,91.52528c-14.65125,14.65124-76.41717,14.65124-91.06842,0s-14.65126-76.41721,0-91.06845,76.41717-14.65125,91.06842,0S206.21356,198.074,191.5623,212.72528Z"/><path class="cls-7" d="M101.86439,123.02735c-11.27019,11.27018-11.27019,77.05722,0,88.3274,11.27019,11.27024,77.05721,11.27024,88.32741,0,11.27019-11.27018,11.27019-77.05722,0-88.3274S113.13458,111.75718,101.86439,123.02735ZM189.735,210.89793c-10.14318,10.14319-77.27058,10.14319-87.41374,0s-10.14318-77.27056,0-87.41375c10.14316-10.14314,77.27056-10.14314,87.41374,0C199.87814,133.62737,199.87814,200.75473,189.735,210.89793Z"/><path class="cls-8" d="M116.13232,154.668H105.45361v-8.61426h32.7251V154.668H127.56348v32.75879H116.13232Z"/><path class="cls-8" d="M157.0542,187.42676,144.479,146.05371h12.05616c.33984,1.67627,4.06884,15.71338,4.4082,17.38965,1.37988,5.332,2.43018,9.84131,3.11279,14.04492h.20606c.80322-4.27685,2.01709-9.02148,3.33642-13.8457.38184-1.73975,4.34619-15.9126,4.72852-17.58887h11.63623L170.665,187.42676Z"/><path class="cls-7" d="M49.95208,41.05863a6.45119,6.45119,0,0,0,5.26874-2.55l2.80183,2.88621a10.57226,10.57226,0,0,1-15.31445.89724,9.65823,9.65823,0,0,1-2.92842-7.21618,9.75088,9.75088,0,0,1,2.98445-7.27223,10.05214,10.05214,0,0,1,7.29991-2.91389,10.34663,10.34663,0,0,1,8.07059,3.67072l-2.71812,3.08266a6.36914,6.36914,0,0,0-5.156-2.57835,6.01129,6.01129,0,0,0-4.21791,1.61122,5.615,5.615,0,0,0-1.751,4.34384,5.92473,5.92473,0,0,0,1.65342,4.38534,5.45328,5.45328,0,0,0,4.007,1.6534"/><polygon class="cls-7" points="61.47 44.926 61.47 25.338 65.841 25.338 65.841 41.03 74.192 41.03 74.192 44.926 61.47 44.926"/><path class="cls-7" d="M93.33181,42.2215a10.67325,10.67325,0,0,1-14.62818,0A9.67491,9.67491,0,0,1,75.73369,35.006a9.67637,9.67637,0,0,1,2.96994-7.21618,10.67327,10.67327,0,0,1,14.62818,0A9.67939,9.67939,0,0,1,96.3024,35.006a9.67792,9.67792,0,0,1-2.97059,7.21554m-1.48529-7.20169a6.41077,6.41077,0,0,0-1.68111-4.46974,5.54444,5.54444,0,0,0-8.267,0,6.76229,6.76229,0,0,0,0,8.92563,5.57232,5.57232,0,0,0,8.267,0,6.35983,6.35983,0,0,0,1.68111-4.45589"/><path class="cls-7" d="M105.18514,39.868a3.57764,3.57764,0,0,0,2.94157,1.35939,3.542,3.542,0,0,0,2.92973-1.35939,5.82126,5.82126,0,0,0,1.07855-3.71291V25.338h4.3715v10.9568A8.70157,8.70157,0,0,1,114.153,42.8379a9.08807,9.08807,0,0,1-12.06436-.01384,8.67773,8.67773,0,0,1-2.368-6.52924V25.338h4.3715v10.817a5.76564,5.76564,0,0,0,1.09306,3.71291"/><path class="cls-7" d="M136.00992,27.90164a9.18451,9.18451,0,0,1,2.80249,7.13247,9.63131,9.63131,0,0,1-2.73194,7.23q-2.73226,2.662-8.33758,2.66207h-6.69736V25.3378h6.92217q5.24006,0,8.04222,2.56384m-3.20857,11.64374a5.74567,5.74567,0,0,0,1.61119-4.39919,5.88947,5.88947,0,0,0-1.61119-4.442,6.8905,6.8905,0,0,0-4.94573-1.55519H125.4177V41.05837h2.77414a6.483,6.483,0,0,0,4.60951-1.513"/><polygon class="cls-7" points="163.697 25.338 168.069 25.338 168.069 44.926 163.697 44.926 154.366 32.652 154.366 44.926 149.994 44.926 149.994 25.338 154.085 25.338 163.697 37.948 163.697 25.338"/><path class="cls-7" d="M186.84359,44.926l-1.82151-4.23109h-8.211L174.98954,44.926h-4.65169l8.4635-19.58773h4.23109L191.49529,44.926Zm-5.91284-13.75928-2.46629,5.68872h4.90421Z"/><polygon class="cls-7" points="200.631 29.121 200.631 44.926 196.259 44.926 196.259 29.121 190.711 29.121 190.711 25.338 206.179 25.338 206.179 29.121 200.631 29.121"/><rect class="cls-7" x="209.37358" y="25.33768" width="4.37218" height="19.58775"/><polygon class="cls-7" points="225.795 37.808 230.783 25.338 235.519 25.338 227.645 44.926 223.945 44.926 216.071 25.338 220.807 25.338 225.795 37.808"/><polygon class="cls-7" points="251.968 25.338 251.968 29.233 242.216 29.233 242.216 33.268 250.988 33.268 250.988 36.996 242.216 36.996 242.216 41.059 252.276 41.059 252.276 44.926 237.844 44.926 237.844 25.338 251.968 25.338"/></g></g></svg>