<svg id="Layer_1" data-name="Layer 1" xmlns="http://www.w3.org/2000/svg" viewBox="0 0 382 466"><defs><style>.cls-1{fill:#416ba9;}.cls-2{fill:#74c3d5;}.cls-3{fill:none;}.cls-4{fill:#336;}</style></defs><polygon class="cls-1" points="65 399 65 330.715 14.917 330.715 14.917 330.714 14.915 330.714 14.915 448.659 132.854 448.659 132.854 399 65 399"/><polygon class="cls-1" points="250.804 399 250.804 448.66 368.743 448.66 368.743 330.715 319 330.715 319 399 250.804 399"/><polygon class="cls-1" points="132.854 145.351 132.854 94.841 14.917 94.841 14.917 212.791 65 212.791 65 145.351 132.854 145.351"/><polygon class="cls-1" points="319 212.789 368.74 212.789 368.74 94.838 250.802 94.838 250.802 145.351 319 145.351 319 212.789"/><polygon class="cls-2" points="132.856 145.351 250.799 145.351 250.799 94.841 132.856 94.841 132.854 94.841 132.854 145.351 132.856 145.351"/><polygon class="cls-2" points="132.854 399 132.854 448.659 132.854 448.659 250.799 448.659 250.799 399 132.854 399 132.854 399"/><rect class="cls-2" x="319" y="212.79089" width="49.74341" height="117.92273"/><polygon class="cls-2" points="65 330.715 65 330.714 65 212.792 14.917 212.792 14.917 330.714 14.917 330.715 65 330.715"/><path class="cls-3" d="M339.34955,88.6582c-1.75781-4.77411-4.64087-8.91583-8.09644-10.9588q-.13036-14.30191-.261-28.6037.13037,14.30182.26074,28.6045C334.70868,79.74268,337.59174,83.88409,339.34955,88.6582Z"/><path class="cls-4" d="M330.99213,49.0957q.13037,14.30182.261,28.6037c3.45557,2.043,6.33863,6.18469,8.09644,10.9588a30.90877,30.90877,0,0,1,1.03027,3.38825,29.65962,29.65962,0,0,1,.65674,3.71515,23.4946,23.4946,0,0,1-.25073,7.22656c-3.10571,15.22919-14.43433,24.77814-29.39575,24.77771-14.9563-.00037-26.29029-9.55872-29.38965-24.78558-1.86157-9.14539,2.67749-21.20038,9.51831-25.27869q.13989-14.30356.2793-28.60712-72.84926-.045-145.69873-.08465c-17.42188-.00513-34.84351.05261-52.26514.08166q.13331,14.30393.26709,28.60791c3.489,2.06256,6.394,6.26441,8.14673,11.09668q.175.48322.335.97443c.24341.74811.459,1.50854.645,2.27594a25.61089,25.61089,0,0,1,.406,10.94165c-3.106,15.22925-14.43457,24.7782-29.39575,24.77777-14.9563-.00037-26.28979-9.55829-29.38965-24.78552-1.86181-9.145,2.67749-21.20026,9.51831-25.27875q.1366-14.301.273-28.60193C37.424,48.95215,18.455,60.46852,15.79437,77.54437c-2.71966,17.45478-.8396,69.66138-.8396,69.66138h353.728s1.86954-51.8839-.71313-69.25751C365.40906,60.72306,348.30341,48.85913,330.99213,49.0957Z"/><path class="cls-2" d="M74.47186,108.28882A19.61361,19.61361,0,0,0,93.85272,89.24847c.13428-3.84735.16846-7.69824.24829-11.54827Q93.96772,63.395,93.833,49.092c-.01953-2.91638-.04492-5.83313-.05445-8.75-.01342-4.14539.13672-8.29767-.05127-12.43475C93.23993,17.18866,86.5744,10.697,77.02191,9.16833a16.64829,16.64829,0,0,0-6.48462,0,22.73512,22.73512,0,0,0-8.0559,4.243c-4.72193,3.56713-7.66187,8.357-7.74048,14.491-.09058,7.06543-.07032,14.13227-.09961,21.19794q-.13844,14.30009-.27442,28.60132c.085,3.84888.123,7.69952.26392,11.54632A19.6,19.6,0,0,0,74.47186,108.28882Z"/><path class="cls-2" d="M330.99213,49.0957q-.03333-9.46775-.0669-18.93542c-.04467-11.095-4.44923-18.74742-15.64477-20.22949a37.92823,37.92823,0,0,0-8.228.07837c-10.338,1.66334-15.14307,9.21246-15.19141,19.67132q-.04467,9.707-.063,19.414-.13953,14.30357-.2793,28.60712.115,5.31481.23071,10.62964c.24414,10.93329,9.12427,19.95868,19.63428,19.95727,10.5166-.00146,19.3894-9.0141,19.64233-19.957q.12233-5.31508.22681-10.63134Q331.12287,63.39709,330.99213,49.0957Z"/><path class="cls-1" d="M331.25287,77.7002q-.11316,5.31647-.22681,10.63134c-.25293,10.94287-9.12573,19.95551-19.64233,19.957-10.51.00141-19.39014-9.024-19.63428-19.95727q-.119-5.31472-.23071-10.62964c-6.84082,4.07831-11.37988,16.1333-9.51831,25.27869,3.09936,15.22686,14.43335,24.78521,29.38965,24.78558,14.96142.00043,26.29-9.54852,29.39575-24.77771a23.4946,23.4946,0,0,0,.25073-7.22656,29.65962,29.65962,0,0,0-.65674-3.71515,30.90877,30.90877,0,0,0-1.03027-3.38825C337.59174,83.88409,334.70868,79.74268,331.25287,77.7002Z"/><path class="cls-1" d="M44.84857,102.98035c3.09986,15.22723,14.43335,24.78515,29.38965,24.78552,14.96118.00043,26.2898-9.54852,29.39575-24.77777a25.61089,25.61089,0,0,0-.406-10.94165c-.186-.7674-.40161-1.52783-.645-2.27594q-.15967-.491-.335-.97443c-1.75293-4.83215-4.65821-9.03369-8.147-11.09588-.07983,3.85-.114,7.70092-.24829,11.54827a19.61946,19.61946,0,0,1-39.22192-.00055c-.14087-3.8468-.179-7.69744-.26392-11.54632C47.52606,81.78009,42.98676,93.83533,44.84857,102.98035Z"/><path class="cls-4" d="M132.8098,253.56055V214.043h-.73926q-1.94824,1.32348-3.91308,2.686-1.96729,1.36377-3.93262,2.72559-1.96583,1.363-3.91309,2.68652V208.98145q3.11573-2.14087,6.249-4.26319,3.13329-2.12183,6.249-4.30224h15.22363v53.14453Z"/><path class="cls-4" d="M162.60179,225.48926a32.275,32.275,0,0,1,2.70606-13.72412,22.0734,22.0734,0,0,1,31.1084-9.11035,20.17,20.17,0,0,1,7.51367,8.97412,33.56309,33.56309,0,0,1,2.62793,13.86035v2.88135a34.1744,34.1744,0,0,1-1.57617,10.687,24.15755,24.15755,0,0,1-4.51661,8.2539,20.24036,20.24036,0,0,1-6.98828,5.31446,21.49628,21.49628,0,0,1-9.11133,1.86914A19.8114,19.8114,0,0,1,165.24925,242.231a33.50575,33.50575,0,0,1-2.64746-13.86035Zm15.418,2.84228a31.99289,31.99289,0,0,0,.77832,7.61133,11.28094,11.28094,0,0,0,2.23926,4.78906,4.58214,4.58214,0,0,0,7.06641-.01953,11.30044,11.30044,0,0,0,2.25781-4.8081,31.85365,31.85365,0,0,0,.77832-7.57276v-2.80322a31.60589,31.60589,0,0,0-.77832-7.55322,10.80927,10.80927,0,0,0-2.25781-4.73047,4.71382,4.71382,0,0,0-7.10547,0,10.78187,10.78187,0,0,0-2.21973,4.71094,32.3152,32.3152,0,0,0-.75879,7.57275Z"/><path class="cls-4" d="M216.76683,225.48926a32.275,32.275,0,0,1,2.70606-13.72412,22.07339,22.07339,0,0,1,31.10839-9.11035,20.16993,20.16993,0,0,1,7.51368,8.97412,33.56309,33.56309,0,0,1,2.62793,13.86035v2.88135a34.1741,34.1741,0,0,1-1.57618,10.687,24.15736,24.15736,0,0,1-4.5166,8.2539,20.24036,20.24036,0,0,1-6.98828,5.31446,21.49628,21.49628,0,0,1-9.11133,1.86914A19.8114,19.8114,0,0,1,219.41429,242.231a33.50575,33.50575,0,0,1-2.64746-13.86035Zm15.418,2.84228a31.99289,31.99289,0,0,0,.77832,7.61133,11.28094,11.28094,0,0,0,2.23926,4.78906,4.58213,4.58213,0,0,0,7.0664-.01953,11.30032,11.30032,0,0,0,2.25782-4.8081,31.85365,31.85365,0,0,0,.77832-7.57276v-2.80322a31.60589,31.60589,0,0,0-.77832-7.55322,10.80916,10.80916,0,0,0-2.25782-4.73047,4.71381,4.71381,0,0,0-7.10546,0,10.78187,10.78187,0,0,0-2.21973,4.71094,32.3152,32.3152,0,0,0-.75879,7.57275Z"/><path class="cls-4" d="M113.22289,282.67383q8.56494,0,13.91894,3.251a19.34718,19.34718,0,0,1,7.88379,9.14942,35.0234,35.0234,0,0,1,2.53027,13.87988,35.76212,35.76212,0,0,1-2.58886,14.15235,19.9677,19.9677,0,0,1-7.96192,9.38281q-5.373,3.32958-13.78222,3.3291H90.758V282.67383ZM106.137,323.9043h4.36035a13.5119,13.5119,0,0,0,5.2168-.89551,8.12212,8.12212,0,0,0,3.48535-2.72461,12.19691,12.19691,0,0,0,1.96582-4.55566,28.72153,28.72153,0,0,0,.623-6.34668,25.40745,25.40745,0,0,0-1.12891-8.15625,9.4854,9.4854,0,0,0-3.60156-4.96387,11.5115,11.5115,0,0,0-6.56055-1.67383H106.137Z"/><path class="cls-4" d="M141.84691,335.81836l16.3916-53.14453H177.55l16.27442,53.14453h-16.3916l-2.6084-10.62891H159.75707l-2.68653,10.62891Zm25.15137-40.17969-4.63282,18.64942h9.92774l-4.51563-18.64942Z"/><path class="cls-4" d="M210.3391,335.81836V319.11621L192.508,282.67383h16.74121l8.75977,21.17969h.584l8.83789-21.17969H243.55l-17.832,35.97461v17.16992Z"/><path class="cls-4" d="M262.12914,319.85547a4.62774,4.62774,0,0,0,.64257,1.98535,6.15118,6.15118,0,0,0,1.59571,1.77148,7.94105,7.94105,0,0,0,2.55078,1.26563,11.92567,11.92567,0,0,0,3.50391.4668,11.44174,11.44174,0,0,0,4.2246-.64161,4.88082,4.88082,0,0,0,2.29688-1.71386,4.07065,4.07065,0,0,0,.71973-2.31641,3.39748,3.39748,0,0,0-1.92676-3.23144,20.94691,20.94691,0,0,0-5.626-1.71289l-6.69629-1.2461a26.16787,26.16787,0,0,1-7.68945-2.64746,13.54055,13.54055,0,0,1-5.27539-5.02246,15.2432,15.2432,0,0,1-1.9082-7.94238,15.45684,15.45684,0,0,1,2.72558-9.22754,17.14244,17.14244,0,0,1,7.61133-5.83985,29.588,29.588,0,0,1,11.3877-2.02441,26.5219,26.5219,0,0,1,12.01171,2.39453,16.97334,16.97334,0,0,1,7.04688,6.1709,15.24652,15.24652,0,0,1,2.35547,7.94238H277.70238a5.21348,5.21348,0,0,0-.93457-2.45312,6.27833,6.27833,0,0,0-2.43262-2.02442,8.97935,8.97935,0,0,0-4.06933-.81738,7.42005,7.42005,0,0,0-4.88575,1.34277,4.1671,4.1671,0,0,0-1.57715,3.29,3.24141,3.24141,0,0,0,1.86915,2.90039,15.64479,15.64479,0,0,0,5.13964,1.61621l7.04688,1.168a25.44422,25.44422,0,0,1,7.20215,2.29688,14.01137,14.01137,0,0,1,5.52929,4.88672,15.18806,15.18806,0,0,1,2.14063,8.5459,16.13158,16.13158,0,0,1-10.04492,15.418,30.46753,30.46753,0,0,1-12.65332,2.29688,32.98437,32.98437,0,0,1-10.57032-1.46,18.75587,18.75587,0,0,1-6.87207-3.91309,14.66566,14.66566,0,0,1-3.75683-5.45117,17.46539,17.46539,0,0,1-1.1875-6.07324Z"/></svg>