<svg id="Layer_1" data-name="Layer 1" xmlns="http://www.w3.org/2000/svg" viewBox="0 0 410 143"><defs><style>.cls-1{fill:#066;}.cls-2{fill:#3cc;}</style></defs><path class="cls-1" d="M8.8338,122.25282a10.11264,10.11264,0,0,1,6.94772-2.50779,10.15619,10.15619,0,0,1,7.023,2.558,8.8214,8.8214,0,0,1,2.85888,6.9215,8.58025,8.58025,0,0,1-2.884,6.82347,10.30544,10.30544,0,0,1-6.99788,2.50779,10.13756,10.13756,0,0,1-6.92264-2.50779A8.61315,8.61315,0,0,1,6,129.22448,8.82555,8.82555,0,0,1,8.8338,122.25282Z"/><path class="cls-1" d="M48.76353,135.67178a20.43146,20.43146,0,0,1-8.92887-8.47861q-3.18547-5.64252-3.1849-13.97067v-5.1159q0-8.37488,3.33536-13.97067a21.27231,21.27231,0,0,1,8.95395-8.376,27.62669,27.62669,0,0,1,12.43979-2.78365,26.29971,26.29971,0,0,1,12.792,3.00935,21.40321,21.40321,0,0,1,8.62794,8.65188,27.522,27.522,0,0,1,3.10966,13.46911V114.025H52.1992v2.45992a9.99676,9.99676,0,0,0,2.78479,7.398,9.54881,9.54881,0,0,0,7.04689,2.78365,12.228,12.228,0,0,0,4.33962-.72726,7.999,7.999,0,0,0,3.13474-2.03131,5.20239,5.20239,0,0,0,1.40436-2.9592H85.55738a16.31633,16.31633,0,0,1-1.52975,5.76792,18.49215,18.49215,0,0,1-4.18916,5.74284A21.304,21.304,0,0,1,72.64,136.82537,29.59027,29.59027,0,0,1,62.081,138.50559,29.75826,29.75826,0,0,1,48.76353,135.67178ZM70.60867,105.0471V104.696a12.075,12.075,0,0,0-1.12851-5.36667,8.71191,8.71191,0,0,0-3.18489-3.6135,8.81256,8.81256,0,0,0-4.8161-1.30405,8.73459,8.73459,0,0,0-8.10131,4.91755A11.64755,11.64755,0,0,0,52.1992,104.696v.35109Z"/><path class="cls-1" d="M122.12438,84.4057a14.4979,14.4979,0,0,1,5.19227,3.08459,12.2355,12.2355,0,0,1,3.13474,4.71464h.75234V65.41945h16.05214v72.083H131.35419v-8.57892h-.75233a10.90577,10.90577,0,0,1-2.05639,3.7366,13.18066,13.18066,0,0,1-3.43567,2.88624,17.50585,17.50585,0,0,1-4.54025,1.85577,21.33531,21.33531,0,0,1-5.36667.652,18.7885,18.7885,0,0,1-10.38339-2.8338,18.48682,18.48682,0,0,1-6.84741-8.25291,31.82377,31.82377,0,0,1-2.43256-13.093v-6.41994a31.19453,31.19453,0,0,1,2.45764-13.04279,18.06874,18.06874,0,0,1,17.306-11.08444A20.43388,20.43388,0,0,1,122.12438,84.4057ZM116.532,97.22279a9.34868,9.34868,0,0,0-3.31142,4.3134,18.46715,18.46715,0,0,0-1.17866,7.02182v4.3134a18.6729,18.6729,0,0,0,1.17866,7.04917,9.273,9.273,0,0,0,3.3365,4.33848,9.37682,9.37682,0,0,0,10.0323,0,9.64289,9.64289,0,0,0,3.38552-4.23817,16.79691,16.79691,0,0,0,1.22882-6.79839v-5.36667a15.572,15.572,0,0,0-1.2539-6.57042,9.37975,9.37975,0,0,0-3.46075-4.11277,9.14071,9.14071,0,0,0-5.01672-1.40664A8.54056,8.54056,0,0,0,116.532,97.22279Z"/><path class="cls-1" d="M178.80843,137.50247V113.57359L155.88381,69.03067h18.05837L186.98383,97.273h.652L200.779,69.03067h17.4565l-22.92463,44.14167v24.33013Z"/><path class="cls-1" d="M278.65611,124.00828a25.48448,25.48448,0,0,1-10.38339,10.91117q-6.79839,3.83691-16.47846,3.83692a33.21868,33.21868,0,0,1-16.47847-3.83692,25.40034,25.40034,0,0,1-10.43355-10.91117,36.37738,36.37738,0,0,1-3.58614-16.654V99.37949a36.89628,36.89628,0,0,1,3.58614-16.82955,25.20193,25.20193,0,0,1,10.43355-10.91117,33.41226,33.41226,0,0,1,16.47847-3.81184q9.6795,0,16.47846,3.862a25.66243,25.66243,0,0,1,10.38339,10.91116,36.59406,36.59406,0,0,1,3.58615,16.7794v7.97478A36.39188,36.39188,0,0,1,278.65611,124.00828ZM263.7074,89.22066a13.20069,13.20069,0,0,0-4.78988-5.99362,13.738,13.738,0,0,0-14.29668,0,13.19336,13.19336,0,0,0-4.78988,5.99362,25.05492,25.05492,0,0,0-1.73152,9.95821v8.22555a25.102,25.102,0,0,0,1.73152,9.93313,13.18325,13.18325,0,0,0,4.78988,6.0187,13.738,13.738,0,0,0,14.29668,0,13.19054,13.19054,0,0,0,4.78988-6.0187,25.12344,25.12344,0,0,0,1.73038-9.93313V99.17887A25.07628,25.07628,0,0,0,263.7074,89.22066Z"/><path class="cls-1" d="M332.153,121.70111q3.41288-3.31029,3.41287-9.78266V69.03067h16.45339v44.7937a24.26914,24.26914,0,0,1-3.51319,13.1431,23.28537,23.28537,0,0,1-9.93085,8.70431,39.176,39.176,0,0,1-30.47421,0,23.07527,23.07527,0,0,1-9.93085-8.70431,24.39538,24.39538,0,0,1-3.48811-13.1431V69.03067l16.45338,4.669v38.21873q0,6.57268,3.38552,9.83282a13.47195,13.47195,0,0,0,17.632-.05016Z"/><g id="yxKsuS"><path class="cls-2" d="M325.17645,83.64789a162.0796,162.0796,0,0,1-23.81161-9.22943c-4.46823-2.22067-8.87265-4.56841-12.53037-8.06268a9.73821,9.73821,0,0,1-1.46156-1.78286,3.53068,3.53068,0,0,1-.42349-3.24189c.84743-2.50242,1.5848-5.04191,2.40565-7.55368a1.23519,1.23519,0,0,0-.34466-1.45123Q277.68834,40.936,266.39658,29.51579a4.78513,4.78513,0,0,1-1.51049-4.98752,4.68619,4.68619,0,0,1,3.823-3.24177q37.15929-8.53266,74.31124-17.0972a9.03581,9.03581,0,0,1,9.51547,2.97494c2.371,2.70073,4.82075,5.33228,7.2324,7.99739q21.92687,24.23145,43.85909,48.458c1.33062,1.46856,1.9988,3.05826,1.342,5.02189-.66058,1.97489-2.18035,2.8289-4.12134,3.167-2.8175.49078-5.62513,1.03844-8.44378,1.52225a1.39311,1.39311,0,0,0-1.27567,1.10166q-3.542,11.40981-7.16993,22.79282a1.61022,1.61022,0,0,0,.25451,1.5982,6.8326,6.8326,0,0,1-2.90073,10.31958,1.34845,1.34845,0,0,0-.963,1.35828,90.55359,90.55359,0,0,0,.62343,17.01136c.38545,2.9993-.69851,4.529-3.70835,4.73217a21.14158,21.14158,0,0,1-14.1284-4.24413,6.17918,6.17918,0,0,1-.95-.91275c-1.53208-1.7144-1.49971-3.3785.05348-5.07833a90.6117,90.6117,0,0,0,10.47177-13.83155,1.42923,1.42923,0,0,0,.01036-1.7635,6.80055,6.80055,0,0,1,3.57339-10.09615,1.59933,1.59933,0,0,0,1.11312-1.17435c1.96887-6.34487,3.97066-12.67952,5.96037-19.01793.37225-1.18581.36591-1.19-.8443-.96855-4.3639.79849-8.72445,1.61628-13.0943,2.38075a1.38441,1.38441,0,0,0-1.26326,1.1199c-.73046,2.46279-1.57106,4.89339-2.27749,7.36264a3.726,3.726,0,0,1-2.63469,2.69284,21.62314,21.62314,0,0,1-7.18123.79783,88.87436,88.87436,0,0,1-15.79946-2.00766C334.62315,86.36281,329.075,84.82413,325.17645,83.64789Zm1.47241-6.02162c1.99325.62647,3.9699,1.31311,5.9828,1.86839a110.23816,110.23816,0,0,0,20.26121,3.96621,19.81581,19.81581,0,0,0,4.4985-.0345c.89976-.13152,1.99172-.21089,2.33125-1.18564.34969-1.00394-.53358-1.67163-1.17895-2.30867a15.04915,15.04915,0,0,0-2.61643-1.99815,81.06982,81.06982,0,0,0-12.91771-6.33056,191.31507,191.31507,0,0,0-20.29275-6.89773,132.72531,132.72531,0,0,0-19.12528-4.0927,21.72921,21.72921,0,0,0-7.98179-.00343c-1.56595.38789-1.86107,1.32493-.86278,2.5725a12.81813,12.81813,0,0,0,3.56919,2.8934C307.17256,71.35525,316.86224,74.62716,326.64886,77.62627Zm44.81086-9.668a22.60961,22.60961,0,0,1,.72375-2.26108c1.20863-2.77871.49347-5.23543-1.20362-7.528a21.73747,21.73747,0,0,0-1.96147-2.36751c-5.137-5.19987-11.43531-8.6451-17.9768-11.66663a115.57722,115.57722,0,0,0-25.78387-8.3671,75.49133,75.49133,0,0,0-18.67443-1.70666,22.56958,22.56958,0,0,0-9.47794,2.118c-2.46945,1.28088-4.32227,4.51228-4.05411,6.93977a12.09484,12.09484,0,0,1,6.398-3.19554,40.77316,40.77316,0,0,1,12.03742-.62846,111.7121,111.7121,0,0,1,44.44461,13.32305A45.50689,45.50689,0,0,1,367.515,61.08066,13.09311,13.09311,0,0,1,371.45972,67.9583Z"/></g><path class="cls-1" d="M311.13542,111.91845q0,6.57268,3.38552,9.83282a13.47195,13.47195,0,0,0,17.632-.05016q3.41288-3.31029,3.41287-9.78266V69.03067l16.45339,7.06659v37.72711a24.26914,24.26914,0,0,1-3.51319,13.1431,23.28537,23.28537,0,0,1-9.93085,8.70431,39.176,39.176,0,0,1-30.47421,0,23.07527,23.07527,0,0,1-9.93085-8.70431,24.39538,24.39538,0,0,1-3.48811-13.1431"/></svg>