<svg id="Layer_1" data-name="Layer 1" xmlns="http://www.w3.org/2000/svg" viewBox="0 0 506 505"><defs><style>.cls-1{fill:#416ba9;}.cls-2{fill:#74c3d5;}.cls-3{fill:#fff;}.cls-4{fill:#fcd088;}.cls-5{fill:#f9a106;}.cls-6{fill:#fefefe;}.cls-7{fill:#f9b587;}.cls-8{fill:#f46a03;}.cls-9{fill:#f99882;}.cls-10{fill:#f93406;}</style></defs><polygon class="cls-1" points="84.268 329.522 16.262 329.522 16.262 488.171 174.904 488.171 174.904 420.173 84.268 420.173 84.268 329.522"/><polygon class="cls-1" points="424.204 330.029 424.204 420.176 334.058 420.176 333.56 419.678 333.56 488.174 492.202 488.174 492.202 329.524 423.699 329.524 424.204 330.029"/><polygon class="cls-1" points="16.264 170.902 84.775 170.902 84.27 170.382 84.27 80.251 84.27 80.236 174.408 80.236 174.906 80.741 174.906 12.245 16.264 12.245 16.264 170.902"/><polygon class="cls-1" points="333.557 12.242 333.557 80.233 424.201 80.233 424.201 170.899 492.198 170.899 492.198 12.242 333.557 12.242"/><polygon class="cls-2" points="325.162 170.902 234.496 80.236 333.554 80.236 333.554 12.245 174.904 12.245 174.904 80.741 265.065 170.902 325.162 170.902"/><polygon class="cls-2" points="243.399 329.522 183.309 329.522 258.427 404.647 273.968 420.173 242.909 420.173 174.903 420.173 174.903 488.171 333.553 488.171 333.553 419.675 288.476 374.591 243.399 329.522"/><polygon class="cls-2" points="424.204 170.902 424.204 238.885 424.204 269.937 408.671 254.404 333.56 179.293 333.56 239.391 378.622 284.452 423.699 329.522 492.202 329.522 492.202 170.902 424.204 170.902"/><polygon class="cls-2" points="174.906 261.02 84.775 170.904 16.264 170.904 16.264 329.523 84.27 329.523 84.27 230.473 174.906 321.118 174.906 261.02"/><rect class="cls-3" x="50.87762" y="46.85333" width="406.70911" height="406.70911"/><path class="cls-4" d="M172.23626,402.58712c2.91836,3.827,6.7324,6.84976,10.39037,10.01254-3.59439.19894-7.14468.56205-10.37678,2.23257a5.572,5.572,0,0,0-3.18381,3.816,8.28352,8.28352,0,0,1-1.80139,3.69637,96.41779,96.41779,0,0,1-12.369-4.43021,108.59436,108.59436,0,0,1-22.85556-13.06781,95.29017,95.29017,0,0,1-20.702-20.78794,52.87651,52.87651,0,0,1-3.71365-5.40813,22.2954,22.2954,0,0,0,12.297-12.0713c1.77171-3.97868,3.273-8.06147,5.04057-12.04183a4.708,4.708,0,0,0,.29688-3.57129,134.18515,134.18515,0,0,1-5.72176-37.93556,16.06035,16.06035,0,0,1,.62277-4.79936c.1411-.474.17008-1.1812.98082-1.12707.63221.04221.72181.60108.85982,1.06018a18.84062,18.84062,0,0,1,.7783,4.59984c.394,8.79529.9111,17.58055,2.63107,26.26024a79.84033,79.84033,0,0,0,2.55445,10.44943c1.63505-2.25086,3.07749-4.22421,4.50608-6.2062a11.66416,11.66416,0,0,0,2.01862-8.5814,47.88668,47.88668,0,0,0-.88849-5.31884,25.12189,25.12189,0,0,1,3.01234-19.7818c1.27473-2.078,2.72225-4.07666,3.83281-6.2269,2.52677-4.89238,1.18094-8.34859-4.15672-10.46713a16.43064,16.43064,0,0,1-7.46932-5.67622c-3.55013-4.80956-7.54128-5.24123-12.38313-1.55193-2.93624,2.2373-5.78629,4.57245-8.676,6.86261-4.681,3.70972-9.80285,4.83711-15.55021,2.29436a98.43265,98.43265,0,0,1,3.79353-14.68493c1.00626-2.93479,2.27735-5.79134,3.44107-8.679a69.05769,69.05769,0,0,1,8.7751-15.16131,2.53888,2.53888,0,0,0,.56242-1.8177c.98738-.06261,1.22595-.64761,1.16357-1.44267a2.98947,2.98947,0,0,0,2.09346-1.45036c3.29538-3.95861,13.27017-3.99813,17.074.00415.57.59979,1.06509,1.38989,2.10061,1.44535-.06435.7988.18318,1.37994,1.1674,1.44665a2.89521,2.89521,0,0,0,.75829,1.97485,86.39915,86.39915,0,0,1,7.72011,12.93485,104.25646,104.25646,0,0,1,5.82867,15.84505,122.3421,122.3421,0,0,1,3.90538,21.93984c.11344,1.35934.33037,2.71512.32683,4.0864.06371,2.26212.28238,4.53912.2908,6.77733.033,8.77624.23625,17.54041.86868,26.29642a31.76854,31.76854,0,0,1,.77518,7.18767c-.38364-.03246-.77009-.04733-1.1505-.09993-8.60259-1.18974-13.32.91744-17.65951,7.90027-.32182.51785-.5723,1.07636-.92014,1.5774a2.46963,2.46963,0,0,0-.1606,2.68024,135.22578,135.22578,0,0,0,17.73212,28.74327c.26156.33216.883.59167.42412,1.31035a103.05431,103.05431,0,0,1-20.097-27.86524,21.74822,21.74822,0,0,0-1.58953,6.33612c-.74843,6.91709.69677,13.11383,7.50019,17.09112,4.428,2.58863,7.68387,5.89721,9.40215,10.52769,1.20907,3.25825,3.74846,5.36288,7.15808,6.61664a21.96871,21.96871,0,0,0,10.24092,1.19158A11.0123,11.0123,0,0,0,172.23626,402.58712ZM102.67312,273.1836c-.05888.02169-.16926.04667-.16794.06453a1.33814,1.33814,0,0,0,.068.26495l-.46988,2.17382c-1.077,1.28059-.81692,5.80272.4065,6.82606a1.43972,1.43972,0,0,0,1.90064-.05813c1.15484-.732,1.46671-1.95024,2.00164-2.99058a14.31467,14.31467,0,0,0,1.43537-9.03009c-.138-.84029-.4075-1.93685-1.67419-1.86107-1.28515.07688-2.14555.74914-2.005,2.11719a1.4106,1.4106,0,0,1-.75162,1.042c-1.1011.11165-.71331.89872-.77652,1.48121Zm35.80681-.0044-.71344-1.40731c-.29221-1.54345-.96006-3.02577-2.75787-3.19282-1.47942-.13744-1.75643,1.35438-1.79959,2.357-.15551,3.61406.23763,7.15656,2.50735,10.27923.57235.78745,1.05225,1.771,2.31126,1.59212,1.33627-.18986,1.4368-1.37093,1.48944-2.2439.098-1.62582.92487-3.3612-.46561-4.87592l-.468-2.17388C138.87762,273.31417,138.69643,273.24195,138.47993,273.1792Z"/><path class="cls-5" d="M92.21033,294.82035c5.74736,2.54275,10.86924,1.41536,15.55021-2.29436,2.88971-2.29016,5.73976-4.62531,8.676-6.86261,4.84185-3.6893,8.833-3.25763,12.38313,1.55193a16.43064,16.43064,0,0,0,7.46932,5.67622c5.33766,2.11854,6.68349,5.57475,4.15672,10.46713-1.11056,2.15024-2.55808,4.14891-3.83281,6.2269a25.12189,25.12189,0,0,0-3.01234,19.7818,47.88668,47.88668,0,0,1,.88849,5.31884,11.66416,11.66416,0,0,1-2.01862,8.5814c-1.42859,1.982-2.871,3.95534-4.50608,6.2062a79.84033,79.84033,0,0,1-2.55445-10.44943c-1.72-8.67969-2.23712-17.46495-2.63107-26.26024a18.84062,18.84062,0,0,0-.7783-4.59984c-.138-.4591-.22761-1.018-.85982-1.06018-.81074-.05413-.83972.65312-.98082,1.12707a16.06035,16.06035,0,0,0-.62277,4.79936,134.18515,134.18515,0,0,0,5.72176,37.93556,4.708,4.708,0,0,1-.29688,3.57129c-1.76758,3.98036-3.26886,8.06315-5.04057,12.04183a22.2954,22.2954,0,0,1-12.297,12.0713,87.41754,87.41754,0,0,1-8.93753-16.44134,117.22348,117.22348,0,0,1-6.38767-20.08684,153.48625,153.48625,0,0,1-2.2245-18.34625c-.26145-4.91438.25416-9.80271.11686-14.70379C90.91532,304.32787,91.14983,299.52349,92.21033,294.82035Z"/><path class="cls-5" d="M172.23626,402.58712a11.0123,11.0123,0,0,1-8.50052,4.94533,21.96871,21.96871,0,0,1-10.24092-1.19158c-3.40962-1.25376-5.949-3.35839-7.15808-6.61664-1.71828-4.63048-4.97411-7.93906-9.40215-10.52769-6.80342-3.97729-8.24862-10.174-7.50019-17.09112a21.74822,21.74822,0,0,1,1.58953-6.33612,103.05431,103.05431,0,0,0,20.097,27.86524c.45888-.71868-.16256-.97819-.42412-1.31035a135.22578,135.22578,0,0,1-17.73212-28.74327,2.46963,2.46963,0,0,1,.1606-2.68024c.34784-.501.59832-1.05955.92014-1.5774,4.33955-6.98283,9.05692-9.09,17.65951-7.90027.38041.0526.76686.06747,1.1505.09993.63619,3.46014,1.22622,6.9283,1.91672,10.379,2.6259,13.12269,6.65847,25.77179,14.63947,37.06387C170.29146,400.21068,171.29182,401.38179,172.23626,402.58712Z"/><path class="cls-4" d="M211.384,423.187c1.05231-.338,2.01043.24594,3.03516.26365a41.06737,41.06737,0,0,0,27.11023-9.27669c5.83642-4.64387,10.1481-10.35616,14.18652-16.31663a17.89586,17.89586,0,0,1,2.15774-2.50935c.48373-.48664.96118-1.33913,1.88259-.8382a1.81625,1.81625,0,0,1,.88419,2.04442,22.24817,22.24817,0,0,1-1.114,4.14152c-.83666,1.9739-1.91093,3.861-2.89553,5.77992-.1572.3064-.6205.5638-.341.93458.24106.31976.72783.27452,1.07927.17658a52.83454,52.83454,0,0,1,7.546-1.22147,34.66238,34.66238,0,0,1,8.07535-.07535c3.29962.35377,4.29675,2.91258,2.0468,5.32138a42.2997,42.2997,0,0,1-13.11655,9.75754,86.20213,86.20213,0,0,1-20.57395,6.23064c-3.84409.72537-7.845.95567-11.79192,1.30144-5.52817.48425-11.03943.21164-16.55874.22011C213.22879,426.962,212.19686,425.10023,211.384,423.187Z"/><path class="cls-4" d="M88.715,343.24489a36.55858,36.55858,0,0,1-19.0294,1.62877A25.5884,25.5884,0,0,1,60.434,341.636c-4.64911-2.80458-4.02366-8.13705-1.6791-11.34332,3.0453-4.16456,7.42424-6.79337,11.8921-9.39874,4.2905-2.502,9.0562-4.23057,13.11078-7.11391.92914-.66076,1.49679-1.89226,2.95741-1.82013.33381,1.62806-.2835,3.19579-.3624,4.80147-.19416,3.951.35771,7.87192.50648,11.80616a37.46583,37.46583,0,0,0,.503,5.14022C87.92588,336.86939,88.27594,340.064,88.715,343.24489Z"/><path class="cls-4" d="M154.781,314.15223c5.92988,3.43756,12.41424,6.01864,18.044,9.89975a24.82673,24.82673,0,0,1,7.05906,7.00679c2.023,3.204,2.00478,8.37492-2.58363,10.776a32.06952,32.06952,0,0,1-21.71621,2.89037C155.03987,334.54034,154.54117,324.35468,154.781,314.15223Z"/><path class="cls-5" d="M211.384,423.187c.8129,1.91327,1.84483,3.77506,1.61214,5.93409a167.76946,167.76946,0,0,1-20.96771-1.4212,132.10221,132.10221,0,0,1-24.76393-5.3554,8.28051,8.28051,0,0,0,1.80158-3.69621,5.572,5.572,0,0,1,3.18381-3.816c3.2321-1.67052,6.78239-2.03363,10.37678-2.23257a65.06048,65.06048,0,0,0,17.10355,8.138A98.49871,98.49871,0,0,0,211.384,423.187Z"/><path class="cls-3" d="M88.715,343.24489c-.439-3.18089-.78907-6.3755-1.35267-9.53716a37.46583,37.46583,0,0,1-.503-5.14022c-.14877-3.93424-.70064-7.85518-.50648-11.80616.0789-1.60568.69621-3.17341.3624-4.80147.62956-1.51372,2.00152-2.25388,3.47641-2.88717.13735,4.90067-.37826,9.789-.11681,14.70338a153.48625,153.48625,0,0,0,2.2245,18.34625C90.9515,342.07371,90.00375,343.13041,88.715,343.24489Z"/><path class="cls-3" d="M154.781,314.15223c-.23978,10.20245.25892,20.38811.80321,30.57293q-1.75164-.19463-3.5039-.38976c-.63243-8.75614-.83571-17.52031-.86868-26.29655-.00842-2.23821-.22709-4.51521-.2908-6.77733C152.2433,312.18366,153.7623,312.87887,154.781,314.15223Z"/><path class="cls-6" d="M139.05145,275.68759c1.3905,1.51472.56364,3.2501.46563,4.87592-.05264.873-.15317,2.054-1.48944,2.2439-1.259.1789-1.73891-.80467-2.31126-1.59212-2.26972-3.12267-2.66286-6.66517-2.50735-10.27923.04316-1.00261.32017-2.49443,1.79959-2.357,1.79781.16705,2.46566,1.64937,2.75787,3.19281-.60423-.23412-.84912-1.24852-1.71467-.82792-.71079.34541-.64827,1.12165-.679,1.76916a9.3281,9.3281,0,0,0,1.22247,5.18582c.32844.57188.71585,1.30552,1.51452,1.18084.84141-.13138.86153-.9415.9025-1.60137C139.04934,276.88277,139.04024,276.28463,139.05145,275.68759Z"/><path class="cls-6" d="M104.16831,270.69028c-.14056-1.368.71984-2.04031,2.005-2.11719,1.26669-.07578,1.53614,1.02078,1.67419,1.86107a14.31467,14.31467,0,0,1-1.43537,9.03009c-.53493,1.04034-.8468,2.25856-2.00164,2.99058a1.43972,1.43972,0,0,1-1.90064.05813c-1.22342-1.02334-1.48354-5.54547-.4065-6.82606.023.70867.02216,1.41893.07665,2.12549.04185.54259.17743,1.13738.82424,1.27578.66014.14124,1.02671-.39591,1.3168-.83955a9.00993,9.00993,0,0,0,1.3772-6.30749A1.32164,1.32164,0,0,0,104.16831,270.69028Z"/><path class="cls-5" d="M104.16831,270.69028a1.32164,1.32164,0,0,1,1.52992,1.25085,9.00993,9.00993,0,0,1-1.3772,6.30749c-.29009.44364-.65666.98079-1.3168.83955-.64681-.1384-.78239-.73319-.82424-1.27578-.05449-.70656-.05367-1.41682-.07665-2.12549l.46988-2.17382a.341.341,0,0,0,.0999-.32948l-.03305.02964q.38824-.74071.77662-1.481A1.4106,1.4106,0,0,0,104.16831,270.69028Z"/><path class="cls-5" d="M139.05147,275.68759c-.01123.597-.00213,1.19518-.03912,1.79082-.041.65987-.06109,1.47-.9025,1.60137-.79867.12468-1.18608-.609-1.51452-1.18084a9.3281,9.3281,0,0,1-1.22247-5.18582c.03069-.64751-.03183-1.42375.679-1.76916.86555-.4206,1.11044.5938,1.71467.82792l.71344,1.40732a.38212.38212,0,0,0,.10357.33451Z"/><path class="cls-6" d="M103.41669,271.73227q-.38835.74037-.77662,1.481C102.70338,272.631,102.31559,271.84392,103.41669,271.73227Z"/><path class="cls-6" d="M138.58348,273.51371a.38216.38216,0,0,1-.10355-.33451C138.69643,273.24195,138.87762,273.31417,138.58348,273.51371Z"/><path class="cls-6" d="M102.67312,273.1836a.341.341,0,0,1-.09989.32948,1.33748,1.33748,0,0,1-.068-.26495C102.50386,273.23027,102.61424,273.20529,102.67312,273.1836Z"/><path class="cls-7" d="M431.86273,270.56091a33.92689,33.92689,0,0,0-4.81491-10.49416,35.59673,35.59673,0,0,0-9.68468-9.63329c-6.6768-4.45283-14.158-6.6836-21.98035-8.03182a28.67468,28.67468,0,0,1-6.60157-1.53134c-.48011-.20656-1.09636-.3-1.17573-.96559-.08293-.69541.43439-1.10392.89778-1.45458a3.778,3.778,0,0,1,1.667-.59719,28.01845,28.01845,0,0,1,9.42669-.22824c.38336.06169.88136.416,1.15366-.0411.23743-.39855-.16214-.75215-.40211-1.0993a51.78722,51.78722,0,0,1-6.27009-11.39546c-.10372-.28051-.2484-.54649-.34354-.82947-1.06459-3.1664.64053-5.1903,3.8751-4.42119a33.9523,33.9523,0,0,1,13.51078,7.08832,69.41542,69.41542,0,0,1,13.316,15.04865c1.83673,2.69246,3.4388,5.55073,5.0568,8.38548,3.2711,5.731,5.63223,11.89273,8.02423,18.0046a157.283,157.283,0,0,1,7.21068,23.50337,128.87128,128.87128,0,0,1,2.79618,26.4217,102.46718,102.46718,0,0,1-.71339,11.37538c-.01843.18316-.29492.34038-.45126.50967-.65441.01112-1.30876.027-1.96321.03264-5.62611.04864-10.10581,2.13154-12.92935,7.21806-.81262,1.46389-1.71024,2.881-2.58269,4.31117-2.17843,3.57087-5.18768,5.90591-9.473,6.317a2.19493,2.19493,0,0,0-1.76253,1.03316,101.81007,101.81007,0,0,1-15.61565,18.19884,1.983,1.983,0,0,0-.752,1.86533,23.23119,23.23119,0,0,1-2.08379,12.923,10.28344,10.28344,0,0,0,.04844,8.20186,16.03578,16.03578,0,0,0,6.94295,8.38675c-.39214,1.96031-2.44122,2.15872-3.5639,3.3448-.59875.63257-1.801.71653-1.74681,1.93883-1.734-.26183-2.6013,1.48613-4.10065,1.76907-1.15563-6.98626-4.88116-11.98229-11.49347-14.67047-4.85026-1.97181-9.76731-1.48232-14.6055.00673-6.67737,2.05508-13.34332,3.72345-20.44267,2.4633a17.12356,17.12356,0,0,0-8.64494,1.10779c-6.09776,2.13822-7.13359,7.48582-2.27161,11.71993a45.49865,45.49865,0,0,0,5.32547,3.64478,17.0264,17.0264,0,0,1,5.31881,5.24128c1.61789,2.5718,3.06326,5.2898,5.40065,7.3395a105.4893,105.4893,0,0,1-18.33135,2.50807,77.796,77.796,0,0,1-21.46544-1.554,2.347,2.347,0,0,0-1.53454.32768c-.4209-.81733-1.04632-.79793-1.757-.42974-.43056-.86259-1.33377-1.02206-2.098-1.22128-4.84791-1.26375-8.52444-9.78509-6.23539-14.60554.34331-.723.88913-1.45693.5611-2.36445.75752-.25888,1.2016-.6986.90351-1.56637,1.90734-1.02164,2.53437-3.07675,3.71989-4.67043A95.87854,95.87854,0,0,1,329.824,378.40314a14.07542,14.07542,0,0,0,7.20494,8.77359c5.39523,2.71284,9.48145.90355,10.94707-4.91727.61228-2.43166.95668-4.93386,1.36125-7.414a13.1578,13.1578,0,0,1,8.26438-10.70915c1.26921-.53587,2.54063-1.07425,3.77293-1.688a9.4291,9.4291,0,0,0,4.46241-3.70961c5.19649-2.0018,9.90079-5.02458,14.99888-7.23049,1.21658-1.28039,2.93006-1.76938,4.40891-2.5798,3.37087-1.84723,6.46547-4.12045,9.79407-6.02277.66957-.38268,1.34051-.74342,2.03584-1.06828,2.7467,3.35462,5.335,4.07623,9.52153,2.59762,2.83273-1.0005,5.39428-2.6225,8.15483-3.74912a25.11809,25.11809,0,0,0,11.89025-10.26776,48.67782,48.67782,0,0,1,6.35769-7.764c1.20855-1.24425,2.36956-2.53542,3.53233-3.82319A14.72352,14.72352,0,0,0,440.205,305.336a86.32176,86.32176,0,0,1-1.41422-14.99057,51.40183,51.40183,0,0,0-.52393-6.25535A24.12873,24.12873,0,0,0,431.86273,270.56091ZM320.37408,391.10012l-1.032,1.16226c-1.3184.85253-2.43048,2.00989-1.93024,3.61206.41234,1.32071,1.87011.95031,2.82617.6186a16.96885,16.96885,0,0,0,7.91976-5.30765c.76491-.95635,2.118-2.09,1.19809-3.45326-1.014-1.5025-2.58713-.40106-3.75593-.02012-1.11544.36359-2.65685.373-3.12818,1.91443l-1.82784,1.25315C320.35232,390.70645,320.35223,390.88988,320.37408,391.10012Zm10.97842,30.43035a14.03365,14.03365,0,0,0,4.62185-.30049c1.9341.53335,3.30695-.8393,4.82-1.55766.72443-.34393,1.71069-1.1416,1.29134-2.283-.37752-1.02748-1.45843-1.1652-2.38042-1.29719a18.52017,18.52017,0,0,0-7.52026.83259,7.95052,7.95052,0,0,0-3.76231,1.95706c-.43757.45137-.85668,1.0102-.521,1.57158.36935.6178.75485,1.42633,1.70325,1.3586C330.19113,421.77013,330.77021,421.62772,331.3525,421.53047Zm37.91595-35.8156a169.35767,169.35767,0,0,0,25.18394-15.41274c2.71308-1.99947,3.35729-4.02236,2.60411-7.08188-.86411-3.51008-2.49366-6.1565-6.17192-7.20183-3.94779-1.12191-7.05707.3223-9.65331,3.14653-2.10169,2.2863-4.03693,4.72486-6.0726,7.07283a11.41581,11.41581,0,0,1-8.15437,4.32816,12.25248,12.25248,0,0,0-5.9255,1.90389c-2.41958,1.55931-3.88685,3.73956-3.62282,6.73477.25434,2.885,1.97073,4.64511,4.65089,5.54787,1.24692.42,2.50167.81846,3.73858,1.26616A3.34032,3.34032,0,0,0,369.26845,385.71487Zm27.9238-14.20048A144.84689,144.84689,0,0,1,375.996,385.731c2.71714-.03085,5.14286.01559,7.56088-.09965C391.09645,385.272,396.81222,379.40882,397.19225,371.51439Zm18.34612-22.84923c-9.03994.55749-15.81184,8.07063-14.278,15.71578A116.05325,116.05325,0,0,0,415.53837,348.66516Z"/><path class="cls-8" d="M406.18917,398.66319a16.03578,16.03578,0,0,1-6.94295-8.38675,10.28344,10.28344,0,0,1-.04844-8.20186,23.23119,23.23119,0,0,0,2.08379-12.923,1.983,1.983,0,0,1,.752-1.86533,101.81007,101.81007,0,0,0,15.61565-18.19884,2.19493,2.19493,0,0,1,1.76253-1.03316c4.28531-.41111,7.29456-2.74615,9.473-6.317.87245-1.43014,1.77007-2.84728,2.58269-4.31117,2.82354-5.08652,7.30324-7.16942,12.92935-7.21806.65445-.00565,1.3088-.02152,1.96321-.03264.54.67771.13018,1.4009.02959,2.06723-3.88839,25.75534-16.20916,46.77042-35.85378,63.65585-.90716.77974-1.83049,1.54124-2.761,2.29306C407.31942,398.55948,406.87331,399.03217,406.18917,398.66319Z"/><path class="cls-8" d="M355.36455,422.56873c-2.33739-2.0497-3.78276-4.7677-5.40065-7.3395a17.0264,17.0264,0,0,0-5.31881-5.24128,45.49865,45.49865,0,0,1-5.32547-3.64478c-4.862-4.23411-3.82615-9.58171,2.27161-11.71993a17.12356,17.12356,0,0,1,8.64494-1.10779c7.09935,1.26015,13.7653-.40822,20.44267-2.4633,4.83819-1.489,9.75524-1.97854,14.6055-.00673,6.61231,2.68818,10.33784,7.68421,11.49371,14.67035-3.1739,2.48363-6.83324,4.12976-10.36294,5.99908-5.04171,2.67007-10.44967,4.47968-15.6954,6.67046-4.479,1.25373-8.87448,2.80288-13.42752,3.79388C356.65171,422.31858,356.00719,422.43935,355.36455,422.56873Z"/><path class="cls-8" d="M431.86273,270.56091a24.12873,24.12873,0,0,1,6.40414,13.52916,51.40183,51.40183,0,0,1,.52393,6.25535A86.32176,86.32176,0,0,0,440.205,305.336a14.72352,14.72352,0,0,1-3.67367,13.49487c-1.16277,1.28777-2.32378,2.57894-3.53233,3.82319a48.67782,48.67782,0,0,0-6.35769,7.764,25.11809,25.11809,0,0,1-11.89025,10.26776c-2.76055,1.12662-5.3221,2.74862-8.15483,3.74912-4.18651,1.47861-6.77483.757-9.52153-2.59762,3.19338-2.87262,6.81962-5.18566,10.16148-7.86893,9.5977-7.70635,17.632-16.6641,22.55861-28.10153,4.69118-10.89091,5.20153-22.11162,2.46827-33.55984C432.12443,271.72623,431.996,271.143,431.86273,270.56091Z"/><path class="cls-7" d="M402.99139,406.13743a32.34622,32.34622,0,0,1,8.45708,15.632,21.65323,21.65323,0,0,1,.21991,9.87381c-.87342,3.723-4.74265,5.65544-8.03177,5.31921-5.665-.57914-10.32292-3.464-14.8179-6.65323-4.35131-3.08734-8.00045-7.16629-13.0696-9.23962a1.65331,1.65331,0,0,1-.79564-.92909c1.01273-.72088,2.27565-.64566,3.39439-1.07663,4.19032-1.61427,8.08244-3.85625,12.18016-5.663,1.45773-.64274,2.74143-1.67146,4.18013-2.36795C397.609,409.62869,400.11494,407.572,402.99139,406.13743Z"/><path class="cls-7" d="M352.09239,361.05677c1.0721-6.40055.94353-12.96754,2.51169-19.28518a25.76081,25.76081,0,0,1,3.13075-7.94955c2.0197-3.10772,6.09408-5.34931,9.469-4.06929a14.255,14.255,0,0,1,5.2565,3.87093,28.47709,28.47709,0,0,1,7.45433,14.73492C370.72667,352.78029,361.57283,357.27633,352.09239,361.05677Z"/><path class="cls-8" d="M365.837,358.73866a9.4291,9.4291,0,0,1-4.46241,3.70961c-1.2323.61376-2.50372,1.15214-3.77293,1.688a13.1578,13.1578,0,0,0-8.26438,10.70915c-.40457,2.48017-.749,4.98237-1.36125,7.414-1.46562,5.82082-5.55184,7.63011-10.94707,4.91727a14.07542,14.07542,0,0,1-7.20494-8.77359,109.02112,109.02112,0,0,1,16.39752-10.52953c1.62491-.88581,3.26613-1.7417,4.89988-2.61129Z"/><path class="cls-3" d="M402.99138,406.13743c-2.87644,1.43458-5.38241,3.49126-8.28323,4.89552-1.4387.69649-2.7224,1.72521-4.18013,2.36795-4.09772,1.80671-7.98984,4.04869-12.18016,5.663-1.11874.431-2.38166.35575-3.39439,1.07663a7.01114,7.01114,0,0,1-4.23378-1.75517c5.24575-2.19079,10.65371-4.0004,15.69542-6.67047,3.5297-1.86932,7.189-3.51545,10.36294-5.99908,1.49911-.28282,2.36638-2.03078,4.1004-1.76894Q401.93468,405.04237,402.99138,406.13743Z"/><path class="cls-3" d="M365.837,358.73866l-14.71558,6.52366a7.94712,7.94712,0,0,1,.97089-4.20557c9.4805-3.78042,18.63434-8.27646,27.82234-12.69815q.46083,1.57441.92136,3.14952C375.73781,353.71408,371.03351,356.73686,365.837,358.73866Z"/><path class="cls-8" d="M369.26845,385.71487a3.34032,3.34032,0,0,1-3.423.30376c-1.23691-.4477-2.49166-.84617-3.73858-1.26616-2.68016-.90276-4.39655-2.66282-4.65089-5.54787-.264-2.99521,1.20324-5.17546,3.62282-6.73477a12.25248,12.25248,0,0,1,5.9255-1.90389,11.41581,11.41581,0,0,0,8.15437-4.32816c2.03567-2.348,3.97091-4.78653,6.0726-7.07283,2.59624-2.82423,5.70552-4.26844,9.65331-3.14653,3.67826,1.04533,5.30781,3.69175,6.17192,7.20183.75318,3.05952.109,5.08241-2.60411,7.08188A169.35767,169.35767,0,0,1,369.26845,385.71487Z"/><path class="cls-8" d="M397.19225,371.51439c-.38,7.89443-6.0958,13.75764-13.63536,14.117-2.418.11524-4.84374.0688-7.56088.09965A144.84689,144.84689,0,0,0,397.19225,371.51439Z"/><path class="cls-8" d="M415.53837,348.66516a116.05325,116.05325,0,0,1-14.278,15.71578C399.72653,356.73579,406.49843,349.22265,415.53837,348.66516Z"/><path class="cls-6" d="M322.47172,389.62644c.47133-1.54144,2.01274-1.55084,3.12818-1.91443,1.1688-.38094,2.74194-1.48238,3.75593.02012.91995,1.36321-.43318,2.49691-1.19809,3.45326A16.96885,16.96885,0,0,1,320.238,396.493c-.95606.33171-2.41383.70211-2.82617-.6186-.50024-1.60217.61184-2.75953,1.93022-3.61205-.12166.59769-.82791,1.20547-.13233,1.79291.5141.43419,1.1489.14316,1.71035-.05748a9.97814,9.97814,0,0,0,4.49627-3.15327c.40426-.50059.93252-1.12094.522-1.75328-.43384-.66821-1.18209-.36593-1.80416-.13872C323.57282,389.15755,323.02531,389.40031,322.47172,389.62644Z"/><path class="cls-6" d="M331.3525,421.53047c-.58229.09725-1.16137.23966-1.74762.28153-.9484.06773-1.3339-.7408-1.70325-1.3586-.33565-.56138.08346-1.12021.521-1.57158a7.95052,7.95052,0,0,1,3.76231-1.95706,18.52017,18.52017,0,0,1,7.52026-.83259c.922.132,2.0029.26971,2.38042,1.29719.41935,1.14136-.56691,1.939-1.29134,2.283-1.513.71836-2.88586,2.091-4.81994,1.55766.59794-.273,1.20614-.526,1.79074-.82507.53758-.275,1.14749-.61293,1.02218-1.31146-.10995-.61281-.7727-.70884-1.29117-.77917a9.49168,9.49168,0,0,0-6.20655,1.27552C330.21748,420.21759,330.168,420.92125,331.3525,421.53047Z"/><path class="cls-8" d="M331.3525,421.53047c-1.18451-.60922-1.135-1.31288-.06293-1.94067a9.49168,9.49168,0,0,1,6.20655-1.27552c.51847.07033,1.18122.16636,1.29117.77917.12531.69853-.4846,1.03646-1.02218,1.31146-.5846.29911-1.1928.552-1.79074.82507A14.0338,14.0338,0,0,1,331.3525,421.53047Z"/><path class="cls-8" d="M322.47172,389.62644c.55359-.22613,1.1011-.46889,1.66242-.67389.62207-.22721,1.37032-.52949,1.80416.13872.41054.63234-.11772,1.25269-.522,1.75328a9.97814,9.97814,0,0,1-4.49627,3.15327c-.56145.20064-1.19625.49167-1.71035.05748-.69558-.58744.01067-1.19522.13233-1.79291l1.032-1.16227a.40234.40234,0,0,0,.2698-.22053Z"/><path class="cls-6" d="M320.64388,390.87959a.40234.40234,0,0,1-.2698.22053C320.35223,390.88988,320.35232,390.70645,320.64388,390.87959Z"/><path class="cls-9" d="M177.49184,130.72657a33.92646,33.92646,0,0,0-6.3589,9.63717,35.59666,35.59666,0,0,0-3.05239,13.31452c-.24709,8.02161,1.81706,15.55046,4.81064,22.902a28.67428,28.67428,0,0,1,2.19243,6.41242c.07867.5167.32535,1.0891-.19753,1.50853a1.62882,1.62882,0,0,1-1.7093.00753,3.778,3.778,0,0,1-1.38859-1.0988,28.01842,28.01842,0,0,1-5.18007-7.87917c-.15043-.358-.11319-.968-.64512-.95731-.46382.00933-.55254.53546-.72021.92274a51.78728,51.78728,0,0,1-6.35405,11.34887c-.18319.23639-.33238.49987-.5222.7303-2.124,2.57837-4.74354,2.20189-5.80181-.94994a33.95231,33.95231,0,0,1-1.13125-15.21531,69.41547,69.41547,0,0,1,5.72726-19.26076c1.31339-2.98294,2.8916-5.85445,4.44143-8.727,3.13326-5.80748,7.11346-11.07059,11.035-16.33351A157.28374,157.28374,0,0,1,188.769,108.53712,128.87121,128.87121,0,0,1,209.71252,92.188a102.467,102.467,0,0,1,10.031-5.41175c.16519-.08124.44486.07023.67122.11336.3556.54949.71519,1.0964,1.06617,1.64881,3.01729,4.74883,7.15453,7.44873,12.96473,7.15433,1.67216-.08473,3.34962-.07257,5.02479-.08867,4.18272-.04015,7.75612,1.27848,10.37178,4.69773a2.19493,2.19493,0,0,0,1.8091.94925,101.80977,101.80977,0,0,1,23.70445,3.62561,1.983,1.983,0,0,0,1.9808-.3485,23.2312,23.2312,0,0,1,12.06929-5.0674,10.28352,10.28352,0,0,0,6.93484-4.37959,16.03583,16.03583,0,0,0,3.4448-10.32839c1.871-.70414,3.1233.92985,4.72372,1.25521.85354.17351,1.56076,1.14942,2.56938.45685.695,1.61007,2.63719,1.42147,3.6704,2.54421-5.31757,4.67621-7.58675,10.48057-6.37038,17.514.89224,5.15916,3.90859,9.07306,7.73149,12.39131,5.27611,4.57965,10.218,9.35416,12.90389,16.04556a17.12358,17.12358,0,0,0,5.513,6.75051c5.04009,4.04378,10.12622,2.09415,11.14766-4.27164a45.50047,45.50047,0,0,0,.27614-6.44739,17.02623,17.02623,0,0,1,1.63453-7.28622c1.32674-2.7334,2.8688-5.39773,3.37187-8.46556a105.48957,105.48957,0,0,1,11.82508,14.23012,77.796,77.796,0,0,1,10.03567,19.03853,2.347,2.347,0,0,0,1.0898,1.12894c-.471.78953-.1237,1.31.56472,1.71843a2.78883,2.78883,0,0,0,.07335,2.42649c1.49189,4.78262-3.795,12.41017-9.09662,13.01742-.79515.09109-1.70674.01611-2.30339.77454-.62039-.50593-1.22846-.6502-1.80721.06179-1.87592-1.07824-3.95165-.5233-5.93122-.68638a95.87845,95.87845,0,0,1-28.42107-6.67307,14.07537,14.07537,0,0,0,3.63451-10.75535c-.55164-6.01362-4.24854-8.52432-9.96361-6.68911-2.38749.76665-4.69314,1.798-7.01192,2.76654a13.15784,13.15784,0,0,1-13.45982-1.34877c-1.12614-.79365-2.25556-1.58786-3.42826-2.309a9.42916,9.42916,0,0,0-5.5086-1.82475c-4.44757-3.35109-9.50124-5.74443-14.07-8.90405-1.73012-.35517-3.05146-1.55064-4.52148-2.377-3.35071-1.88355-6.9168-3.30732-10.2919-5.12585-.67894-.36581-1.34-.74438-1.98348-1.16262,1.394-4.10545.63724-6.68372-2.83209-9.45445-2.34748-1.87475-5.07895-3.19062-7.49528-4.9374a25.118,25.118,0,0,0-15.00318-4.65932,48.67834,48.67834,0,0,1-9.95188-1.28854c-1.69519-.36747-3.40508-.66977-5.113-.97537a14.72351,14.72351,0,0,0-13.39558,4.02066,86.32175,86.32175,0,0,1-11.9736,9.12963,51.40341,51.40341,0,0,0-5.03142,3.75349A24.12866,24.12866,0,0,0,177.49184,130.72657Zm161.26838,30.85336,1.53225.261c1.42088.66789,2.99132.99945,4.08638-.27256.9027-1.04855-.18275-2.08974-.97-2.72563a16.96889,16.96889,0,0,0-8.69357-3.91352c-1.21621-.14325-2.89408-.6919-3.56434.8099-.73873,1.65529,1.02814,2.4077,1.96968,3.19809.89858.75429,1.72191,2.05743,3.27936,1.64206l2.03034.88831C338.43764,161.80663,338.59336,161.70967,338.76022,161.57993Zm20.01736-25.41334a14.034,14.034,0,0,0-2.6998-3.76336c-.57045-1.92347-2.46153-2.36246-3.87148-3.26649a1.91055,1.91055,0,0,0-2.62049.11173c-.67227.86387-.21739,1.854.1583,2.70629a18.52007,18.52007,0,0,0,4.68451,5.94162,7.95055,7.95055,0,0,0,3.651,2.15765c.61451.13258,1.31044.19265,1.60931-.38914.32893-.64024.81116-1.39507.252-2.16411C359.59529,137.02541,359.16812,136.60931,358.77758,136.16659Zm-50.45087-13.232a169.35759,169.35759,0,0,0-26.40133-13.21943c-3.132-1.2448-5.18943-.72147-7.38747,1.53609-2.52174,2.59-3.90564,5.37279-2.84708,9.04727,1.13614,3.94372,4.00645,5.81846,7.77654,6.52783,3.052.57422,6.14511.92664,9.2145,1.41221a11.41579,11.41579,0,0,1,7.98643,4.63072,12.25269,12.25269,0,0,0,4.75011,4.02156c2.60317,1.22854,5.22955,1.32046,7.63176-.488,2.31385-1.74193,2.8996-4.12955,2.248-6.88157-.30315-1.28035-.62872-2.556-.903-3.84248A3.34033,3.34033,0,0,0,308.32671,122.93459Zm-26.82183-16.18584a144.84628,144.84628,0,0,1,23.27687,10.468c-1.46345-2.28956-2.70715-4.37271-4.084-6.36378C296.40467,104.64463,288.40546,102.89539,281.50488,106.74875Zm-29.09531-3.48292c5.25491,7.3768,15.213,9.14956,20.88964,3.80384A116.05339,116.05339,0,0,0,252.40957,103.26583Z"/><path class="cls-10" d="M299.78551,84.75283a16.03583,16.03583,0,0,1-3.4448,10.32839,10.28352,10.28352,0,0,1-6.93484,4.37959,23.2312,23.2312,0,0,0-12.06929,5.0674,1.983,1.983,0,0,1-1.9808.3485,101.80977,101.80977,0,0,0-23.70445-3.62561,2.19493,2.19493,0,0,1-1.8091-.94925c-2.61566-3.41925-6.18906-4.73788-10.37178-4.69773-1.67517.0161-3.35263.00394-5.02479.08867-5.8102.2944-9.94744-2.4055-12.96473-7.15433-.351-.55241-.71057-1.09932-1.06617-1.64881.28952-.81673,1.12-.8515,1.7387-1.1186C246.0674,75.44727,270.419,74.787,295.14,82.52653c1.14158.3574,2.27623.73817,3.40645,1.13015C299.09963,83.84852,299.73676,83.97706,299.78551,84.75283Z"/><path class="cls-10" d="M346.95719,115.2397c-.50307,3.06783-2.04513,5.73216-3.37187,8.46556a17.02623,17.02623,0,0,0-1.63453,7.28622,45.50047,45.50047,0,0,1-.27614,6.44739c-1.02144,6.36579-6.10757,8.31542-11.14766,4.27164a17.12358,17.12358,0,0,1-5.513-6.75051c-2.68587-6.6914-7.62778-11.46591-12.90389-16.04556-3.8229-3.31825-6.83925-7.23215-7.73149-12.39131-1.21637-7.03346,1.05281-12.83782,6.37015-17.51416,3.7866,1.37976,7.11923,3.6145,10.57271,5.62115,4.93282,2.86625,9.32915,6.49847,13.96314,9.79139,3.43318,3.13786,7.07293,6.04866,10.32233,9.38836C346.064,114.27968,346.50746,114.76277,346.95719,115.2397Z"/><path class="cls-10" d="M177.49184,130.72657a24.12866,24.12866,0,0,1,8.09389-12.59128,51.40341,51.40341,0,0,1,5.03142-3.75349,86.32175,86.32175,0,0,0,11.9736-9.12963,14.72351,14.72351,0,0,1,13.39558-4.02066c1.70792.3056,3.41781.6079,5.113.97537a48.67834,48.67834,0,0,0,9.95188,1.28854,25.118,25.118,0,0,1,15.00318,4.65932c2.41633,1.74678,5.1478,3.06265,7.49528,4.9374,3.46933,2.77073,4.22607,5.349,2.83209,9.45445-4.127-1.19054-8.00811-3.04441-12.053-4.46112-11.61678-4.06864-23.4686-6.14863-35.78089-4.27954-11.724,1.77975-21.51633,7.282-29.786,15.65725C178.34235,129.88807,177.91535,130.30561,177.49184,130.72657Z"/><path class="cls-9" d="M307.82,83.513a32.34628,32.34628,0,0,1,8.79251-15.4458,21.65317,21.65317,0,0,1,8.263-5.40952c3.62153-1.22811,7.30815,1.0333,8.76263,4.00245,2.50508,5.11387,2.52079,10.5928,2.19191,16.09444-.31836,5.32581-1.84969,10.58025-.92781,15.97887a1.65329,1.65329,0,0,1-.36761,1.16667c-1.14746-.47812-1.75166-1.58969-2.70917-2.31113-3.58647-2.7022-7.5479-4.8193-11.2487-7.34112-1.31655-.89711-2.8686-1.44236-4.22069-2.29489C313.62993,86.234,310.559,85.19525,307.82,83.513Z"/><path class="cls-9" d="M296.48626,150.5542c-5.99889,2.47582-11.50392,6.05863-17.69485,8.06962a25.76078,25.76078,0,0,1-8.4024,1.54813c-3.70569-.07013-7.7632-2.34212-8.46215-5.88331a14.255,14.255,0,0,1,.50456-6.50848,28.47706,28.47706,0,0,1,8.56164-14.12032C279.60561,139.11828,288.2632,144.50839,296.48626,150.5542Z"/><path class="cls-10" d="M287.2486,140.11609a9.42916,9.42916,0,0,1,5.5086,1.82475c1.1727.72112,2.30212,1.51533,3.42826,2.309a13.15784,13.15784,0,0,0,13.45982,1.34877c2.31878-.96858,4.62443-1.99989,7.01192-2.76654,5.71507-1.83521,9.412.67549,9.96361,6.68911a14.07537,14.07537,0,0,1-3.63451,10.75535,109.02178,109.02178,0,0,1-17.60951-8.34593c-1.61126-.91041-3.20574-1.85049-4.80792-2.777Z"/><path class="cls-3" d="M307.82,83.513c2.739,1.68224,5.80994,2.721,8.53609,4.44,1.35209.85253,2.90414,1.39778,4.22069,2.29489,3.7008,2.52182,7.66223,4.63892,11.2487,7.34112.95751.72144,1.56171,1.833,2.70917,2.31113a7.01109,7.01109,0,0,1,.75,4.5214c-4.634-3.29293-9.03034-6.92515-13.96316-9.7914-3.45348-2.00665-6.78611-4.24139-10.57271-5.62115-1.033-1.12261-2.97514-.934-3.67017-2.54408Q307.44964,84.989,307.82,83.513Z"/><path class="cls-3" d="M287.2486,140.11609l13.32027,9.03751a7.94705,7.94705,0,0,1-4.08259,1.40066c-8.22308-6.04587-16.88067-11.436-25.49322-16.89442q1.09235-1.22389,2.18545-2.44788C277.74736,134.37166,282.801,136.765,287.2486,140.11609Z"/><path class="cls-10" d="M308.32671,122.93459a3.34033,3.34033,0,0,1,2.06843,2.74423c.27433,1.28651.5999,2.56213.903,3.84248.65158,2.752.06583,5.13964-2.248,6.88157-2.40221,1.80843-5.02859,1.71651-7.63176.488a12.25269,12.25269,0,0,1-4.75011-4.02156,11.41579,11.41579,0,0,0-7.98643-4.63072c-3.06939-.48557-6.16253-.838-9.2145-1.41221-3.77009-.70937-6.6404-2.58411-7.77654-6.52783-1.05856-3.67448.32534-6.45724,2.84708-9.04727,2.198-2.25756,4.25551-2.78089,7.38747-1.53609A169.35759,169.35759,0,0,1,308.32671,122.93459Z"/><path class="cls-10" d="M281.50488,106.74875c6.90058-3.85336,14.89979-2.10412,19.19287,4.10422,1.37685,1.99107,2.62055,4.07422,4.084,6.36378A144.84628,144.84628,0,0,0,281.50488,106.74875Z"/><path class="cls-10" d="M252.40957,103.26583a116.05339,116.05339,0,0,1,20.88964,3.80384C267.62255,112.41539,257.66448,110.64263,252.40957,103.26583Z"/><path class="cls-6" d="M336.4,160.5793c-1.55745.41537-2.38078-.88777-3.27936-1.64206-.94154-.79039-2.70841-1.5428-1.96968-3.19809.67026-1.5018,2.34813-.95315,3.56434-.8099a16.96889,16.96889,0,0,1,8.69357,3.91352c.78722.63589,1.87267,1.67708.97,2.72563-1.09506,1.272-2.6655.94045-4.08636.27257.57158-.21291,1.461.065,1.59154-.83609.09653-.666-.48624-1.05073-.9535-1.42107a9.97806,9.97806,0,0,0-5.05437-2.14777c-.63865-.07828-1.44454-.19844-1.764.48445-.33759.72163.31474,1.19673.83661,1.60447C335.41964,159.89288,335.91528,160.22911,336.4,160.5793Z"/><path class="cls-6" d="M358.77758,136.16659c.39054.44272.81771.85882,1.16334,1.33419.55915.769.07692,1.52387-.252,2.16411-.29887.58179-.9948.52172-1.60931.38914a7.95055,7.95055,0,0,1-3.651-2.15765,18.52007,18.52007,0,0,1-4.68451-5.94162c-.37569-.85226-.83057-1.84242-.1583-2.70629a1.91055,1.91055,0,0,1,2.62049-.11173c1.40995.904,3.301,1.343,3.87146,3.26648-.548-.363-1.08435-.74537-1.64742-1.08327-.51774-.31075-1.12714-.64959-1.65366-.17376-.4619.41747-.19282,1.03071.02175,1.5079a9.49167,9.49167,0,0,0,4.3655,4.59246C358.2638,137.82428,358.88713,137.49408,358.77758,136.16659Z"/><path class="cls-10" d="M358.77758,136.16659c.10955,1.32749-.51378,1.65769-1.61365,1.08a9.49167,9.49167,0,0,1-4.3655-4.59246c-.21457-.47719-.48365-1.09043-.02175-1.5079.52652-.47583,1.13592-.137,1.65366.17376.56307.3379,1.09942.72026,1.64742,1.08327A14.03379,14.03379,0,0,1,358.77758,136.16659Z"/><path class="cls-10" d="M336.4,160.5793c-.48473-.35019-.98037-.68642-1.45125-1.05434-.52187-.40774-1.1742-.88284-.83661-1.60447.31947-.68289,1.12536-.56273,1.764-.48445a9.97806,9.97806,0,0,1,5.05437,2.14777c.46726.37034,1.05.75511.9535,1.42107-.13059.901-1.02.62318-1.59154.83609l-1.53227-.261a.40233.40233,0,0,0-.32987-.11232Z"/><path class="cls-6" d="M338.43035,161.46761a.40233.40233,0,0,1,.32987.11232C338.59336,161.70967,338.43764,161.80663,338.43035,161.46761Z"/><path class="cls-2" d="M142.354,228.30273V228.165c0-13.72461,10.34571-24.9668,25.17432-24.9668,9.10352,0,14.55225,3.03467,19.03516,7.44824l-6.75879,7.79395c-3.72461-3.37988-7.51758-5.44824-12.34571-5.44824-8.13818,0-14.001,6.75879-14.001,15.03515v.1377c0,8.27637,5.72461,15.17383,14.001,15.17383,5.51758,0,8.89747-2.207,12.69043-5.65528l6.75928,6.82715c-4.96582,5.31153-10.4834,8.62207-19.79443,8.62207A24.37005,24.37005,0,0,1,142.354,228.30273Z"/><path class="cls-2" d="M194.77,201.957h10.4834v50.34766H194.77Z"/><path class="cls-2" d="M213.32129,234.02734v-.13769c0-10.6211,8.55273-19.24219,20.07031-19.24219,11.44922,0,19.93262,8.4834,19.93262,19.10449v.1377c0,10.62109-8.55274,19.24316-20.07031,19.24316C221.80469,253.13281,213.32129,244.64941,213.32129,234.02734Zm29.65723,0v-.13769c0-5.44824-3.93116-10.207-9.72461-10.207-6.00049,0-9.58692,4.62011-9.58692,10.06933v.1377c0,5.44824,3.93115,10.208,9.72461,10.208C239.39209,244.09766,242.97852,239.47656,242.97852,234.02734Z"/><path class="cls-2" d="M260.63281,239.26953V215.33691h10.4834V235.959c0,4.96582,2.34473,7.51758,6.34473,7.51758,4.001,0,6.55273-2.55176,6.55273-7.51758V215.33691h10.4834v36.96778h-10.4834V247.0625c-2.41406,3.10449-5.51758,5.93164-10.82812,5.93164C265.25391,252.99414,260.63281,247.75293,260.63281,239.26953Z"/><path class="cls-2" d="M302.2207,233.88965v-.1377c0-12.3457,8.06934-19.10449,16.82813-19.10449a14.19417,14.19417,0,0,1,11.51758,5.51758V201.957H341.0498v50.34766H330.56641v-5.31055a13.57609,13.57609,0,0,1-11.51758,6C310.42773,252.99414,302.2207,246.23535,302.2207,233.88965Zm28.48438,0v-.1377c0-6.13867-4.06934-10.208-8.9668-10.208-4.89648,0-9.03516,4.001-9.03516,10.208v.1377c0,6.13867,4.13868,10.208,9.03516,10.208C326.63574,244.09766,330.70508,240.02832,330.70508,233.88965Z"/><path class="cls-2" d="M350.01465,241.26953H361.1875v11.03516H350.01465Z"/><path class="cls-1" d="M210.58545,269.26953h9.79346L243.001,298.99512V269.26953h10.4834v48.27832h-9.03516l-23.38037-30.6914v30.6914h-10.4834Z"/><path class="cls-1" d="M262.17383,299.27051v-.1377c0-10.55273,7.51758-19.24219,18.27734-19.24219,12.34571,0,18.001,9.58692,18.001,20.07032,0,.82715-.06934,1.793-.1377,2.75879H272.58887c1.03418,4.75879,4.34472,7.24121,9.03418,7.24121,3.51757,0,6.07031-1.10352,8.96679-3.793l6,5.31055c-3.44824,4.27636-8.41406,6.89648-15.10449,6.89648C270.38184,318.375,262.17383,310.582,262.17383,299.27051Zm26.07031-3.10352c-.62012-4.68945-3.37891-7.8623-7.793-7.8623-4.3457,0-7.17285,3.10351-8.001,7.8623Z"/><path class="cls-1" d="M314.03809,298.78809l-12.4834-18.208h11.24219l6.89648,10.75976,6.96582-10.75976H337.626l-12.4834,18.001,13.03515,18.9668H326.93555l-7.44922-11.51758-7.44824,11.51758h-10.9668Z"/><path class="cls-1" d="M346.17676,307.06445V289.5459H341.7627v-8.96582h4.41406v-9.44922h10.4834v9.44922h8.69043v8.96582h-8.69043v15.79394c0,2.41407,1.03515,3.58692,3.37988,3.58692a10.67,10.67,0,0,0,5.17285-1.31055v8.41406a15.45624,15.45624,0,0,1-8.27637,2.13868C350.52148,318.169,346.17676,315.61719,346.17676,307.06445Z"/></svg>