<svg xmlns="http://www.w3.org/2000/svg" viewBox="0 0 375 414"><defs><style>.cls-1{fill:#74c3d5;}.cls-2{fill:#e2eaed;}.cls-3{fill:#b9cdd1;}.cls-4{fill:#feca29;}.cls-5{fill:#416ba9;}.cls-6{fill:none;}.cls-7{fill:#fff;}</style></defs><g id="Layer_1" data-name="Layer 1"><path class="cls-1" d="M358.70951,353.34241H15.51209V10.145H358.70951ZM55.19429,313.66021h263.833V49.82719H55.19429Z"/><g id="eTk85N"><path class="cls-2" d="M123.02926,147.992c-4.76983-3.21854-6.44619-8.51025-7.62982-13.47132-4.88991-20.49557,9.41127-37.23958,27.40989-40.00416,2.66725-.40969,3.10734-1.95192,3.519-3.75437,4.16123-18.2215,21.3267-27.25482,39.07784-21.94922,2.73175.81649,4.39741.66332,6.579-1.42817a34.67824,34.67824,0,0,1,54.11728,6.8429c2.27953,3.67735,4.6861,4.13955,8.26611,4.10925,10.5867-.0896,21.79736,7.38358,24.19532,17.61819,1.5033,6.41625,3.57786,9.794,10.50686,10.60627a15.55124,15.55124,0,0,1,10.28344,6.54652c-1.85057,2.2413-.61029,4.86434-.868,7.29784-.82773,7.8168-3.50947,14.50743-11.18469,17.92636a30.26552,30.26552,0,0,1-17.84368,2.0615c-3.06739-.52537-6.55747-2.03783-9.02794,2.15962-9.5011,16.14289-25.99536,19.977-41.94782,9.89522-2.39306-1.51238-4.02-1.84315-6.63667.12575-15.21825,11.451-41.47927,12.13381-54.3173-4.86028-2.25-2.97835-3.77481-4.23166-6.813-1.08235-1.15159,1.19369-3.14658,1.58546-4.77272,2.30767-7.27182,3.22962-14.54121,1.50713-21.80887-.032l.03386.01832Q123.59815,148.45875,123.02926,147.992Z"/><path class="cls-3" d="M124.13348,148.90715c7.26766,1.53915,14.53705,3.26164,21.80887.032,1.62614-.72221,3.62113-1.114,4.77272-2.30767,3.03819-3.14931,4.563-1.896,6.813,1.08235,12.838,16.99409,39.099,16.3113,54.3173,4.86028,2.61663-1.9689,4.24361-1.63813,6.63667-.12575,15.95246,10.08179,32.44672,6.24767,41.94782-9.89522,2.47047-4.19745,5.96055-2.685,9.02794-2.15962a30.26552,30.26552,0,0,0,17.84368-2.0615c7.67522-3.41893,10.357-10.10956,11.18469-17.92636.25769-2.4335-.98259-5.05654.868-7.29784a26.10824,26.10824,0,0,1-11.93311,43.1826,28.07751,28.07751,0,0,1-11.91554.47152c-2.79665-.39241-3.72777.23576-4.80827,2.66147-5.10746,11.46631-13.84182,18.65279-26.19649,21.2473-5.02713,1.0557-10.01838.08172-15.00762-.49869a45.49335,45.49335,0,0,1-9.29886-4.20715c-1.13885-.71241-2.11637-1.42014-3.55972-.28886-6.61311,5.18321-14.41016,7.43008-22.53219,8.80283-17.90584.004-32.32261-6.52615-41.44438-22.541-1.46642-2.57456-3.38849-2.29405-5.58808-2.39844C137.9956,159.10883,129.95806,156.37769,124.13348,148.90715Z"/><path class="cls-4" d="M194.10235,184.47886c8.122-1.37275,15.91908-3.61962,22.53219-8.80283,1.44335-1.13128,2.42087-.42355,3.55972.28886a45.49335,45.49335,0,0,0,9.29886,4.20715c-3.94111,4.42479-8.02425,8.73307-11.77859,13.311-3.106,3.78729-2.56647,4.59688,2.18338,5.43841,5.14174.911,10.44584,1.22222,15.25638,3.576,4.82764,2.36215,5.34574,4.358,2.12147,8.487a146.14066,146.14066,0,0,1-28.654,27.97781,39.47472,39.47472,0,0,1-5.258,3.35509c-1.61733.83234-3.45126,2.50937-5.2478.69252-1.78845-1.80869.39134-3.24291,1.09169-4.65922,3.0296-6.12682,6.40351-12.08738,9.318-18.26606,3.01753-6.39719,2.31218-7.293-4.63124-7.76461-6.37843-.43317-12.74015-1.11775-19.11992-1.52378-3.79961-.2418-4.03118-2.08621-2.8194-5.05522C185.06837,198.11285,190.01459,191.5433,194.10235,184.47886Z"/><path class="cls-3" d="M123.02926,147.992q.569.46677,1.13808.93352Q123.59845,148.45869,123.02926,147.992Z"/></g><path class="cls-1" d="M125.98571,196.2368c-.84516-4.16221-1.21595-8.39255-1.78011-12.59384q-4.43526-33.02893-8.81627-66.06515c-.1408-1.04758-.00934-1.47591,1.12008-1.63521q23.25825-3.28069,46.50693-6.62891a6.39439,6.39439,0,0,1,.7779-.018,63.98261,63.98261,0,0,1-3.39294,8.24174q-16.81243,38.77923-33.70011,77.52577C126.52041,195.47853,126.47982,196.00337,125.98571,196.2368Z"/><path class="cls-5" d="M140.72,230.123l-.01319-.02372c-2.21612,1.84516-4.85343,3.02152-7.25513,4.57185-.67843.438-.81466-.07643-.92113-.54051-.39459-1.72009-.76292-3.44616-1.17392-5.31954Z"/><path class="cls-5" d="M184.77983,265.826a.71378.71378,0,0,1-.16188-.07736c-.52327-2.6039-.99062-5.22268-1.59758-7.80872-.25669-1.09364.02362-1.24178,1.02221-1.0788,1.3878.2265,2.79644.33065,4.19868.45957.63.05791.99946.13459.57388.91291C187.44019,260.748,186.12069,263.29286,184.77983,265.826Z"/><path class="cls-5" d="M131.60969,212.56779c2.62994-1.74274,4.93712-3.24945,7.2169-4.79656.64124-.43515.78975-.09474.93265.4288.46569,1.70624.938,3.41071,1.46749,5.33286C138.05691,213.21477,135.03537,212.91156,131.60969,212.56779Z"/><path class="cls-5" d="M177.27275,274.06682c2.29551-2.22618,4.45085-4.31637,6.94743-6.73751-.38329,3.36869-.71875,6.31715-1.06939,9.39885Z"/><path class="cls-5" d="M129.84882,212.72186l.00538-.01783c-2.66053.73959-5.32286,1.47414-7.9807,2.22453-.53141.15-1.03428.41576-.9717-.54228.1185-1.81441.18514-3.63226.28406-5.66958Z"/><path class="cls-5" d="M155.20692,247.63659c-2.19551,2.0642-4.15114,3.86231-6.05473,5.714-.69116.67228-.91092.29112-1.192-.33025-.58038-1.28312-1.15477-2.57173-1.80728-3.8185-.43584-.83278-.08077-.96726.65244-1.01132C149.50744,248.02819,152.20776,247.83689,155.20692,247.63659Z"/><path class="cls-5" d="M171.475,257.729c.49688-2.77168,1.007-5.54108,1.48083-8.3167.11005-.64466.20961-.97667.95715-.53945,1.52515.892,3.09551,1.70673,4.8701,2.67486-2.51884,2.127-4.917,4.15208-7.315,6.17721Z"/><path class="cls-5" d="M170.36581,259.01816c-1.52908,2.78269-2.86061,5.19335-4.1774,7.61207-.28749.528-.56966.50021-.94291.09661-1.09711-1.18629-2.20988-2.35811-3.30484-3.54639-.28009-.304-.4-.63549.11907-.84322C164.70321,261.27911,167.34781,260.22379,170.36581,259.01816Z"/><path class="cls-5" d="M142.39716,229.68319c2.07826-2.38025,3.89615-4.43506,5.67773-6.52092.47841-.56011.71241-.38454,1.01495.13516q1.18486,2.03525,2.41782,4.04233c.26559.43377.39324.76264-.28141.87432C148.419,228.6788,145.61243,229.14777,142.39716,229.68319Z"/><path class="cls-5" d="M198.77589,274.03764c1.00979,2.82146.98969,5.82105,1.66069,8.926l-6.37769-1.06037c1.63571-2.70307,3.00081-5.38728,4.74826-7.8497Z"/><path class="cls-5" d="M217.02461,278.85153c1.199,3.09475,2.23647,5.77269,3.34368,8.63056-1.923.12892-3.72577.24557-5.52773.37284-.63805.04505-.67739-.22786-.50153-.75738C215.20843,284.48009,216.05022,281.85345,217.02461,278.85153Z"/><path class="cls-5" d="M235.38978,279.59246a.33467.33467,0,0,1-.17227-.03759c-1.62366-2.10033-3.2245-4.22065-4.886-6.29232-.55154-.68771-.51265-1.04345.32948-1.33883,1.42423-.49952,2.838-1.02982,4.24857-1.567.94184-.35864.76432.31422.74988.8029C235.57652,273.97081,235.481,276.78156,235.38978,279.59246Z"/><path class="cls-5" d="M198.83445,271.65l.03613.01608c-1.18839-2.32631-2.34924-4.66718-3.5796-6.97092-.44732-.83754-.52771-1.27559.62658-1.39225,1.39877-.14135,2.781-.43963,4.17524-.63548.33811-.04749,1.02716-.33269.83307.4259C200.19791,265.93832,200.0411,268.92408,198.83445,271.65Z"/><path class="cls-5" d="M157.018,246.56955l-.07317.019-.04424-.04721c1.255-2.34645,2.54933-4.673,3.74442-7.0495.50225-.99876.88881-.69435,1.43254-.107.88606.95723,1.77988,1.90884,2.706,2.82693.58887.58377.68632.917-.23267,1.27474C162.023,244.47078,159.52679,245.53624,157.018,246.56955Z"/><path class="cls-5" d="M216.50391,276.73771l-.05032-.02447c-1.612-1.92745-3.21341-3.86443-4.84268-5.77771-.664-.77979-.75007-1.25738.42-1.61337,1.24715-.37942,2.43738-.946,3.65164-1.43294.45576-.18276.95432-.44169.94514.409A73.19048,73.19048,0,0,1,216.50391,276.73771Z"/><path class="cls-5" d="M198.80716,274.05354a.53061.53061,0,0,1,.02026-.12476c.00578-.01446.04824-.01428.074-.02078q-.06246.065-.12522.12986Z"/><path class="cls-5" d="M114.81073,116.68161c.03851.31477.07373.62658.11509.93756q2.62887,19.76239,5.25951,39.52454,2.58375,19.37887,5.16347,38.75825c.10223.774.59455,2.07928-.30763,2.21535-1.16915.17631-.95612-1.258-1.0616-2.03923q-4.282-31.71411-8.49783-63.43714c-.67664-5.07712-1.31472-10.15938-1.96392-15.24012-.04877-.3817-.306-.874.3364-1.01609C114.20631,116.30685,114.58854,116.26108,114.81073,116.68161Z"/><path class="cls-6" d="M111.394,114.48242a4.42481,4.42481,0,0,1-.65088.13867A4.408,4.408,0,0,0,111.394,114.48242Z"/><path class="cls-6" d="M110.74316,114.62109c-14.65014,2.03223-29.28711,4.15918-43.92724,6.26148C81.4563,118.78027,96.093,116.65332,110.74316,114.62109Z"/><path class="cls-6" d="M106.65088,65.23572h-.00049a15.12856,15.12856,0,0,0,.10938,1.629A15.00964,15.00964,0,0,1,106.65088,65.23572Z"/><path class="cls-6" d="M120.18555,157.14368q-2.63526-19.76166-5.25977-39.52454c-.0415-.311-.07666-.6228-.11523-.9375-.22217-.42065-.6045-.37476-.95606-.29687-.64258.14209-.38525.63427-.33691,1.01611.64941,5.08069,1.2876,10.16284,1.96435,15.24q4.22754,31.72155,8.49756,63.43725c.10547.78126-.10742,2.21546,1.06153,2.03919.90234-.13611.41015-1.44128.30761-2.21545Q122.78882,176.52,120.18555,157.14368Z"/><path class="cls-6" d="M112.95117,113.45581c.05615.3606.1626.68433.56934.73023C113.11377,114.14014,113.00781,113.81641,112.95117,113.45581Z"/><path class="cls-5" d="M129.84863,212.72192c.02051-.00781.03174-.01733.04981-.02563-.01612.00415-.02735.00268-.04444.00781Z"/><path class="cls-5" d="M171.46826,257.725l-.0039.01367.01074-.00965Z"/><path class="cls-5" d="M198.83447,271.6499c.00391.0127.01074.02075.01514.033.00635-.00818.01514-.00806.021-.01684Z"/><path class="cls-5" d="M140.71973,230.12292c-.002-.00695-.00635-.01269-.00879-.01965l-.00391-.004Z"/><path class="cls-5" d="M162.728,105.67944C146.917,93.79211,132,84,115.27,72.05127m-9.30713-6.75891q1.58423,11.6358,3.167,23.27185.10694.79174.21533,1.5835.92359,6.84375,1.83106,13.68994c.38135,2.84619.76172,5.69262,1.16309,8.53613.021.14893.03808.28882.0498.42017.082.92016-.0957,1.42456-.99512,1.68847a4.408,4.408,0,0,1-.65088.13867c-14.65014,2.03223-29.28686,4.15918-43.92724,6.26148q-1.47253.21148-2.94531.42346a1.74836,1.74836,0,0,1-.38086.004c-.12891-.00989-.2583-.02551-.38648-.03076-1.0813,1.4768-1.00439,1.7511.70215,2.24511a1.10006,1.10006,0,0,1,.58862.43665q7.96,9.705,15.93433,19.39819,18.55993,22.67909,37.09839,45.37537a42.291,42.291,0,0,0,4.42627,5.2959c1.873,1.64111,2.05908,4.00464,3.0459,5.96069,1.92382,3.81189,3.25244,7.94019,5.09814,11.8252.13281.27905.38379.65991-.09863.87988.751-.19434.769.52.96191.89624a136.24869,136.24869,0,0,0,7.66651,13.12512,15.81529,15.81529,0,0,1,2.18408,3.38562,10.97172,10.97172,0,0,1,.96289,1.012,111.88313,111.88313,0,0,0,7.61816,9.18738A124.95928,124.95928,0,0,0,194.2666,271.073c15.09424,6.2074,30.897,9.01636,47.12207,9.74878.31836.0144.93213.41467,1.00244-.27979.07569-.74866-.59521-.40893-.9248-.44507a54.38685,54.38685,0,0,1-6.07666-.50439.33364.33364,0,0,1-.17188-.0376,4.04019,4.04019,0,0,1-.76709.07507,142.80779,142.80779,0,0,1-14.69775-1.97546c-1.09863-.21179-2.31152-.10437-3.249-.91687l-.0503-.02454c-.36572.415-.78369.14258-1.16308.05726a123.47861,123.47861,0,0,1-14.77783-4.18079c-.58155-.20911-1.38331-.12122-1.66309-.90674a.41572.41572,0,0,1-.51563.15625,102.75557,102.75557,0,0,1-13.55419-6.01318.7097.7097,0,0,1-.16163-.07739,101.17512,101.17512,0,0,1-12.61865-7.23511c-.24853-.16114-.73389-.26648-.53515-.77478-.38282.42529-.64258-.01123-.88916-.17639a118.23008,118.23008,0,0,1-13.25293-10.34595c-.2002-.17993-.38721-.34387-.3042-.64673l-.07325.019-.04443-.04736a7.57226,7.57226,0,0,1-2.39355-1.97546A114.41587,114.41587,0,0,1,128.793,207.34424c-1.52344-3.52588-3.582-6.97608-2.80713-11.10742-.84522-4.16224-1.21631-8.39258-1.78027-12.59388q-4.43482-33.02892-8.81641-66.06506c-.14062-1.04761-.00928-1.47607,1.12012-1.63525q23.25805-3.28089,46.50732-6.62891a6.39237,6.39237,0,0,1,.77783-.01807c.46289-.44384,1.3252-.09643,1.79639-.86926-16.91894,2.43164-33.68115,4.84082-50.44385,7.24988q-21.34057,3.067-42.68115,6.13257-4.18725.60094-8.37939,1.16626c-.44288.05957-1.11426.22094-1.16407-.40186-.043-.53711.60376-.60608,1.07642-.66015.10376-.01184.20923-.011.31274-.02588q20.96046-3.01978,41.92139-6.03931,22.66773-3.25341,45.33789-6.4873c4.57324-.65577,9.14307-1.33692,13.792-2.01783m-52.41162,6.113c.05664.3606.1626.68433.56934.73023C113.11377,114.14014,113.00732,113.81641,112.95117,113.45581Zm12.08985,84.6615c-1.169.17627-.95606-1.25793-1.06153-2.03919q-4.28173-31.71423-8.49756-63.43725c-.67675-5.07715-1.31494-10.1593-1.96435-15.24-.04834-.38184-.30567-.874.33691-1.01611.35156-.07789.73389-.12378.95606.29687.03857.3147.07373.62647.11523.9375q2.62866,19.7624,5.25977,39.52454,2.58324,19.379,5.16308,38.75818C125.45117,196.676,125.94336,197.9812,125.041,198.11731Z"/><path class="cls-1" d="M63.87061,121.306q1.4729-.21113,2.94531-.42346c14.64013-2.1023,29.2771-4.22925,43.92724-6.26148a4.42481,4.42481,0,0,0,.65088-.13867c.89942-.26391,1.07715-.76831.99512-1.68847-.01172-.13135-.02881-.27124-.0498-.42017-.40137-2.84351-.78174-5.68994-1.16309-8.53613q-.91773-6.84466-1.83106-13.68994-.10692-.79194-.21533-1.5835-1.574-11.63745-3.167-23.27185v.00012c-.50293.23193-.73144.72241-1.04248,1.12842Q87.606,89.0205,70.31006,111.63391c-2.43457,3.18982-5.05908,6.2406-7.20679,9.64539.12818.00525.25757.02087.38648.03076A1.74836,1.74836,0,0,0,63.87061,121.306Z"/><path class="cls-5" d="M15,404.04619V376.74552H34.08047v6.22015H22.90019v5.42013H33.02044V394.386H22.90019v9.66024Z"/><path class="cls-5" d="M42.49646,404.04619V376.74552h7.9002v27.30067Z"/><path class="cls-5" d="M79.45316,404.04619H60.29269V376.74552H79.45316v6.12015H68.11288v4.74011H78.71314v5.56014H68.11288V397.926H79.45316Z"/><path class="cls-5" d="M106.89068,404.04619H88.71023V376.74552h7.90019V397.546h10.28026Z"/><path class="cls-5" d="M126.687,376.74552a13.62215,13.62215,0,0,1,7.14965,1.67056,9.94,9.94,0,0,1,4.05063,4.69907,17.99943,17.99943,0,0,1,1.3,7.1307,18.377,18.377,0,0,1-1.32951,7.26965,10.2688,10.2688,0,0,1-4.09062,4.82117,13.26642,13.26642,0,0,1-7.08018,1.70952H115.14667V376.74552ZM123.04686,397.926h2.24006a6.93757,6.93757,0,0,0,2.68006-.46,4.16143,4.16143,0,0,0,1.78952-1.4,6.25355,6.25355,0,0,0,1.01055-2.34006,14.7843,14.7843,0,0,0,.32-3.26008,13.059,13.059,0,0,0-.58-4.19063,4.87377,4.87377,0,0,0-1.84952-2.54953,5.92244,5.92244,0,0,0-3.37061-.86h-2.24006Z"/><path class="cls-5" d="M153.98341,395.846a2.38175,2.38175,0,0,0,.32948,1.02,3.17655,3.17655,0,0,0,.82108.91055,4.08568,4.08568,0,0,0,1.3095.64949,6.13,6.13,0,0,0,1.8.24,5.89981,5.89981,0,0,0,2.17058-.32949,2.51651,2.51651,0,0,0,1.179-.88,2.08747,2.08747,0,0,0,.37054-1.19055,1.74729,1.74729,0,0,0-.9895-1.66,10.79887,10.79887,0,0,0-2.8906-.88l-3.44008-.64a13.43456,13.43456,0,0,1-3.94957-1.36,6.95246,6.95246,0,0,1-2.7106-2.58006,7.828,7.828,0,0,1-.98-4.0801,7.94129,7.94129,0,0,1,1.4-4.74012,8.81032,8.81032,0,0,1,3.90956-3.00007,15.2162,15.2162,0,0,1,5.85067-1.04,13.64757,13.64757,0,0,1,6.17068,1.2295,8.73055,8.73055,0,0,1,3.619,3.1706,7.83122,7.83122,0,0,1,1.21055,4.0801h-7.18017a2.68767,2.68767,0,0,0-.48-1.26,3.22933,3.22933,0,0,0-1.24951-1.04,4.614,4.614,0,0,0-2.09058-.42,3.80246,3.80246,0,0,0-2.50953.69054,2.13434,2.13434,0,0,0-.81055,1.68952,1.66435,1.66435,0,0,0,.96,1.48951,8.025,8.025,0,0,0,2.64006.83054l3.62009.6a13.0821,13.0821,0,0,1,3.70009,1.18,7.21,7.21,0,0,1,2.84007,2.50953,7.81012,7.81012,0,0,1,1.1,4.39064,8.28678,8.28678,0,0,1-5.16013,7.92019,15.65858,15.65858,0,0,1-6.50016,1.18,16.95684,16.95684,0,0,1-5.42961-.74949,9.63,9.63,0,0,1-3.53061-2.01058,7.53472,7.53472,0,0,1-1.93057-2.80007,8.97707,8.97707,0,0,1-.60949-3.12007Z"/><path class="cls-5" d="M196.196,404.04619V383.10567h-7.06018v-6.36015H211.1764v6.36015h-7.06018v20.94052Z"/><path class="cls-5" d="M238.0139,404.04619H218.85343V376.74552H238.0139v6.12015H226.67362v4.74011h10.60026v5.56014H226.67362V397.926H238.0139Z"/><path class="cls-5" d="M253.47007,395.846a2.38148,2.38148,0,0,0,.32948,1.02,3.17666,3.17666,0,0,0,.82107.91055,4.08563,4.08563,0,0,0,1.30951.64949,6.12984,6.12984,0,0,0,1.8.24,5.89977,5.89977,0,0,0,2.17058-.32949,2.51659,2.51659,0,0,0,1.179-.88,2.08753,2.08753,0,0,0,.37053-1.19055,1.74727,1.74727,0,0,0-.9895-1.66,10.7989,10.7989,0,0,0-2.89059-.88l-3.44009-.64a13.43466,13.43466,0,0,1-3.94957-1.36,6.95243,6.95243,0,0,1-2.71059-2.58006,7.828,7.828,0,0,1-.98-4.0801,7.94129,7.94129,0,0,1,1.4-4.74012,8.81035,8.81035,0,0,1,3.90957-3.00007,15.21613,15.21613,0,0,1,5.85067-1.04,13.64763,13.64763,0,0,1,6.17068,1.2295,8.73058,8.73058,0,0,1,3.619,3.1706,7.83124,7.83124,0,0,1,1.21056,4.0801h-7.18018a2.68756,2.68756,0,0,0-.48-1.26,3.22937,3.22937,0,0,0-1.2495-1.04,4.61408,4.61408,0,0,0-2.09058-.42,3.80249,3.80249,0,0,0-2.50954.69054,2.13436,2.13436,0,0,0-.81054,1.68952,1.66434,1.66434,0,0,0,.96,1.48951,8.02516,8.02516,0,0,0,2.64006.83054l3.62009.6a13.082,13.082,0,0,1,3.70009,1.18,7.21,7.21,0,0,1,2.84007,2.50953,7.81012,7.81012,0,0,1,1.1,4.39064,8.28674,8.28674,0,0,1-5.16013,7.92019,15.65858,15.65858,0,0,1-6.50016,1.18,16.95674,16.95674,0,0,1-5.4296-.74949,9.63,9.63,0,0,1-3.53062-2.01058,7.53484,7.53484,0,0,1-1.93057-2.80007,8.97707,8.97707,0,0,1-.60949-3.12007Z"/><path class="cls-5" d="M282.88658,404.04619V383.10567H275.8264v-6.36015h22.04054v6.36015h-7.06017v20.94052Z"/><path class="cls-5" d="M324.70339,404.04619H305.54292V376.74552h19.16047v6.12015H313.36311v4.74011h10.60026v5.56014H313.36311V397.926h11.34028Z"/><path class="cls-5" d="M345.49969,376.74552a13.62215,13.62215,0,0,1,7.14965,1.67056A9.94,9.94,0,0,1,356.7,383.11515a17.99926,17.99926,0,0,1,1.3,7.1307,18.377,18.377,0,0,1-1.32951,7.26965,10.2688,10.2688,0,0,1-4.09062,4.82117,13.26642,13.26642,0,0,1-7.08018,1.70952H333.95941V376.74552ZM341.8596,397.926h2.24006a6.93757,6.93757,0,0,0,2.68006-.46,4.16143,4.16143,0,0,0,1.78952-1.4,6.25355,6.25355,0,0,0,1.01055-2.34006,14.7843,14.7843,0,0,0,.32-3.26008,13.059,13.059,0,0,0-.58-4.19063,4.87377,4.87377,0,0,0-1.84952-2.54953,5.92244,5.92244,0,0,0-3.37061-.86H341.8596Z"/><path class="cls-5" d="M359.24576,353.87866H14.97584V9.60874H359.24576ZM36.42568,332.42882H337.79592V31.05858H36.42568Z"/><rect class="cls-7" x="228.88894" y="226.15408" width="59.35959" height="54.24239"/><polygon class="cls-5" points="236.984 280.177 235.694 267.077 225.998 268.033 225.866 268.045 226.047 269.886 228.125 290.971 251.049 288.712 250.081 278.886 236.984 280.177"/><polygon class="cls-5" points="294.641 261.27 284.742 262.245 284.822 262.311 286.106 275.337 273.08 276.621 273 276.556 273.976 286.454 296.899 284.195 294.641 261.27"/><polygon class="cls-5" points="225.382 244.949 233.508 244.149 233.428 244.081 232.144 231.057 232.144 231.055 245.17 229.772 245.248 229.837 244.273 219.939 224.766 221.861 221.349 222.198 223.609 245.124 225.382 244.949"/><polygon class="cls-5" points="281.265 226.215 282.556 239.316 292.382 238.348 290.123 215.422 267.198 217.68 268.167 227.505 281.265 226.215"/><polygon class="cls-1" points="245.249 229.838 259.56 241.582 268.244 240.727 253.853 228.916 268.167 227.506 267.198 217.681 244.273 219.939 245.248 229.837 245.249 229.838"/><polygon class="cls-1" points="265.844 270.683 258.688 264.812 250.005 265.667 261.929 275.454 264.396 277.476 259.908 277.918 250.081 278.886 251.049 288.712 273.974 286.454 272.999 276.556 265.844 270.683"/><polygon class="cls-1" points="283.524 249.14 283.966 253.627 281.501 251.604 269.577 241.819 270.433 250.504 277.587 256.374 284.742 262.245 294.64 261.269 292.383 238.348 282.556 239.317 283.524 249.14"/><path class="cls-1" d="M235.69351,267.07738l0-.00026-1.41068-14.3127,14.388,11.80808-.85513-8.68445L233.5083,244.14929l-8.12551.80067-1.77432.17477.51368,5.21514c-2.80311.18915-5.60236.43339-8.40822.60962-5.23153.32834-10.44518.92861-15.67128,1.35726q-12.87159,1.05531-25.74794,2.03868c-10.78582.84274-21.56941,1.71685-32.359,2.49862-7.77727.56333-15.54422,1.25054-23.31862,1.84214q-8.42908.64086-16.85935,1.38284c-5.87739.52214-11.76629.90511-17.64559,1.4102a6.8991,6.8991,0,0,0-6.46234,6.59292,7.159,7.159,0,0,0,5.42319,7.39277c1.84008.50718,3.59564-.041,5.38538-.15407.80616-.05128,1.14969.12094,1.21837,1.00026.45914,5.83287.97307,11.66074,1.4596,17.49111.10936,1.31423.3483,1.4402,2.14244,1.28962,1.03712-.08716,1.33138-.55106,1.092-1.5374a9.96648,9.96648,0,0,1-.17422-1.79947c-.20725-3.88642-.93668-3.17543,3.39595-3.55709.86617-.07672,1.27233.33243,1.34369,1.17735.1082,1.28819.21608,2.57792.38036,3.86.15935,1.23755.532,1.37777,2.29261,1.19619,1.08731-.11191,1.021-.78078.96052-1.57323q-.28786-3.73572-.49826-7.47694c-.036-.62213.04877-1.32511.90045-1.27225,1.25626.07807,2.65244-.866,3.742.42932.16382.194.10994.581.134.88051.11423,1.3749.24573,2.74954.31977,4.12649.04254.791.43287,1.05037,1.16827.99278,1.802-.14172,3.612-.20628,5.407-.41394,2.61761-.30292,2.61536-.34478,2.4445-3.02884-.03606-.5794-.0444-1.13113.60326-1.42377,2.09716-.94874,3.30461-.19641,3.36159,2.10079.00185.08613-.01582.17314-.00844.25851.22047,2.61457.43432,5.22994.67334,7.84317.05155.56669.13559,1.13218.989,1.01254a33.19106,33.19106,0,0,1,3.33438-.31645c.93724-.03486,1.16566-.49225,1.08843-1.32949-.17685-1.88712-.30662-3.77838-.4692-5.6669-.45125-5.2366-.89262-10.47416-1.38108-15.70757-.08257-.87973.196-1.30328,1.05351-1.37987.3428-.03063.68509-.07991,1.02835-.10749q15.2028-1.22408,30.40531-2.44147c8.675-.68445,17.3536-1.33324,26.03006-2.00879q9.1485-.71245,18.29555-1.45478,12.16317-.98229,24.32556-1.97657l.34912,3.548,0,.00025.13163-.01277Z"/></g></svg>